<?xml version="1.0" encoding="UTF-8" standalone="no"?>
<!DOCTYPE svg PUBLIC "-//W3C//DTD SVG 1.1//EN"
 "http://www.w3.org/Graphics/SVG/1.1/DTD/svg11.dtd">
<!-- Generated by graphviz version 13.1.2 (0)
 -->
<!-- Pages: 1 -->
<svg width="2177pt" height="1832pt"
 viewBox="4.00 4.00 2174.00 1828.00" xmlns="http://www.w3.org/2000/svg" xmlns:xlink="http://www.w3.org/1999/xlink">
<g id="graph0" class="graph" transform="scale(1 1) rotate(0) translate(10.8 1821.05)">
<polygon fill="white" stroke="none" points="-7.2,7.2 -7.2,-1817.45 2162.73,-1817.45 2162.73,7.2 -7.2,7.2"/>
<text xml:space="preserve" text-anchor="middle" x="1077.77" y="-1796.75" font-family="Times,serif" font-size="10.00">HR Org Chart</text>
<!-- 0_AlNuaimi,_Rashed -->
<g id="node1" class="node">
<title>0_AlNuaimi,_Rashed</title>
<path fill="#e3f2fd" stroke="#555555" stroke-width="1.3" d="M773.41,-1791C773.41,-1791 615.88,-1791 615.88,-1791 609.88,-1791 603.88,-1785 603.88,-1779 603.88,-1779 603.88,-1767 603.88,-1767 603.88,-1761 609.88,-1755 615.88,-1755 615.88,-1755 773.41,-1755 773.41,-1755 779.41,-1755 785.41,-1761 785.41,-1767 785.41,-1767 785.41,-1779 785.41,-1779 785.41,-1785 779.41,-1791 773.41,-1791"/>
<text xml:space="preserve" text-anchor="middle" x="694.64" y="-1774.2" font-family="Helvetica,sans-Serif" font-size="9.00">AlNuaimi, Rashed</text>
<text xml:space="preserve" text-anchor="middle" x="694.64" y="-1764.45" font-family="Helvetica,sans-Serif" font-size="9.00">Chief Human Resources Officer (CHRO)</text>
</g>
<!-- 5_Moussoux,_Florence -->
<g id="node2" class="node">
<title>5_Moussoux,_Florence</title>
<path fill="#f9f9f9" stroke="#555555" d="M183.28,-1726C183.28,-1726 16,-1726 16,-1726 10,-1726 4,-1720 4,-1714 4,-1714 4,-1702 4,-1702 4,-1696 10,-1690 16,-1690 16,-1690 183.28,-1690 183.28,-1690 189.28,-1690 195.28,-1696 195.28,-1702 195.28,-1702 195.28,-1714 195.28,-1714 195.28,-1720 189.28,-1726 183.28,-1726"/>
<text xml:space="preserve" text-anchor="middle" x="99.64" y="-1709.2" font-family="Helvetica,sans-Serif" font-size="9.00">Moussoux, Florence</text>
<text xml:space="preserve" text-anchor="middle" x="99.64" y="-1699.45" font-family="Helvetica,sans-Serif" font-size="9.00">Head of HR Planning &amp; Strategic Initiatives</text>
</g>
<!-- 0_AlNuaimi,_Rashed&#45;&gt;5_Moussoux,_Florence -->
<g id="edge1" class="edge">
<title>0_AlNuaimi,_Rashed&#45;&gt;5_Moussoux,_Florence</title>
<path fill="none" stroke="#888888" d="M603.3,-1779C436.51,-1779 99.64,-1779 99.64,-1779 99.64,-1779 99.64,-1734.8 99.64,-1734.8"/>
<polygon fill="#888888" stroke="#888888" points="102.09,-1734.8 99.64,-1727.8 97.19,-1734.8 102.09,-1734.8"/>
</g>
<!-- 6_Alamoodi,_Saif -->
<g id="node3" class="node">
<title>6_Alamoodi,_Saif</title>
<path fill="#f9f9f9" stroke="#555555" d="M521.41,-1726C521.41,-1726 291.88,-1726 291.88,-1726 285.88,-1726 279.88,-1720 279.88,-1714 279.88,-1714 279.88,-1702 279.88,-1702 279.88,-1696 285.88,-1690 291.88,-1690 291.88,-1690 521.41,-1690 521.41,-1690 527.41,-1690 533.41,-1696 533.41,-1702 533.41,-1702 533.41,-1714 533.41,-1714 533.41,-1720 527.41,-1726 521.41,-1726"/>
<text xml:space="preserve" text-anchor="middle" x="406.64" y="-1709.2" font-family="Helvetica,sans-Serif" font-size="9.00">Alamoodi, Saif</text>
<text xml:space="preserve" text-anchor="middle" x="406.64" y="-1699.45" font-family="Helvetica,sans-Serif" font-size="9.00">Director, Government Relations and Immigration &#160;Services</text>
</g>
<!-- 0_AlNuaimi,_Rashed&#45;&gt;6_Alamoodi,_Saif -->
<g id="edge2" class="edge">
<title>0_AlNuaimi,_Rashed&#45;&gt;6_Alamoodi,_Saif</title>
<path fill="none" stroke="#888888" d="M603.52,-1767C519.14,-1767 406.64,-1767 406.64,-1767 406.64,-1767 406.64,-1734.86 406.64,-1734.86"/>
<polygon fill="#888888" stroke="#888888" points="409.09,-1734.86 406.64,-1727.86 404.19,-1734.86 409.09,-1734.86"/>
</g>
<!-- 7_Putnins,_Natasha -->
<g id="node4" class="node">
<title>7_Putnins,_Natasha</title>
<path fill="#f9f9f9" stroke="#555555" d="M791.78,-1726C791.78,-1726 597.5,-1726 597.5,-1726 591.5,-1726 585.5,-1720 585.5,-1714 585.5,-1714 585.5,-1702 585.5,-1702 585.5,-1696 591.5,-1690 597.5,-1690 597.5,-1690 791.78,-1690 791.78,-1690 797.78,-1690 803.78,-1696 803.78,-1702 803.78,-1702 803.78,-1714 803.78,-1714 803.78,-1720 797.78,-1726 791.78,-1726"/>
<text xml:space="preserve" text-anchor="middle" x="694.64" y="-1709.2" font-family="Helvetica,sans-Serif" font-size="9.00">Putnins, Natasha</text>
<text xml:space="preserve" text-anchor="middle" x="694.64" y="-1699.45" font-family="Helvetica,sans-Serif" font-size="9.00">Director, Learning &amp; Organizational Development</text>
</g>
<!-- 0_AlNuaimi,_Rashed&#45;&gt;7_Putnins,_Natasha -->
<g id="edge3" class="edge">
<title>0_AlNuaimi,_Rashed&#45;&gt;7_Putnins,_Natasha</title>
<path fill="none" stroke="#888888" d="M694.64,-1754.55C694.64,-1754.55 694.64,-1734.79 694.64,-1734.79"/>
<polygon fill="#888888" stroke="#888888" points="697.09,-1734.79 694.64,-1727.79 692.19,-1734.79 697.09,-1734.79"/>
</g>
<!-- 8_Koyo,_Karl_Delors -->
<g id="node5" class="node">
<title>8_Koyo,_Karl_Delors</title>
<path fill="#f9f9f9" stroke="#555555" d="M1393.41,-1726C1393.41,-1726 1205.88,-1726 1205.88,-1726 1199.88,-1726 1193.88,-1720 1193.88,-1714 1193.88,-1714 1193.88,-1702 1193.88,-1702 1193.88,-1696 1199.88,-1690 1205.88,-1690 1205.88,-1690 1393.41,-1690 1393.41,-1690 1399.41,-1690 1405.41,-1696 1405.41,-1702 1405.41,-1702 1405.41,-1714 1405.41,-1714 1405.41,-1720 1399.41,-1726 1393.41,-1726"/>
<text xml:space="preserve" text-anchor="middle" x="1299.64" y="-1709.2" font-family="Helvetica,sans-Serif" font-size="9.00">Koyo, Karl Delors</text>
<text xml:space="preserve" text-anchor="middle" x="1299.64" y="-1699.45" font-family="Helvetica,sans-Serif" font-size="9.00">Executive Director, Strategic HR Transformation</text>
</g>
<!-- 0_AlNuaimi,_Rashed&#45;&gt;8_Koyo,_Karl_Delors -->
<g id="edge4" class="edge">
<title>0_AlNuaimi,_Rashed&#45;&gt;8_Koyo,_Karl_Delors</title>
<path fill="none" stroke="#888888" d="M785.87,-1767C954.88,-1767 1299.64,-1767 1299.64,-1767 1299.64,-1767 1299.64,-1734.86 1299.64,-1734.86"/>
<polygon fill="#888888" stroke="#888888" points="1302.09,-1734.86 1299.64,-1727.86 1297.19,-1734.86 1302.09,-1734.86"/>
</g>
<!-- 9_Alhash,_Reem_Mohammad_Ali_Saeed -->
<g id="node6" class="node">
<title>9_Alhash,_Reem_Mohammad_Ali_Saeed</title>
<path fill="#f9f9f9" stroke="#555555" d="M1866.28,-1726C1866.28,-1726 1711,-1726 1711,-1726 1705,-1726 1699,-1720 1699,-1714 1699,-1714 1699,-1702 1699,-1702 1699,-1696 1705,-1690 1711,-1690 1711,-1690 1866.28,-1690 1866.28,-1690 1872.28,-1690 1878.28,-1696 1878.28,-1702 1878.28,-1702 1878.28,-1714 1878.28,-1714 1878.28,-1720 1872.28,-1726 1866.28,-1726"/>
<text xml:space="preserve" text-anchor="middle" x="1788.64" y="-1709.2" font-family="Helvetica,sans-Serif" font-size="9.00">Alhash, Reem Mohammad Ali Saeed</text>
<text xml:space="preserve" text-anchor="middle" x="1788.64" y="-1699.45" font-family="Helvetica,sans-Serif" font-size="9.00">Director of National Talent Management</text>
</g>
<!-- 0_AlNuaimi,_Rashed&#45;&gt;9_Alhash,_Reem_Mohammad_Ali_Saeed -->
<g id="edge5" class="edge">
<title>0_AlNuaimi,_Rashed&#45;&gt;9_Alhash,_Reem_Mohammad_Ali_Saeed</title>
<path fill="none" stroke="#888888" d="M786.03,-1779C1048.96,-1779 1788.64,-1779 1788.64,-1779 1788.64,-1779 1788.64,-1734.8 1788.64,-1734.8"/>
<polygon fill="#888888" stroke="#888888" points="1791.09,-1734.8 1788.64,-1727.8 1786.19,-1734.8 1791.09,-1734.8"/>
</g>
<!-- 63_Alhajeri,_Fatema_Salem -->
<g id="node33" class="node">
<title>63_Alhajeri,_Fatema_Salem</title>
<path fill="#f9f9f9" stroke="#555555" d="M119.28,-1661C119.28,-1661 12,-1661 12,-1661 6,-1661 0,-1655 0,-1649 0,-1649 0,-1637 0,-1637 0,-1631 6,-1625 12,-1625 12,-1625 119.28,-1625 119.28,-1625 125.28,-1625 131.28,-1631 131.28,-1637 131.28,-1637 131.28,-1649 131.28,-1649 131.28,-1655 125.28,-1661 119.28,-1661"/>
<text xml:space="preserve" text-anchor="middle" x="65.64" y="-1644.2" font-family="Helvetica,sans-Serif" font-size="9.00">Alhajeri, Fatema Salem</text>
<text xml:space="preserve" text-anchor="middle" x="65.64" y="-1634.45" font-family="Helvetica,sans-Serif" font-size="9.00">Business Support Specialist</text>
</g>
<!-- 5_Moussoux,_Florence&#45;&gt;63_Alhajeri,_Fatema_Salem -->
<g id="edge32" class="edge">
<title>5_Moussoux,_Florence&#45;&gt;63_Alhajeri,_Fatema_Salem</title>
<path fill="none" stroke="#888888" d="M67.64,-1689.55C67.64,-1689.55 67.64,-1669.79 67.64,-1669.79"/>
<polygon fill="#888888" stroke="#888888" points="70.09,-1669.79 67.64,-1662.79 65.19,-1669.79 70.09,-1669.79"/>
</g>
<!-- 64_Alhosani,_Yaaqoub -->
<g id="node34" class="node">
<title>64_Alhosani,_Yaaqoub</title>
<path fill="#f9f9f9" stroke="#555555" d="M262.28,-1661C262.28,-1661 161,-1661 161,-1661 155,-1661 149,-1655 149,-1649 149,-1649 149,-1637 149,-1637 149,-1631 155,-1625 161,-1625 161,-1625 262.28,-1625 262.28,-1625 268.28,-1625 274.28,-1631 274.28,-1637 274.28,-1637 274.28,-1649 274.28,-1649 274.28,-1655 268.28,-1661 262.28,-1661"/>
<text xml:space="preserve" text-anchor="middle" x="211.64" y="-1644.2" font-family="Helvetica,sans-Serif" font-size="9.00">Alhosani, Yaaqoub</text>
<text xml:space="preserve" text-anchor="middle" x="211.64" y="-1634.45" font-family="Helvetica,sans-Serif" font-size="9.00">Manager, Public Relations</text>
</g>
<!-- 6_Alamoodi,_Saif&#45;&gt;64_Alhosani,_Yaaqoub -->
<g id="edge33" class="edge">
<title>6_Alamoodi,_Saif&#45;&gt;64_Alhosani,_Yaaqoub</title>
<path fill="none" stroke="#888888" d="M286.25,-1689.55C286.25,-1670.33 286.25,-1643 286.25,-1643 286.25,-1643 283.11,-1643 283.11,-1643"/>
<polygon fill="#888888" stroke="#888888" points="283.11,-1640.55 276.11,-1643 283.11,-1645.45 283.11,-1640.55"/>
</g>
<!-- 66_(2)_Managers -->
<g id="node35" class="node">
<title>66_(2)_Managers</title>
<path fill="#f9f9f9" stroke="#555555" d="M352.66,-1661C352.66,-1661 304.63,-1661 304.63,-1661 298.63,-1661 292.63,-1655 292.63,-1649 292.63,-1649 292.63,-1637 292.63,-1637 292.63,-1631 298.63,-1625 304.63,-1625 304.63,-1625 352.66,-1625 352.66,-1625 358.66,-1625 364.66,-1631 364.66,-1637 364.66,-1637 364.66,-1649 364.66,-1649 364.66,-1655 358.66,-1661 352.66,-1661"/>
<text xml:space="preserve" text-anchor="middle" x="328.64" y="-1639.33" font-family="Helvetica,sans-Serif" font-size="9.00">(2) Managers</text>
</g>
<!-- 6_Alamoodi,_Saif&#45;&gt;66_(2)_Managers -->
<g id="edge34" class="edge">
<title>6_Alamoodi,_Saif&#45;&gt;66_(2)_Managers</title>
<path fill="none" stroke="#888888" d="M328.64,-1689.55C328.64,-1689.55 328.64,-1669.79 328.64,-1669.79"/>
<polygon fill="#888888" stroke="#888888" points="331.09,-1669.79 328.64,-1662.79 326.19,-1669.79 331.09,-1669.79"/>
</g>
<!-- 67_Gameel,_Saru -->
<g id="node36" class="node">
<title>67_Gameel,_Saru</title>
<path fill="#f9f9f9" stroke="#555555" d="M545.03,-1661C545.03,-1661 394.25,-1661 394.25,-1661 388.25,-1661 382.25,-1655 382.25,-1649 382.25,-1649 382.25,-1637 382.25,-1637 382.25,-1631 388.25,-1625 394.25,-1625 394.25,-1625 545.03,-1625 545.03,-1625 551.03,-1625 557.03,-1631 557.03,-1637 557.03,-1637 557.03,-1649 557.03,-1649 557.03,-1655 551.03,-1661 545.03,-1661"/>
<text xml:space="preserve" text-anchor="middle" x="469.64" y="-1644.2" font-family="Helvetica,sans-Serif" font-size="9.00">Gameel, Saru</text>
<text xml:space="preserve" text-anchor="middle" x="469.64" y="-1634.45" font-family="Helvetica,sans-Serif" font-size="9.00">Assistant Director, Relocation Services</text>
</g>
<!-- 6_Alamoodi,_Saif&#45;&gt;67_Gameel,_Saru -->
<g id="edge35" class="edge">
<title>6_Alamoodi,_Saif&#45;&gt;67_Gameel,_Saru</title>
<path fill="none" stroke="#888888" d="M457.83,-1689.55C457.83,-1689.55 457.83,-1669.79 457.83,-1669.79"/>
<polygon fill="#888888" stroke="#888888" points="460.28,-1669.79 457.83,-1662.79 455.38,-1669.79 460.28,-1669.79"/>
</g>
<!-- 69_Beetham,_Anne -->
<g id="node37" class="node">
<title>69_Beetham,_Anne</title>
<path fill="#f9f9f9" stroke="#555555" d="M801.91,-1661C801.91,-1661 587.38,-1661 587.38,-1661 581.38,-1661 575.38,-1655 575.38,-1649 575.38,-1649 575.38,-1637 575.38,-1637 575.38,-1631 581.38,-1625 587.38,-1625 587.38,-1625 801.91,-1625 801.91,-1625 807.91,-1625 813.91,-1631 813.91,-1637 813.91,-1637 813.91,-1649 813.91,-1649 813.91,-1655 807.91,-1661 801.91,-1661"/>
<text xml:space="preserve" text-anchor="middle" x="694.64" y="-1644.2" font-family="Helvetica,sans-Serif" font-size="9.00">Beetham, Anne</text>
<text xml:space="preserve" text-anchor="middle" x="694.64" y="-1634.45" font-family="Helvetica,sans-Serif" font-size="9.00">Associate Director Performance &amp; Talent Development</text>
</g>
<!-- 7_Putnins,_Natasha&#45;&gt;69_Beetham,_Anne -->
<g id="edge36" class="edge">
<title>7_Putnins,_Natasha&#45;&gt;69_Beetham,_Anne</title>
<path fill="none" stroke="#888888" d="M694.64,-1689.55C694.64,-1689.55 694.64,-1669.79 694.64,-1669.79"/>
<polygon fill="#888888" stroke="#888888" points="697.09,-1669.79 694.64,-1662.79 692.19,-1669.79 697.09,-1669.79"/>
</g>
<!-- 71_Mreish,_Amani -->
<g id="node38" class="node">
<title>71_Mreish,_Amani</title>
<path fill="#f9f9f9" stroke="#555555" d="M1174.41,-1661C1174.41,-1661 1004.88,-1661 1004.88,-1661 998.88,-1661 992.88,-1655 992.88,-1649 992.88,-1649 992.88,-1637 992.88,-1637 992.88,-1631 998.88,-1625 1004.88,-1625 1004.88,-1625 1174.41,-1625 1174.41,-1625 1180.41,-1625 1186.41,-1631 1186.41,-1637 1186.41,-1637 1186.41,-1649 1186.41,-1649 1186.41,-1655 1180.41,-1661 1174.41,-1661"/>
<text xml:space="preserve" text-anchor="middle" x="1089.64" y="-1644.2" font-family="Helvetica,sans-Serif" font-size="9.00">Mreish, Amani</text>
<text xml:space="preserve" text-anchor="middle" x="1089.64" y="-1634.45" font-family="Helvetica,sans-Serif" font-size="9.00">Director, Compensation, Benefits and HRIS</text>
</g>
<!-- 8_Koyo,_Karl_Delors&#45;&gt;71_Mreish,_Amani -->
<g id="edge38" class="edge">
<title>8_Koyo,_Karl_Delors&#45;&gt;71_Mreish,_Amani</title>
<path fill="none" stroke="#888888" d="M1233.45,-1689.55C1233.45,-1670.33 1233.45,-1643 1233.45,-1643 1233.45,-1643 1195.27,-1643 1195.27,-1643"/>
<polygon fill="#888888" stroke="#888888" points="1195.27,-1640.55 1188.27,-1643 1195.27,-1645.45 1195.27,-1640.55"/>
</g>
<!-- 72_Arikat,_Suhair_Mohamed_Atta_Khalil -->
<g id="node39" class="node">
<title>72_Arikat,_Suhair_Mohamed_Atta_Khalil</title>
<path fill="#f9f9f9" stroke="#555555" d="M1519.91,-1661C1519.91,-1661 1311.38,-1661 1311.38,-1661 1305.38,-1661 1299.38,-1655 1299.38,-1649 1299.38,-1649 1299.38,-1637 1299.38,-1637 1299.38,-1631 1305.38,-1625 1311.38,-1625 1311.38,-1625 1519.91,-1625 1519.91,-1625 1525.91,-1625 1531.91,-1631 1531.91,-1637 1531.91,-1637 1531.91,-1649 1531.91,-1649 1531.91,-1655 1525.91,-1661 1519.91,-1661"/>
<text xml:space="preserve" text-anchor="middle" x="1415.64" y="-1644.2" font-family="Helvetica,sans-Serif" font-size="9.00">Arikat, Suhair Mohamed Atta Khalil</text>
<text xml:space="preserve" text-anchor="middle" x="1415.64" y="-1634.45" font-family="Helvetica,sans-Serif" font-size="9.00">Director, HR Business Partner &amp; Employee Relations</text>
</g>
<!-- 8_Koyo,_Karl_Delors&#45;&gt;72_Arikat,_Suhair_Mohamed_Atta_Khalil -->
<g id="edge39" class="edge">
<title>8_Koyo,_Karl_Delors&#45;&gt;72_Arikat,_Suhair_Mohamed_Atta_Khalil</title>
<path fill="none" stroke="#888888" d="M1352.39,-1689.55C1352.39,-1689.55 1352.39,-1669.79 1352.39,-1669.79"/>
<polygon fill="#888888" stroke="#888888" points="1354.84,-1669.79 1352.39,-1662.79 1349.94,-1669.79 1354.84,-1669.79"/>
</g>
<!-- 73_O&#39;Brien,_Charlotte_(On_Leave) -->
<g id="node40" class="node">
<title>73_O&#39;Brien,_Charlotte_(On_Leave)</title>
<path fill="#f9f9f9" stroke="#555555" d="M1814.28,-1661C1814.28,-1661 1701,-1661 1701,-1661 1695,-1661 1689,-1655 1689,-1649 1689,-1649 1689,-1637 1689,-1637 1689,-1631 1695,-1625 1701,-1625 1701,-1625 1814.28,-1625 1814.28,-1625 1820.28,-1625 1826.28,-1631 1826.28,-1637 1826.28,-1637 1826.28,-1649 1826.28,-1649 1826.28,-1655 1820.28,-1661 1814.28,-1661"/>
<text xml:space="preserve" text-anchor="middle" x="1757.64" y="-1644.2" font-family="Helvetica,sans-Serif" font-size="9.00">O&#39;Brien, Charlotte (On Leave)</text>
<text xml:space="preserve" text-anchor="middle" x="1757.64" y="-1634.45" font-family="Helvetica,sans-Serif" font-size="9.00">Head of Talent Acquisition</text>
</g>
<!-- 8_Koyo,_Karl_Delors&#45;&gt;73_O&#39;Brien,_Charlotte_(On_Leave) -->
<g id="edge40" class="edge">
<title>8_Koyo,_Karl_Delors&#45;&gt;73_O&#39;Brien,_Charlotte_(On_Leave)</title>
<path fill="none" stroke="#888888" d="M1405.84,-1708C1522.64,-1708 1694,-1708 1694,-1708 1694,-1708 1694,-1669.97 1694,-1669.97"/>
<polygon fill="#888888" stroke="#888888" points="1696.45,-1669.97 1694,-1662.97 1691.55,-1669.97 1696.45,-1669.97"/>
</g>
<!-- 10_Corotan,_Mylene -->
<g id="node7" class="node">
<title>10_Corotan,_Mylene</title>
<path fill="#f9f9f9" stroke="#555555" d="M2080.91,-1661C2080.91,-1661 1926.38,-1661 1926.38,-1661 1920.38,-1661 1914.38,-1655 1914.38,-1649 1914.38,-1649 1914.38,-1637 1914.38,-1637 1914.38,-1631 1920.38,-1625 1926.38,-1625 1926.38,-1625 2080.91,-1625 2080.91,-1625 2086.91,-1625 2092.91,-1631 2092.91,-1637 2092.91,-1637 2092.91,-1649 2092.91,-1649 2092.91,-1655 2086.91,-1661 2080.91,-1661"/>
<text xml:space="preserve" text-anchor="middle" x="2003.64" y="-1644.2" font-family="Helvetica,sans-Serif" font-size="9.00">Corotan, Mylene</text>
<text xml:space="preserve" text-anchor="middle" x="2003.64" y="-1634.45" font-family="Helvetica,sans-Serif" font-size="9.00">Manager of Administration to the CHRO</text>
</g>
<!-- 9_Alhash,_Reem_Mohammad_Ali_Saeed&#45;&gt;10_Corotan,_Mylene -->
<g id="edge6" class="edge">
<title>9_Alhash,_Reem_Mohammad_Ali_Saeed&#45;&gt;10_Corotan,_Mylene</title>
<path fill="none" stroke="#888888" d="M1852.28,-1689.55C1852.28,-1670.33 1852.28,-1643 1852.28,-1643 1852.28,-1643 1905.77,-1643 1905.77,-1643"/>
<polygon fill="#888888" stroke="#888888" points="1905.77,-1645.45 1912.77,-1643 1905.77,-1640.55 1905.77,-1645.45"/>
</g>
<!-- 21_Alameri,_Alreem -->
<g id="node8" class="node">
<title>21_Alameri,_Alreem</title>
<path fill="#f9f9f9" stroke="#555555" d="M2096.03,-1596C2096.03,-1596 1981.25,-1596 1981.25,-1596 1975.25,-1596 1969.25,-1590 1969.25,-1584 1969.25,-1584 1969.25,-1572 1969.25,-1572 1969.25,-1566 1975.25,-1560 1981.25,-1560 1981.25,-1560 2096.03,-1560 2096.03,-1560 2102.03,-1560 2108.03,-1566 2108.03,-1572 2108.03,-1572 2108.03,-1584 2108.03,-1584 2108.03,-1590 2102.03,-1596 2096.03,-1596"/>
<text xml:space="preserve" text-anchor="middle" x="2038.64" y="-1579.2" font-family="Helvetica,sans-Serif" font-size="9.00">Alameri, Alreem</text>
<text xml:space="preserve" text-anchor="middle" x="2038.64" y="-1569.45" font-family="Helvetica,sans-Serif" font-size="9.00">Academic Operations Trainee</text>
</g>
<!-- 10_Corotan,_Mylene&#45;&gt;21_Alameri,_Alreem -->
<g id="edge7" class="edge">
<title>10_Corotan,_Mylene&#45;&gt;21_Alameri,_Alreem</title>
<path fill="none" stroke="#888888" d="M2031.08,-1624.55C2031.08,-1624.55 2031.08,-1604.79 2031.08,-1604.79"/>
<polygon fill="#888888" stroke="#888888" points="2033.53,-1604.79 2031.08,-1597.79 2028.63,-1604.79 2033.53,-1604.79"/>
</g>
<!-- 22_Alazeezi,_Mahra -->
<g id="node9" class="node">
<title>22_Alazeezi,_Mahra</title>
<path fill="#f9f9f9" stroke="#555555" d="M2096.03,-1531C2096.03,-1531 1981.25,-1531 1981.25,-1531 1975.25,-1531 1969.25,-1525 1969.25,-1519 1969.25,-1519 1969.25,-1507 1969.25,-1507 1969.25,-1501 1975.25,-1495 1981.25,-1495 1981.25,-1495 2096.03,-1495 2096.03,-1495 2102.03,-1495 2108.03,-1501 2108.03,-1507 2108.03,-1507 2108.03,-1519 2108.03,-1519 2108.03,-1525 2102.03,-1531 2096.03,-1531"/>
<text xml:space="preserve" text-anchor="middle" x="2038.64" y="-1514.2" font-family="Helvetica,sans-Serif" font-size="9.00">Alazeezi, Mahra</text>
<text xml:space="preserve" text-anchor="middle" x="2038.64" y="-1504.45" font-family="Helvetica,sans-Serif" font-size="9.00">Academic Operations Trainee</text>
</g>
<!-- 21_Alameri,_Alreem&#45;&gt;22_Alazeezi,_Mahra -->
<g id="edge8" class="edge">
<title>21_Alameri,_Alreem&#45;&gt;22_Alazeezi,_Mahra</title>
<path fill="none" stroke="#888888" d="M2038.64,-1559.55C2038.64,-1559.55 2038.64,-1539.79 2038.64,-1539.79"/>
<polygon fill="#888888" stroke="#888888" points="2041.09,-1539.79 2038.64,-1532.79 2036.19,-1539.79 2041.09,-1539.79"/>
</g>
<!-- 23_Alhosani,_Fatima -->
<g id="node10" class="node">
<title>23_Alhosani,_Fatima</title>
<path fill="#f9f9f9" stroke="#555555" d="M2097.03,-1466C2097.03,-1466 1982.25,-1466 1982.25,-1466 1976.25,-1466 1970.25,-1460 1970.25,-1454 1970.25,-1454 1970.25,-1442 1970.25,-1442 1970.25,-1436 1976.25,-1430 1982.25,-1430 1982.25,-1430 2097.03,-1430 2097.03,-1430 2103.03,-1430 2109.03,-1436 2109.03,-1442 2109.03,-1442 2109.03,-1454 2109.03,-1454 2109.03,-1460 2103.03,-1466 2097.03,-1466"/>
<text xml:space="preserve" text-anchor="middle" x="2039.64" y="-1449.2" font-family="Helvetica,sans-Serif" font-size="9.00">Alhosani, Fatima</text>
<text xml:space="preserve" text-anchor="middle" x="2039.64" y="-1439.45" font-family="Helvetica,sans-Serif" font-size="9.00">Academic Operations Trainee</text>
</g>
<!-- 22_Alazeezi,_Mahra&#45;&gt;23_Alhosani,_Fatima -->
<g id="edge9" class="edge">
<title>22_Alazeezi,_Mahra&#45;&gt;23_Alhosani,_Fatima</title>
<path fill="none" stroke="#888888" d="M2039.14,-1494.55C2039.14,-1494.55 2039.14,-1474.79 2039.14,-1474.79"/>
<polygon fill="#888888" stroke="#888888" points="2041.59,-1474.79 2039.14,-1467.79 2036.69,-1474.79 2041.59,-1474.79"/>
</g>
<!-- 24_AlHosani,_Shamma -->
<g id="node11" class="node">
<title>24_AlHosani,_Shamma</title>
<path fill="#f9f9f9" stroke="#555555" d="M2097.03,-1401C2097.03,-1401 1982.25,-1401 1982.25,-1401 1976.25,-1401 1970.25,-1395 1970.25,-1389 1970.25,-1389 1970.25,-1377 1970.25,-1377 1970.25,-1371 1976.25,-1365 1982.25,-1365 1982.25,-1365 2097.03,-1365 2097.03,-1365 2103.03,-1365 2109.03,-1371 2109.03,-1377 2109.03,-1377 2109.03,-1389 2109.03,-1389 2109.03,-1395 2103.03,-1401 2097.03,-1401"/>
<text xml:space="preserve" text-anchor="middle" x="2039.64" y="-1384.2" font-family="Helvetica,sans-Serif" font-size="9.00">AlHosani, Shamma</text>
<text xml:space="preserve" text-anchor="middle" x="2039.64" y="-1374.45" font-family="Helvetica,sans-Serif" font-size="9.00">Academic Operations Trainee</text>
</g>
<!-- 23_Alhosani,_Fatima&#45;&gt;24_AlHosani,_Shamma -->
<g id="edge10" class="edge">
<title>23_Alhosani,_Fatima&#45;&gt;24_AlHosani,_Shamma</title>
<path fill="none" stroke="#888888" d="M2039.64,-1429.55C2039.64,-1429.55 2039.64,-1409.79 2039.64,-1409.79"/>
<polygon fill="#888888" stroke="#888888" points="2042.09,-1409.79 2039.64,-1402.79 2037.19,-1409.79 2042.09,-1409.79"/>
</g>
<!-- 25_Alkatheeri,_Ahad -->
<g id="node12" class="node">
<title>25_Alkatheeri,_Ahad</title>
<path fill="#f9f9f9" stroke="#555555" d="M2097.03,-1336C2097.03,-1336 1982.25,-1336 1982.25,-1336 1976.25,-1336 1970.25,-1330 1970.25,-1324 1970.25,-1324 1970.25,-1312 1970.25,-1312 1970.25,-1306 1976.25,-1300 1982.25,-1300 1982.25,-1300 2097.03,-1300 2097.03,-1300 2103.03,-1300 2109.03,-1306 2109.03,-1312 2109.03,-1312 2109.03,-1324 2109.03,-1324 2109.03,-1330 2103.03,-1336 2097.03,-1336"/>
<text xml:space="preserve" text-anchor="middle" x="2039.64" y="-1319.2" font-family="Helvetica,sans-Serif" font-size="9.00">Alkatheeri, Ahad</text>
<text xml:space="preserve" text-anchor="middle" x="2039.64" y="-1309.45" font-family="Helvetica,sans-Serif" font-size="9.00">Academic Operations Trainee</text>
</g>
<!-- 24_AlHosani,_Shamma&#45;&gt;25_Alkatheeri,_Ahad -->
<g id="edge11" class="edge">
<title>24_AlHosani,_Shamma&#45;&gt;25_Alkatheeri,_Ahad</title>
<path fill="none" stroke="#888888" d="M2039.64,-1364.55C2039.64,-1364.55 2039.64,-1344.79 2039.64,-1344.79"/>
<polygon fill="#888888" stroke="#888888" points="2042.09,-1344.79 2039.64,-1337.79 2037.19,-1344.79 2042.09,-1344.79"/>
</g>
<!-- 26_Alkhoori,_Shaikha -->
<g id="node13" class="node">
<title>26_Alkhoori,_Shaikha</title>
<path fill="#f9f9f9" stroke="#555555" d="M2097.03,-1271C2097.03,-1271 1982.25,-1271 1982.25,-1271 1976.25,-1271 1970.25,-1265 1970.25,-1259 1970.25,-1259 1970.25,-1247 1970.25,-1247 1970.25,-1241 1976.25,-1235 1982.25,-1235 1982.25,-1235 2097.03,-1235 2097.03,-1235 2103.03,-1235 2109.03,-1241 2109.03,-1247 2109.03,-1247 2109.03,-1259 2109.03,-1259 2109.03,-1265 2103.03,-1271 2097.03,-1271"/>
<text xml:space="preserve" text-anchor="middle" x="2039.64" y="-1254.2" font-family="Helvetica,sans-Serif" font-size="9.00">Alkhoori, Shaikha</text>
<text xml:space="preserve" text-anchor="middle" x="2039.64" y="-1244.45" font-family="Helvetica,sans-Serif" font-size="9.00">Academic Operations Trainee</text>
</g>
<!-- 25_Alkatheeri,_Ahad&#45;&gt;26_Alkhoori,_Shaikha -->
<g id="edge12" class="edge">
<title>25_Alkatheeri,_Ahad&#45;&gt;26_Alkhoori,_Shaikha</title>
<path fill="none" stroke="#888888" d="M2039.64,-1299.55C2039.64,-1299.55 2039.64,-1279.79 2039.64,-1279.79"/>
<polygon fill="#888888" stroke="#888888" points="2042.09,-1279.79 2039.64,-1272.79 2037.19,-1279.79 2042.09,-1279.79"/>
</g>
<!-- 27_Almenhali,_Sara -->
<g id="node14" class="node">
<title>27_Almenhali,_Sara</title>
<path fill="#f9f9f9" stroke="#555555" d="M2097.03,-1206C2097.03,-1206 1982.25,-1206 1982.25,-1206 1976.25,-1206 1970.25,-1200 1970.25,-1194 1970.25,-1194 1970.25,-1182 1970.25,-1182 1970.25,-1176 1976.25,-1170 1982.25,-1170 1982.25,-1170 2097.03,-1170 2097.03,-1170 2103.03,-1170 2109.03,-1176 2109.03,-1182 2109.03,-1182 2109.03,-1194 2109.03,-1194 2109.03,-1200 2103.03,-1206 2097.03,-1206"/>
<text xml:space="preserve" text-anchor="middle" x="2039.64" y="-1189.2" font-family="Helvetica,sans-Serif" font-size="9.00">Almenhali, Sara</text>
<text xml:space="preserve" text-anchor="middle" x="2039.64" y="-1179.45" font-family="Helvetica,sans-Serif" font-size="9.00">Academic Operations Trainee</text>
</g>
<!-- 26_Alkhoori,_Shaikha&#45;&gt;27_Almenhali,_Sara -->
<g id="edge13" class="edge">
<title>26_Alkhoori,_Shaikha&#45;&gt;27_Almenhali,_Sara</title>
<path fill="none" stroke="#888888" d="M2039.64,-1234.55C2039.64,-1234.55 2039.64,-1214.79 2039.64,-1214.79"/>
<polygon fill="#888888" stroke="#888888" points="2042.09,-1214.79 2039.64,-1207.79 2037.19,-1214.79 2042.09,-1214.79"/>
</g>
<!-- 28_Almheiri,_Rafeea -->
<g id="node15" class="node">
<title>28_Almheiri,_Rafeea</title>
<path fill="#f9f9f9" stroke="#555555" d="M2097.03,-1141C2097.03,-1141 1982.25,-1141 1982.25,-1141 1976.25,-1141 1970.25,-1135 1970.25,-1129 1970.25,-1129 1970.25,-1117 1970.25,-1117 1970.25,-1111 1976.25,-1105 1982.25,-1105 1982.25,-1105 2097.03,-1105 2097.03,-1105 2103.03,-1105 2109.03,-1111 2109.03,-1117 2109.03,-1117 2109.03,-1129 2109.03,-1129 2109.03,-1135 2103.03,-1141 2097.03,-1141"/>
<text xml:space="preserve" text-anchor="middle" x="2039.64" y="-1124.2" font-family="Helvetica,sans-Serif" font-size="9.00">Almheiri, Rafeea</text>
<text xml:space="preserve" text-anchor="middle" x="2039.64" y="-1114.45" font-family="Helvetica,sans-Serif" font-size="9.00">Academic Operations Trainee</text>
</g>
<!-- 27_Almenhali,_Sara&#45;&gt;28_Almheiri,_Rafeea -->
<g id="edge14" class="edge">
<title>27_Almenhali,_Sara&#45;&gt;28_Almheiri,_Rafeea</title>
<path fill="none" stroke="#888888" d="M2039.64,-1169.55C2039.64,-1169.55 2039.64,-1149.79 2039.64,-1149.79"/>
<polygon fill="#888888" stroke="#888888" points="2042.09,-1149.79 2039.64,-1142.79 2037.19,-1149.79 2042.09,-1149.79"/>
</g>
<!-- 29_Almujaini,_Ibrahim -->
<g id="node16" class="node">
<title>29_Almujaini,_Ibrahim</title>
<path fill="#f9f9f9" stroke="#555555" d="M2097.03,-1076C2097.03,-1076 1982.25,-1076 1982.25,-1076 1976.25,-1076 1970.25,-1070 1970.25,-1064 1970.25,-1064 1970.25,-1052 1970.25,-1052 1970.25,-1046 1976.25,-1040 1982.25,-1040 1982.25,-1040 2097.03,-1040 2097.03,-1040 2103.03,-1040 2109.03,-1046 2109.03,-1052 2109.03,-1052 2109.03,-1064 2109.03,-1064 2109.03,-1070 2103.03,-1076 2097.03,-1076"/>
<text xml:space="preserve" text-anchor="middle" x="2039.64" y="-1059.2" font-family="Helvetica,sans-Serif" font-size="9.00">Almujaini, Ibrahim</text>
<text xml:space="preserve" text-anchor="middle" x="2039.64" y="-1049.45" font-family="Helvetica,sans-Serif" font-size="9.00">Academic Operations Trainee</text>
</g>
<!-- 28_Almheiri,_Rafeea&#45;&gt;29_Almujaini,_Ibrahim -->
<g id="edge15" class="edge">
<title>28_Almheiri,_Rafeea&#45;&gt;29_Almujaini,_Ibrahim</title>
<path fill="none" stroke="#888888" d="M2039.64,-1104.55C2039.64,-1104.55 2039.64,-1084.79 2039.64,-1084.79"/>
<polygon fill="#888888" stroke="#888888" points="2042.09,-1084.79 2039.64,-1077.79 2037.19,-1084.79 2042.09,-1084.79"/>
</g>
<!-- 30_Al_Nuaimi,_Shaikha_Mohammed -->
<g id="node17" class="node">
<title>30_Al_Nuaimi,_Shaikha_Mohammed</title>
<path fill="#f9f9f9" stroke="#555555" d="M2100.78,-1011C2100.78,-1011 1978.5,-1011 1978.5,-1011 1972.5,-1011 1966.5,-1005 1966.5,-999 1966.5,-999 1966.5,-987 1966.5,-987 1966.5,-981 1972.5,-975 1978.5,-975 1978.5,-975 2100.78,-975 2100.78,-975 2106.78,-975 2112.78,-981 2112.78,-987 2112.78,-987 2112.78,-999 2112.78,-999 2112.78,-1005 2106.78,-1011 2100.78,-1011"/>
<text xml:space="preserve" text-anchor="middle" x="2039.64" y="-994.2" font-family="Helvetica,sans-Serif" font-size="9.00">Al Nuaimi, Shaikha Mohammed</text>
<text xml:space="preserve" text-anchor="middle" x="2039.64" y="-984.45" font-family="Helvetica,sans-Serif" font-size="9.00">Academic Operations Trainee</text>
</g>
<!-- 29_Almujaini,_Ibrahim&#45;&gt;30_Al_Nuaimi,_Shaikha_Mohammed -->
<g id="edge16" class="edge">
<title>29_Almujaini,_Ibrahim&#45;&gt;30_Al_Nuaimi,_Shaikha_Mohammed</title>
<path fill="none" stroke="#888888" d="M2039.64,-1039.55C2039.64,-1039.55 2039.64,-1019.79 2039.64,-1019.79"/>
<polygon fill="#888888" stroke="#888888" points="2042.09,-1019.79 2039.64,-1012.79 2037.19,-1019.79 2042.09,-1019.79"/>
</g>
<!-- 31_Alobaidalla,_Shaikha -->
<g id="node18" class="node">
<title>31_Alobaidalla,_Shaikha</title>
<path fill="#f9f9f9" stroke="#555555" d="M2078.66,-946C2078.66,-946 2000.62,-946 2000.62,-946 1994.62,-946 1988.62,-940 1988.62,-934 1988.62,-934 1988.62,-922 1988.62,-922 1988.62,-916 1994.62,-910 2000.62,-910 2000.62,-910 2078.66,-910 2078.66,-910 2084.66,-910 2090.66,-916 2090.66,-922 2090.66,-922 2090.66,-934 2090.66,-934 2090.66,-940 2084.66,-946 2078.66,-946"/>
<text xml:space="preserve" text-anchor="middle" x="2039.64" y="-929.2" font-family="Helvetica,sans-Serif" font-size="9.00">Alobaidalla, Shaikha</text>
<text xml:space="preserve" text-anchor="middle" x="2039.64" y="-919.45" font-family="Helvetica,sans-Serif" font-size="9.00">Lab Assistant</text>
</g>
<!-- 30_Al_Nuaimi,_Shaikha_Mohammed&#45;&gt;31_Alobaidalla,_Shaikha -->
<g id="edge17" class="edge">
<title>30_Al_Nuaimi,_Shaikha_Mohammed&#45;&gt;31_Alobaidalla,_Shaikha</title>
<path fill="none" stroke="#888888" d="M2039.64,-974.55C2039.64,-974.55 2039.64,-954.79 2039.64,-954.79"/>
<polygon fill="#888888" stroke="#888888" points="2042.09,-954.79 2039.64,-947.79 2037.19,-954.79 2042.09,-954.79"/>
</g>
<!-- 32_Alrayssi,_Rayan -->
<g id="node19" class="node">
<title>32_Alrayssi,_Rayan</title>
<path fill="#f9f9f9" stroke="#555555" d="M2097.03,-881C2097.03,-881 1982.25,-881 1982.25,-881 1976.25,-881 1970.25,-875 1970.25,-869 1970.25,-869 1970.25,-857 1970.25,-857 1970.25,-851 1976.25,-845 1982.25,-845 1982.25,-845 2097.03,-845 2097.03,-845 2103.03,-845 2109.03,-851 2109.03,-857 2109.03,-857 2109.03,-869 2109.03,-869 2109.03,-875 2103.03,-881 2097.03,-881"/>
<text xml:space="preserve" text-anchor="middle" x="2039.64" y="-864.2" font-family="Helvetica,sans-Serif" font-size="9.00">Alrayssi, Rayan</text>
<text xml:space="preserve" text-anchor="middle" x="2039.64" y="-854.45" font-family="Helvetica,sans-Serif" font-size="9.00">Academic Operations Trainee</text>
</g>
<!-- 31_Alobaidalla,_Shaikha&#45;&gt;32_Alrayssi,_Rayan -->
<g id="edge18" class="edge">
<title>31_Alobaidalla,_Shaikha&#45;&gt;32_Alrayssi,_Rayan</title>
<path fill="none" stroke="#888888" d="M2039.64,-909.55C2039.64,-909.55 2039.64,-889.79 2039.64,-889.79"/>
<polygon fill="#888888" stroke="#888888" points="2042.09,-889.79 2039.64,-882.79 2037.19,-889.79 2042.09,-889.79"/>
</g>
<!-- 33_Alremeithi,_Mahra -->
<g id="node20" class="node">
<title>33_Alremeithi,_Mahra</title>
<path fill="#f9f9f9" stroke="#555555" d="M2097.03,-816C2097.03,-816 1982.25,-816 1982.25,-816 1976.25,-816 1970.25,-810 1970.25,-804 1970.25,-804 1970.25,-792 1970.25,-792 1970.25,-786 1976.25,-780 1982.25,-780 1982.25,-780 2097.03,-780 2097.03,-780 2103.03,-780 2109.03,-786 2109.03,-792 2109.03,-792 2109.03,-804 2109.03,-804 2109.03,-810 2103.03,-816 2097.03,-816"/>
<text xml:space="preserve" text-anchor="middle" x="2039.64" y="-799.2" font-family="Helvetica,sans-Serif" font-size="9.00">Alremeithi, Mahra</text>
<text xml:space="preserve" text-anchor="middle" x="2039.64" y="-789.45" font-family="Helvetica,sans-Serif" font-size="9.00">Academic Operations Trainee</text>
</g>
<!-- 32_Alrayssi,_Rayan&#45;&gt;33_Alremeithi,_Mahra -->
<g id="edge19" class="edge">
<title>32_Alrayssi,_Rayan&#45;&gt;33_Alremeithi,_Mahra</title>
<path fill="none" stroke="#888888" d="M2039.64,-844.55C2039.64,-844.55 2039.64,-824.79 2039.64,-824.79"/>
<polygon fill="#888888" stroke="#888888" points="2042.09,-824.79 2039.64,-817.79 2037.19,-824.79 2042.09,-824.79"/>
</g>
<!-- 34_Alwahedi,_Eman -->
<g id="node21" class="node">
<title>34_Alwahedi,_Eman</title>
<path fill="#f9f9f9" stroke="#555555" d="M2097.03,-751C2097.03,-751 1982.25,-751 1982.25,-751 1976.25,-751 1970.25,-745 1970.25,-739 1970.25,-739 1970.25,-727 1970.25,-727 1970.25,-721 1976.25,-715 1982.25,-715 1982.25,-715 2097.03,-715 2097.03,-715 2103.03,-715 2109.03,-721 2109.03,-727 2109.03,-727 2109.03,-739 2109.03,-739 2109.03,-745 2103.03,-751 2097.03,-751"/>
<text xml:space="preserve" text-anchor="middle" x="2039.64" y="-734.2" font-family="Helvetica,sans-Serif" font-size="9.00">Alwahedi, Eman</text>
<text xml:space="preserve" text-anchor="middle" x="2039.64" y="-724.45" font-family="Helvetica,sans-Serif" font-size="9.00">Academic Operations Trainee</text>
</g>
<!-- 33_Alremeithi,_Mahra&#45;&gt;34_Alwahedi,_Eman -->
<g id="edge20" class="edge">
<title>33_Alremeithi,_Mahra&#45;&gt;34_Alwahedi,_Eman</title>
<path fill="none" stroke="#888888" d="M2039.64,-779.55C2039.64,-779.55 2039.64,-759.79 2039.64,-759.79"/>
<polygon fill="#888888" stroke="#888888" points="2042.09,-759.79 2039.64,-752.79 2037.19,-759.79 2042.09,-759.79"/>
</g>
<!-- 35_Alzaabi,_Noof -->
<g id="node22" class="node">
<title>35_Alzaabi,_Noof</title>
<path fill="#f9f9f9" stroke="#555555" d="M2097.03,-686C2097.03,-686 1982.25,-686 1982.25,-686 1976.25,-686 1970.25,-680 1970.25,-674 1970.25,-674 1970.25,-662 1970.25,-662 1970.25,-656 1976.25,-650 1982.25,-650 1982.25,-650 2097.03,-650 2097.03,-650 2103.03,-650 2109.03,-656 2109.03,-662 2109.03,-662 2109.03,-674 2109.03,-674 2109.03,-680 2103.03,-686 2097.03,-686"/>
<text xml:space="preserve" text-anchor="middle" x="2039.64" y="-669.2" font-family="Helvetica,sans-Serif" font-size="9.00">Alzaabi, Noof</text>
<text xml:space="preserve" text-anchor="middle" x="2039.64" y="-659.45" font-family="Helvetica,sans-Serif" font-size="9.00">Academic Operations Trainee</text>
</g>
<!-- 34_Alwahedi,_Eman&#45;&gt;35_Alzaabi,_Noof -->
<g id="edge21" class="edge">
<title>34_Alwahedi,_Eman&#45;&gt;35_Alzaabi,_Noof</title>
<path fill="none" stroke="#888888" d="M2039.64,-714.55C2039.64,-714.55 2039.64,-694.79 2039.64,-694.79"/>
<polygon fill="#888888" stroke="#888888" points="2042.09,-694.79 2039.64,-687.79 2037.19,-694.79 2042.09,-694.79"/>
</g>
<!-- 36_Majid,_Fatima_Ismael -->
<g id="node23" class="node">
<title>36_Majid,_Fatima_Ismael</title>
<path fill="#f9f9f9" stroke="#555555" d="M2097.03,-621C2097.03,-621 1982.25,-621 1982.25,-621 1976.25,-621 1970.25,-615 1970.25,-609 1970.25,-609 1970.25,-597 1970.25,-597 1970.25,-591 1976.25,-585 1982.25,-585 1982.25,-585 2097.03,-585 2097.03,-585 2103.03,-585 2109.03,-591 2109.03,-597 2109.03,-597 2109.03,-609 2109.03,-609 2109.03,-615 2103.03,-621 2097.03,-621"/>
<text xml:space="preserve" text-anchor="middle" x="2039.64" y="-604.2" font-family="Helvetica,sans-Serif" font-size="9.00">Majid, Fatima Ismael</text>
<text xml:space="preserve" text-anchor="middle" x="2039.64" y="-594.45" font-family="Helvetica,sans-Serif" font-size="9.00">Academic Operations Trainee</text>
</g>
<!-- 35_Alzaabi,_Noof&#45;&gt;36_Majid,_Fatima_Ismael -->
<g id="edge22" class="edge">
<title>35_Alzaabi,_Noof&#45;&gt;36_Majid,_Fatima_Ismael</title>
<path fill="none" stroke="#888888" d="M2039.64,-649.55C2039.64,-649.55 2039.64,-629.79 2039.64,-629.79"/>
<polygon fill="#888888" stroke="#888888" points="2042.09,-629.79 2039.64,-622.79 2037.19,-629.79 2042.09,-629.79"/>
</g>
<!-- 37_Shamlan,_Nadia -->
<g id="node24" class="node">
<title>37_Shamlan,_Nadia</title>
<path fill="#f9f9f9" stroke="#555555" d="M2097.03,-556C2097.03,-556 1982.25,-556 1982.25,-556 1976.25,-556 1970.25,-550 1970.25,-544 1970.25,-544 1970.25,-532 1970.25,-532 1970.25,-526 1976.25,-520 1982.25,-520 1982.25,-520 2097.03,-520 2097.03,-520 2103.03,-520 2109.03,-526 2109.03,-532 2109.03,-532 2109.03,-544 2109.03,-544 2109.03,-550 2103.03,-556 2097.03,-556"/>
<text xml:space="preserve" text-anchor="middle" x="2039.64" y="-539.2" font-family="Helvetica,sans-Serif" font-size="9.00">Shamlan, Nadia</text>
<text xml:space="preserve" text-anchor="middle" x="2039.64" y="-529.45" font-family="Helvetica,sans-Serif" font-size="9.00">Academic Operations Trainee</text>
</g>
<!-- 36_Majid,_Fatima_Ismael&#45;&gt;37_Shamlan,_Nadia -->
<g id="edge23" class="edge">
<title>36_Majid,_Fatima_Ismael&#45;&gt;37_Shamlan,_Nadia</title>
<path fill="none" stroke="#888888" d="M2039.64,-584.55C2039.64,-584.55 2039.64,-564.79 2039.64,-564.79"/>
<polygon fill="#888888" stroke="#888888" points="2042.09,-564.79 2039.64,-557.79 2037.19,-564.79 2042.09,-564.79"/>
</g>
<!-- 52_Dilmamode,_Anisah -->
<g id="node25" class="node">
<title>52_Dilmamode,_Anisah</title>
<path fill="#f9f9f9" stroke="#555555" d="M2112.78,-491C2112.78,-491 1966.5,-491 1966.5,-491 1960.5,-491 1954.5,-485 1954.5,-479 1954.5,-479 1954.5,-467 1954.5,-467 1954.5,-461 1960.5,-455 1966.5,-455 1966.5,-455 2112.78,-455 2112.78,-455 2118.78,-455 2124.78,-461 2124.78,-467 2124.78,-467 2124.78,-479 2124.78,-479 2124.78,-485 2118.78,-491 2112.78,-491"/>
<text xml:space="preserve" text-anchor="middle" x="2039.64" y="-474.2" font-family="Helvetica,sans-Serif" font-size="9.00">Dilmamode, Anisah</text>
<text xml:space="preserve" text-anchor="middle" x="2039.64" y="-464.45" font-family="Helvetica,sans-Serif" font-size="9.00">Senior Manager, Employee Relations</text>
</g>
<!-- 37_Shamlan,_Nadia&#45;&gt;52_Dilmamode,_Anisah -->
<g id="edge24" class="edge">
<title>37_Shamlan,_Nadia&#45;&gt;52_Dilmamode,_Anisah</title>
<path fill="none" stroke="#888888" d="M2039.64,-519.55C2039.64,-519.55 2039.64,-499.79 2039.64,-499.79"/>
<polygon fill="#888888" stroke="#888888" points="2042.09,-499.79 2039.64,-492.79 2037.19,-499.79 2042.09,-499.79"/>
</g>
<!-- 53_AlKaabi,_Mahra -->
<g id="node26" class="node">
<title>53_AlKaabi,_Mahra</title>
<path fill="#f9f9f9" stroke="#555555" d="M2143.53,-426C2143.53,-426 1935.75,-426 1935.75,-426 1929.75,-426 1923.75,-420 1923.75,-414 1923.75,-414 1923.75,-402 1923.75,-402 1923.75,-396 1929.75,-390 1935.75,-390 1935.75,-390 2143.53,-390 2143.53,-390 2149.53,-390 2155.53,-396 2155.53,-402 2155.53,-402 2155.53,-414 2155.53,-414 2155.53,-420 2149.53,-426 2143.53,-426"/>
<text xml:space="preserve" text-anchor="middle" x="2039.64" y="-409.2" font-family="Helvetica,sans-Serif" font-size="9.00">AlKaabi, Mahra</text>
<text xml:space="preserve" text-anchor="middle" x="2039.64" y="-399.45" font-family="Helvetica,sans-Serif" font-size="9.00">Student Assistant, Higher Education Career Program</text>
</g>
<!-- 52_Dilmamode,_Anisah&#45;&gt;53_AlKaabi,_Mahra -->
<g id="edge25" class="edge">
<title>52_Dilmamode,_Anisah&#45;&gt;53_AlKaabi,_Mahra</title>
<path fill="none" stroke="#888888" d="M2039.64,-454.55C2039.64,-454.55 2039.64,-434.79 2039.64,-434.79"/>
<polygon fill="#888888" stroke="#888888" points="2042.09,-434.79 2039.64,-427.79 2037.19,-434.79 2042.09,-434.79"/>
</g>
<!-- 54_Almansoori,_Azzah -->
<g id="node27" class="node">
<title>54_Almansoori,_Azzah</title>
<path fill="#f9f9f9" stroke="#555555" d="M2143.53,-361C2143.53,-361 1935.75,-361 1935.75,-361 1929.75,-361 1923.75,-355 1923.75,-349 1923.75,-349 1923.75,-337 1923.75,-337 1923.75,-331 1929.75,-325 1935.75,-325 1935.75,-325 2143.53,-325 2143.53,-325 2149.53,-325 2155.53,-331 2155.53,-337 2155.53,-337 2155.53,-349 2155.53,-349 2155.53,-355 2149.53,-361 2143.53,-361"/>
<text xml:space="preserve" text-anchor="middle" x="2039.64" y="-344.2" font-family="Helvetica,sans-Serif" font-size="9.00">Almansoori, Azzah</text>
<text xml:space="preserve" text-anchor="middle" x="2039.64" y="-334.45" font-family="Helvetica,sans-Serif" font-size="9.00">Student Assistant, Higher Education Career Program</text>
</g>
<!-- 53_AlKaabi,_Mahra&#45;&gt;54_Almansoori,_Azzah -->
<g id="edge26" class="edge">
<title>53_AlKaabi,_Mahra&#45;&gt;54_Almansoori,_Azzah</title>
<path fill="none" stroke="#888888" d="M2039.64,-389.55C2039.64,-389.55 2039.64,-369.79 2039.64,-369.79"/>
<polygon fill="#888888" stroke="#888888" points="2042.09,-369.79 2039.64,-362.79 2037.19,-369.79 2042.09,-369.79"/>
</g>
<!-- 55_Almazrouei,_Amal -->
<g id="node28" class="node">
<title>55_Almazrouei,_Amal</title>
<path fill="#f9f9f9" stroke="#555555" d="M2143.53,-296C2143.53,-296 1935.75,-296 1935.75,-296 1929.75,-296 1923.75,-290 1923.75,-284 1923.75,-284 1923.75,-272 1923.75,-272 1923.75,-266 1929.75,-260 1935.75,-260 1935.75,-260 2143.53,-260 2143.53,-260 2149.53,-260 2155.53,-266 2155.53,-272 2155.53,-272 2155.53,-284 2155.53,-284 2155.53,-290 2149.53,-296 2143.53,-296"/>
<text xml:space="preserve" text-anchor="middle" x="2039.64" y="-279.2" font-family="Helvetica,sans-Serif" font-size="9.00">Almazrouei, Amal</text>
<text xml:space="preserve" text-anchor="middle" x="2039.64" y="-269.45" font-family="Helvetica,sans-Serif" font-size="9.00">Student Assistant, Higher Education Career Program</text>
</g>
<!-- 54_Almansoori,_Azzah&#45;&gt;55_Almazrouei,_Amal -->
<g id="edge27" class="edge">
<title>54_Almansoori,_Azzah&#45;&gt;55_Almazrouei,_Amal</title>
<path fill="none" stroke="#888888" d="M2039.64,-324.55C2039.64,-324.55 2039.64,-304.79 2039.64,-304.79"/>
<polygon fill="#888888" stroke="#888888" points="2042.09,-304.79 2039.64,-297.79 2037.19,-304.79 2042.09,-304.79"/>
</g>
<!-- 56_Almheiri,_Fatima -->
<g id="node29" class="node">
<title>56_Almheiri,_Fatima</title>
<path fill="#f9f9f9" stroke="#555555" d="M2143.53,-231C2143.53,-231 1935.75,-231 1935.75,-231 1929.75,-231 1923.75,-225 1923.75,-219 1923.75,-219 1923.75,-207 1923.75,-207 1923.75,-201 1929.75,-195 1935.75,-195 1935.75,-195 2143.53,-195 2143.53,-195 2149.53,-195 2155.53,-201 2155.53,-207 2155.53,-207 2155.53,-219 2155.53,-219 2155.53,-225 2149.53,-231 2143.53,-231"/>
<text xml:space="preserve" text-anchor="middle" x="2039.64" y="-214.2" font-family="Helvetica,sans-Serif" font-size="9.00">Almheiri, Fatima</text>
<text xml:space="preserve" text-anchor="middle" x="2039.64" y="-204.45" font-family="Helvetica,sans-Serif" font-size="9.00">Student Assistant, Higher Education Career Program</text>
</g>
<!-- 55_Almazrouei,_Amal&#45;&gt;56_Almheiri,_Fatima -->
<g id="edge28" class="edge">
<title>55_Almazrouei,_Amal&#45;&gt;56_Almheiri,_Fatima</title>
<path fill="none" stroke="#888888" d="M2039.64,-259.55C2039.64,-259.55 2039.64,-239.79 2039.64,-239.79"/>
<polygon fill="#888888" stroke="#888888" points="2042.09,-239.79 2039.64,-232.79 2037.19,-239.79 2042.09,-239.79"/>
</g>
<!-- 57_Alremeithi,_Meera -->
<g id="node30" class="node">
<title>57_Alremeithi,_Meera</title>
<path fill="#f9f9f9" stroke="#555555" d="M2143.53,-166C2143.53,-166 1935.75,-166 1935.75,-166 1929.75,-166 1923.75,-160 1923.75,-154 1923.75,-154 1923.75,-142 1923.75,-142 1923.75,-136 1929.75,-130 1935.75,-130 1935.75,-130 2143.53,-130 2143.53,-130 2149.53,-130 2155.53,-136 2155.53,-142 2155.53,-142 2155.53,-154 2155.53,-154 2155.53,-160 2149.53,-166 2143.53,-166"/>
<text xml:space="preserve" text-anchor="middle" x="2039.64" y="-149.2" font-family="Helvetica,sans-Serif" font-size="9.00">Alremeithi, Meera</text>
<text xml:space="preserve" text-anchor="middle" x="2039.64" y="-139.45" font-family="Helvetica,sans-Serif" font-size="9.00">Student Assistant, Higher Education Career Program</text>
</g>
<!-- 56_Almheiri,_Fatima&#45;&gt;57_Alremeithi,_Meera -->
<g id="edge29" class="edge">
<title>56_Almheiri,_Fatima&#45;&gt;57_Alremeithi,_Meera</title>
<path fill="none" stroke="#888888" d="M2039.64,-194.55C2039.64,-194.55 2039.64,-174.79 2039.64,-174.79"/>
<polygon fill="#888888" stroke="#888888" points="2042.09,-174.79 2039.64,-167.79 2037.19,-174.79 2042.09,-174.79"/>
</g>
<!-- 58_Alshamsi,_Maitha -->
<g id="node31" class="node">
<title>58_Alshamsi,_Maitha</title>
<path fill="#f9f9f9" stroke="#555555" d="M2143.53,-101C2143.53,-101 1935.75,-101 1935.75,-101 1929.75,-101 1923.75,-95 1923.75,-89 1923.75,-89 1923.75,-77 1923.75,-77 1923.75,-71 1929.75,-65 1935.75,-65 1935.75,-65 2143.53,-65 2143.53,-65 2149.53,-65 2155.53,-71 2155.53,-77 2155.53,-77 2155.53,-89 2155.53,-89 2155.53,-95 2149.53,-101 2143.53,-101"/>
<text xml:space="preserve" text-anchor="middle" x="2039.64" y="-84.2" font-family="Helvetica,sans-Serif" font-size="9.00">Alshamsi, Maitha</text>
<text xml:space="preserve" text-anchor="middle" x="2039.64" y="-74.45" font-family="Helvetica,sans-Serif" font-size="9.00">Student Assistant, Higher Education Career Program</text>
</g>
<!-- 57_Alremeithi,_Meera&#45;&gt;58_Alshamsi,_Maitha -->
<g id="edge30" class="edge">
<title>57_Alremeithi,_Meera&#45;&gt;58_Alshamsi,_Maitha</title>
<path fill="none" stroke="#888888" d="M2039.64,-129.55C2039.64,-129.55 2039.64,-109.79 2039.64,-109.79"/>
<polygon fill="#888888" stroke="#888888" points="2042.09,-109.79 2039.64,-102.79 2037.19,-109.79 2042.09,-109.79"/>
</g>
<!-- 59_Alzahmi,_Alyaa -->
<g id="node32" class="node">
<title>59_Alzahmi,_Alyaa</title>
<path fill="#f9f9f9" stroke="#555555" d="M2143.53,-36C2143.53,-36 1935.75,-36 1935.75,-36 1929.75,-36 1923.75,-30 1923.75,-24 1923.75,-24 1923.75,-12 1923.75,-12 1923.75,-6 1929.75,0 1935.75,0 1935.75,0 2143.53,0 2143.53,0 2149.53,0 2155.53,-6 2155.53,-12 2155.53,-12 2155.53,-24 2155.53,-24 2155.53,-30 2149.53,-36 2143.53,-36"/>
<text xml:space="preserve" text-anchor="middle" x="2039.64" y="-19.2" font-family="Helvetica,sans-Serif" font-size="9.00">Alzahmi, Alyaa</text>
<text xml:space="preserve" text-anchor="middle" x="2039.64" y="-9.45" font-family="Helvetica,sans-Serif" font-size="9.00">Student Assistant, Higher Education Career Program</text>
</g>
<!-- 58_Alshamsi,_Maitha&#45;&gt;59_Alzahmi,_Alyaa -->
<g id="edge31" class="edge">
<title>58_Alshamsi,_Maitha&#45;&gt;59_Alzahmi,_Alyaa</title>
<path fill="none" stroke="#888888" d="M2039.64,-64.55C2039.64,-64.55 2039.64,-44.79 2039.64,-44.79"/>
<polygon fill="#888888" stroke="#888888" points="2042.09,-44.79 2039.64,-37.79 2037.19,-44.79 2042.09,-44.79"/>
</g>
<!-- 74_Alhameli,_Falah -->
<g id="node41" class="node">
<title>74_Alhameli,_Falah</title>
<path fill="#f9f9f9" stroke="#555555" d="M205.53,-1596C205.53,-1596 75.75,-1596 75.75,-1596 69.75,-1596 63.75,-1590 63.75,-1584 63.75,-1584 63.75,-1572 63.75,-1572 63.75,-1566 69.75,-1560 75.75,-1560 75.75,-1560 205.53,-1560 205.53,-1560 211.53,-1560 217.53,-1566 217.53,-1572 217.53,-1572 217.53,-1584 217.53,-1584 217.53,-1590 211.53,-1596 205.53,-1596"/>
<text xml:space="preserve" text-anchor="middle" x="140.64" y="-1579.2" font-family="Helvetica,sans-Serif" font-size="9.00">Alhameli, Falah</text>
<text xml:space="preserve" text-anchor="middle" x="140.64" y="-1569.45" font-family="Helvetica,sans-Serif" font-size="9.00">Immigration Services Coordinator</text>
</g>
<!-- 64_Alhosani,_Yaaqoub&#45;&gt;74_Alhameli,_Falah -->
<g id="edge41" class="edge">
<title>64_Alhosani,_Yaaqoub&#45;&gt;74_Alhameli,_Falah</title>
<path fill="none" stroke="#888888" d="M183.27,-1624.55C183.27,-1624.55 183.27,-1604.79 183.27,-1604.79"/>
<polygon fill="#888888" stroke="#888888" points="185.72,-1604.79 183.27,-1597.79 180.82,-1604.79 185.72,-1604.79"/>
</g>
<!-- 78_Alhajri,_Asma -->
<g id="node45" class="node">
<title>78_Alhajri,_Asma</title>
<path fill="#f9f9f9" stroke="#555555" d="M371.03,-1596C371.03,-1596 250.25,-1596 250.25,-1596 244.25,-1596 238.25,-1590 238.25,-1584 238.25,-1584 238.25,-1572 238.25,-1572 238.25,-1566 244.25,-1560 250.25,-1560 250.25,-1560 371.03,-1560 371.03,-1560 377.03,-1560 383.03,-1566 383.03,-1572 383.03,-1572 383.03,-1584 383.03,-1584 383.03,-1590 377.03,-1596 371.03,-1596"/>
<text xml:space="preserve" text-anchor="middle" x="310.64" y="-1579.2" font-family="Helvetica,sans-Serif" font-size="9.00">Alhajri, Asma</text>
<text xml:space="preserve" text-anchor="middle" x="310.64" y="-1569.45" font-family="Helvetica,sans-Serif" font-size="9.00">Immigration Services Specialist</text>
</g>
<!-- 66_(2)_Managers&#45;&gt;78_Alhajri,_Asma -->
<g id="edge45" class="edge">
<title>66_(2)_Managers&#45;&gt;78_Alhajri,_Asma</title>
<path fill="none" stroke="#888888" d="M328.64,-1624.55C328.64,-1624.55 328.64,-1604.79 328.64,-1604.79"/>
<polygon fill="#888888" stroke="#888888" points="331.09,-1604.79 328.64,-1597.79 326.19,-1604.79 331.09,-1604.79"/>
</g>
<!-- 83_Balasubramanian,_Ram_Mohan -->
<g id="node50" class="node">
<title>83_Balasubramanian,_Ram_Mohan</title>
<path fill="#f9f9f9" stroke="#555555" d="M560.53,-1596C560.53,-1596 412.75,-1596 412.75,-1596 406.75,-1596 400.75,-1590 400.75,-1584 400.75,-1584 400.75,-1572 400.75,-1572 400.75,-1566 406.75,-1560 412.75,-1560 412.75,-1560 560.53,-1560 560.53,-1560 566.53,-1560 572.53,-1566 572.53,-1572 572.53,-1572 572.53,-1584 572.53,-1584 572.53,-1590 566.53,-1596 560.53,-1596"/>
<text xml:space="preserve" text-anchor="middle" x="486.64" y="-1579.2" font-family="Helvetica,sans-Serif" font-size="9.00">Balasubramanian, Ram Mohan</text>
<text xml:space="preserve" text-anchor="middle" x="486.64" y="-1569.45" font-family="Helvetica,sans-Serif" font-size="9.00">Employee Mobility Services Specialist</text>
</g>
<!-- 67_Gameel,_Saru&#45;&gt;83_Balasubramanian,_Ram_Mohan -->
<g id="edge50" class="edge">
<title>67_Gameel,_Saru&#45;&gt;83_Balasubramanian,_Ram_Mohan</title>
<path fill="none" stroke="#888888" d="M478.89,-1624.55C478.89,-1624.55 478.89,-1604.79 478.89,-1604.79"/>
<polygon fill="#888888" stroke="#888888" points="481.34,-1604.79 478.89,-1597.79 476.44,-1604.79 481.34,-1604.79"/>
</g>
<!-- 84_Chua,_Andreana_Druce -->
<g id="node51" class="node">
<title>84_Chua,_Andreana_Druce</title>
<path fill="#f9f9f9" stroke="#555555" d="M690.53,-1596C690.53,-1596 602.75,-1596 602.75,-1596 596.75,-1596 590.75,-1590 590.75,-1584 590.75,-1584 590.75,-1572 590.75,-1572 590.75,-1566 596.75,-1560 602.75,-1560 602.75,-1560 690.53,-1560 690.53,-1560 696.53,-1560 702.53,-1566 702.53,-1572 702.53,-1572 702.53,-1584 702.53,-1584 702.53,-1590 696.53,-1596 690.53,-1596"/>
<text xml:space="preserve" text-anchor="middle" x="646.64" y="-1579.2" font-family="Helvetica,sans-Serif" font-size="9.00">Chua, Andreana Druce</text>
<text xml:space="preserve" text-anchor="middle" x="646.64" y="-1569.45" font-family="Helvetica,sans-Serif" font-size="9.00">Research Fellow</text>
</g>
<!-- 69_Beetham,_Anne&#45;&gt;84_Chua,_Andreana_Druce -->
<g id="edge37" class="edge">
<title>69_Beetham,_Anne&#45;&gt;84_Chua,_Andreana_Druce</title>
<path fill="none" stroke="#888888" d="M646.64,-1624.55C646.64,-1624.55 646.64,-1604.79 646.64,-1604.79"/>
<polygon fill="#888888" stroke="#888888" points="649.09,-1604.79 646.64,-1597.79 644.19,-1604.79 649.09,-1604.79"/>
</g>
<!-- 85_Ramos,_Jasmin_Oconer -->
<g id="node52" class="node">
<title>85_Ramos,_Jasmin_Oconer</title>
<path fill="#f9f9f9" stroke="#555555" d="M843.16,-1596C843.16,-1596 732.13,-1596 732.13,-1596 726.13,-1596 720.13,-1590 720.13,-1584 720.13,-1584 720.13,-1572 720.13,-1572 720.13,-1566 726.13,-1560 732.13,-1560 732.13,-1560 843.16,-1560 843.16,-1560 849.16,-1560 855.16,-1566 855.16,-1572 855.16,-1572 855.16,-1584 855.16,-1584 855.16,-1590 849.16,-1596 843.16,-1596"/>
<text xml:space="preserve" text-anchor="middle" x="787.64" y="-1579.2" font-family="Helvetica,sans-Serif" font-size="9.00">Ramos, Jasmin Oconer</text>
<text xml:space="preserve" text-anchor="middle" x="787.64" y="-1569.45" font-family="Helvetica,sans-Serif" font-size="9.00">Manager, Employee Benefits</text>
</g>
<!-- 71_Mreish,_Amani&#45;&gt;85_Ramos,_Jasmin_Oconer -->
<g id="edge51" class="edge">
<title>71_Mreish,_Amani&#45;&gt;85_Ramos,_Jasmin_Oconer</title>
<path fill="none" stroke="#888888" d="M992.47,-1643C920.37,-1643 834.53,-1643 834.53,-1643 834.53,-1643 834.53,-1604.97 834.53,-1604.97"/>
<polygon fill="#888888" stroke="#888888" points="836.98,-1604.97 834.53,-1597.97 832.08,-1604.97 836.98,-1604.97"/>
</g>
<!-- 86_Moghrabi,_Mona -->
<g id="node53" class="node">
<title>86_Moghrabi,_Mona</title>
<path fill="#f9f9f9" stroke="#555555" d="M1103.78,-1596C1103.78,-1596 885.5,-1596 885.5,-1596 879.5,-1596 873.5,-1590 873.5,-1584 873.5,-1584 873.5,-1572 873.5,-1572 873.5,-1566 879.5,-1560 885.5,-1560 885.5,-1560 1103.78,-1560 1103.78,-1560 1109.78,-1560 1115.78,-1566 1115.78,-1572 1115.78,-1572 1115.78,-1584 1115.78,-1584 1115.78,-1590 1109.78,-1596 1103.78,-1596"/>
<text xml:space="preserve" text-anchor="middle" x="994.64" y="-1579.2" font-family="Helvetica,sans-Serif" font-size="9.00">Moghrabi, Mona</text>
<text xml:space="preserve" text-anchor="middle" x="994.64" y="-1569.45" font-family="Helvetica,sans-Serif" font-size="9.00">Assistant Director, HR Information System and Services</text>
</g>
<!-- 71_Mreish,_Amani&#45;&gt;86_Moghrabi,_Mona -->
<g id="edge52" class="edge">
<title>71_Mreish,_Amani&#45;&gt;86_Moghrabi,_Mona</title>
<path fill="none" stroke="#888888" d="M1054.33,-1624.55C1054.33,-1624.55 1054.33,-1604.79 1054.33,-1604.79"/>
<polygon fill="#888888" stroke="#888888" points="1056.78,-1604.79 1054.33,-1597.79 1051.88,-1604.79 1056.78,-1604.79"/>
</g>
<!-- 87_Saadeddin,_Hanan_Tayel -->
<g id="node54" class="node">
<title>87_Saadeddin,_Hanan_Tayel</title>
<path fill="#f9f9f9" stroke="#555555" d="M1261.03,-1596C1261.03,-1596 1146.25,-1596 1146.25,-1596 1140.25,-1596 1134.25,-1590 1134.25,-1584 1134.25,-1584 1134.25,-1572 1134.25,-1572 1134.25,-1566 1140.25,-1560 1146.25,-1560 1146.25,-1560 1261.03,-1560 1261.03,-1560 1267.03,-1560 1273.03,-1566 1273.03,-1572 1273.03,-1572 1273.03,-1584 1273.03,-1584 1273.03,-1590 1267.03,-1596 1261.03,-1596"/>
<text xml:space="preserve" text-anchor="middle" x="1203.64" y="-1579.2" font-family="Helvetica,sans-Serif" font-size="9.00">Saadeddin, Hanan Tayel</text>
<text xml:space="preserve" text-anchor="middle" x="1203.64" y="-1569.45" font-family="Helvetica,sans-Serif" font-size="9.00">Senior Compensation Analyst</text>
</g>
<!-- 71_Mreish,_Amani&#45;&gt;87_Saadeddin,_Hanan_Tayel -->
<g id="edge53" class="edge">
<title>71_Mreish,_Amani&#45;&gt;87_Saadeddin,_Hanan_Tayel</title>
<path fill="none" stroke="#888888" d="M1160.33,-1624.55C1160.33,-1624.55 1160.33,-1604.79 1160.33,-1604.79"/>
<polygon fill="#888888" stroke="#888888" points="1162.78,-1604.79 1160.33,-1597.79 1157.88,-1604.79 1162.78,-1604.79"/>
</g>
<!-- 88_Issa,_Fatima -->
<g id="node55" class="node">
<title>88_Issa,_Fatima</title>
<path fill="#f9f9f9" stroke="#555555" d="M1457.91,-1596C1457.91,-1596 1303.38,-1596 1303.38,-1596 1297.38,-1596 1291.38,-1590 1291.38,-1584 1291.38,-1584 1291.38,-1572 1291.38,-1572 1291.38,-1566 1297.38,-1560 1303.38,-1560 1303.38,-1560 1457.91,-1560 1457.91,-1560 1463.91,-1560 1469.91,-1566 1469.91,-1572 1469.91,-1572 1469.91,-1584 1469.91,-1584 1469.91,-1590 1463.91,-1596 1457.91,-1596"/>
<text xml:space="preserve" text-anchor="middle" x="1380.64" y="-1579.2" font-family="Helvetica,sans-Serif" font-size="9.00">Issa, Fatima</text>
<text xml:space="preserve" text-anchor="middle" x="1380.64" y="-1569.45" font-family="Helvetica,sans-Serif" font-size="9.00">Assistant Director, HR Business Partner</text>
</g>
<!-- 72_Arikat,_Suhair_Mohamed_Atta_Khalil&#45;&gt;88_Issa,_Fatima -->
<g id="edge54" class="edge">
<title>72_Arikat,_Suhair_Mohamed_Atta_Khalil&#45;&gt;88_Issa,_Fatima</title>
<path fill="none" stroke="#888888" d="M1384.64,-1624.55C1384.64,-1624.55 1384.64,-1604.79 1384.64,-1604.79"/>
<polygon fill="#888888" stroke="#888888" points="1387.09,-1604.79 1384.64,-1597.79 1382.19,-1604.79 1387.09,-1604.79"/>
</g>
<!-- 89_Nyamanhindi,_Alvina -->
<g id="node56" class="node">
<title>89_Nyamanhindi,_Alvina</title>
<path fill="#f9f9f9" stroke="#555555" d="M1583.28,-1596C1583.28,-1596 1500,-1596 1500,-1596 1494,-1596 1488,-1590 1488,-1584 1488,-1584 1488,-1572 1488,-1572 1488,-1566 1494,-1560 1500,-1560 1500,-1560 1583.28,-1560 1583.28,-1560 1589.28,-1560 1595.28,-1566 1595.28,-1572 1595.28,-1572 1595.28,-1584 1595.28,-1584 1595.28,-1590 1589.28,-1596 1583.28,-1596"/>
<text xml:space="preserve" text-anchor="middle" x="1541.64" y="-1579.2" font-family="Helvetica,sans-Serif" font-size="9.00">Nyamanhindi, Alvina</text>
<text xml:space="preserve" text-anchor="middle" x="1541.64" y="-1569.45" font-family="Helvetica,sans-Serif" font-size="9.00">HR Services Manager</text>
</g>
<!-- 72_Arikat,_Suhair_Mohamed_Atta_Khalil&#45;&gt;89_Nyamanhindi,_Alvina -->
<g id="edge55" class="edge">
<title>72_Arikat,_Suhair_Mohamed_Atta_Khalil&#45;&gt;89_Nyamanhindi,_Alvina</title>
<path fill="none" stroke="#888888" d="M1509.95,-1624.55C1509.95,-1624.55 1509.95,-1604.79 1509.95,-1604.79"/>
<polygon fill="#888888" stroke="#888888" points="1512.4,-1604.79 1509.95,-1597.79 1507.5,-1604.79 1512.4,-1604.79"/>
</g>
<!-- 90_Alblooshi,_Majed_Nabeel_(__) -->
<g id="node57" class="node">
<title>90_Alblooshi,_Majed_Nabeel_(__)</title>
<path fill="#f9f9f9" stroke="#555555" d="M1788.41,-1596C1788.41,-1596 1624.88,-1596 1624.88,-1596 1618.88,-1596 1612.88,-1590 1612.88,-1584 1612.88,-1584 1612.88,-1572 1612.88,-1572 1612.88,-1566 1618.88,-1560 1624.88,-1560 1624.88,-1560 1788.41,-1560 1788.41,-1560 1794.41,-1560 1800.41,-1566 1800.41,-1572 1800.41,-1572 1800.41,-1584 1800.41,-1584 1800.41,-1590 1794.41,-1596 1788.41,-1596"/>
<text xml:space="preserve" text-anchor="middle" x="1706.64" y="-1579.95" font-family="Helvetica,sans-Serif" font-size="9.00">Alblooshi, Majed Nabeel (  )</text>
<text xml:space="preserve" text-anchor="middle" x="1706.64" y="-1568.7" font-family="Helvetica,sans-Serif" font-size="9.00">Human Resources Business Partner</text>
</g>
<!-- 72_Arikat,_Suhair_Mohamed_Atta_Khalil&#45;&gt;90_Alblooshi,_Majed_Nabeel_(__) -->
<g id="edge56" class="edge">
<title>72_Arikat,_Suhair_Mohamed_Atta_Khalil&#45;&gt;90_Alblooshi,_Majed_Nabeel_(__)</title>
<path fill="none" stroke="#888888" d="M1532.25,-1643C1591.42,-1643 1650.94,-1643 1650.94,-1643 1650.94,-1643 1650.94,-1604.97 1650.94,-1604.97"/>
<polygon fill="#888888" stroke="#888888" points="1653.39,-1604.97 1650.94,-1597.97 1648.49,-1604.97 1653.39,-1604.97"/>
</g>
<!-- 92_Aniciete,_Margie_Navarro -->
<g id="node58" class="node">
<title>92_Aniciete,_Margie_Navarro</title>
<path fill="#f9f9f9" stroke="#555555" d="M1937.28,-1596C1937.28,-1596 1830,-1596 1830,-1596 1824,-1596 1818,-1590 1818,-1584 1818,-1584 1818,-1572 1818,-1572 1818,-1566 1824,-1560 1830,-1560 1830,-1560 1937.28,-1560 1937.28,-1560 1943.28,-1560 1949.28,-1566 1949.28,-1572 1949.28,-1572 1949.28,-1584 1949.28,-1584 1949.28,-1590 1943.28,-1596 1937.28,-1596"/>
<text xml:space="preserve" text-anchor="middle" x="1883.64" y="-1579.2" font-family="Helvetica,sans-Serif" font-size="9.00">Aniciete, Margie Navarro</text>
<text xml:space="preserve" text-anchor="middle" x="1883.64" y="-1569.45" font-family="Helvetica,sans-Serif" font-size="9.00">Talent Acquisition Specialist</text>
</g>
<!-- 73_O&#39;Brien,_Charlotte_(On_Leave)&#45;&gt;92_Aniciete,_Margie_Navarro -->
<g id="edge57" class="edge">
<title>73_O&#39;Brien,_Charlotte_(On_Leave)&#45;&gt;92_Aniciete,_Margie_Navarro</title>
<path fill="none" stroke="#888888" d="M1822.14,-1624.55C1822.14,-1624.55 1822.14,-1604.79 1822.14,-1604.79"/>
<polygon fill="#888888" stroke="#888888" points="1824.59,-1604.79 1822.14,-1597.79 1819.69,-1604.79 1824.59,-1604.79"/>
</g>
<!-- 75_Aljaberi,_Alyazia -->
<g id="node42" class="node">
<title>75_Aljaberi,_Alyazia</title>
<path fill="#f9f9f9" stroke="#555555" d="M199.53,-1531C199.53,-1531 69.75,-1531 69.75,-1531 63.75,-1531 57.75,-1525 57.75,-1519 57.75,-1519 57.75,-1507 57.75,-1507 57.75,-1501 63.75,-1495 69.75,-1495 69.75,-1495 199.53,-1495 199.53,-1495 205.53,-1495 211.53,-1501 211.53,-1507 211.53,-1507 211.53,-1519 211.53,-1519 211.53,-1525 205.53,-1531 199.53,-1531"/>
<text xml:space="preserve" text-anchor="middle" x="134.64" y="-1514.2" font-family="Helvetica,sans-Serif" font-size="9.00">Aljaberi, Alyazia</text>
<text xml:space="preserve" text-anchor="middle" x="134.64" y="-1504.45" font-family="Helvetica,sans-Serif" font-size="9.00">Immigration Services Coordinator</text>
</g>
<!-- 74_Alhameli,_Falah&#45;&gt;75_Aljaberi,_Alyazia -->
<g id="edge42" class="edge">
<title>74_Alhameli,_Falah&#45;&gt;75_Aljaberi,_Alyazia</title>
<path fill="none" stroke="#888888" d="M137.64,-1559.55C137.64,-1559.55 137.64,-1539.79 137.64,-1539.79"/>
<polygon fill="#888888" stroke="#888888" points="140.09,-1539.79 137.64,-1532.79 135.19,-1539.79 140.09,-1539.79"/>
</g>
<!-- 76_Almansoori,_Maitha -->
<g id="node43" class="node">
<title>76_Almansoori,_Maitha</title>
<path fill="#f9f9f9" stroke="#555555" d="M187.53,-1466C187.53,-1466 57.75,-1466 57.75,-1466 51.75,-1466 45.75,-1460 45.75,-1454 45.75,-1454 45.75,-1442 45.75,-1442 45.75,-1436 51.75,-1430 57.75,-1430 57.75,-1430 187.53,-1430 187.53,-1430 193.53,-1430 199.53,-1436 199.53,-1442 199.53,-1442 199.53,-1454 199.53,-1454 199.53,-1460 193.53,-1466 187.53,-1466"/>
<text xml:space="preserve" text-anchor="middle" x="122.64" y="-1449.2" font-family="Helvetica,sans-Serif" font-size="9.00">Almansoori, Maitha</text>
<text xml:space="preserve" text-anchor="middle" x="122.64" y="-1439.45" font-family="Helvetica,sans-Serif" font-size="9.00">Immigration Services Coordinator</text>
</g>
<!-- 75_Aljaberi,_Alyazia&#45;&gt;76_Almansoori,_Maitha -->
<g id="edge43" class="edge">
<title>75_Aljaberi,_Alyazia&#45;&gt;76_Almansoori,_Maitha</title>
<path fill="none" stroke="#888888" d="M128.64,-1494.55C128.64,-1494.55 128.64,-1474.79 128.64,-1474.79"/>
<polygon fill="#888888" stroke="#888888" points="131.09,-1474.79 128.64,-1467.79 126.19,-1474.79 131.09,-1474.79"/>
</g>
<!-- 77_Nasser,_Feras_Obaid_Al -->
<g id="node44" class="node">
<title>77_Nasser,_Feras_Obaid_Al</title>
<path fill="#f9f9f9" stroke="#555555" d="M193.91,-1401C193.91,-1401 51.38,-1401 51.38,-1401 45.38,-1401 39.38,-1395 39.38,-1389 39.38,-1389 39.38,-1377 39.38,-1377 39.38,-1371 45.38,-1365 51.38,-1365 51.38,-1365 193.91,-1365 193.91,-1365 199.91,-1365 205.91,-1371 205.91,-1377 205.91,-1377 205.91,-1389 205.91,-1389 205.91,-1395 199.91,-1401 193.91,-1401"/>
<text xml:space="preserve" text-anchor="middle" x="122.64" y="-1384.2" font-family="Helvetica,sans-Serif" font-size="9.00">Nasser, Feras Obaid Al</text>
<text xml:space="preserve" text-anchor="middle" x="122.64" y="-1374.45" font-family="Helvetica,sans-Serif" font-size="9.00">Senior PRO &amp; Immigration Specialist</text>
</g>
<!-- 76_Almansoori,_Maitha&#45;&gt;77_Nasser,_Feras_Obaid_Al -->
<g id="edge44" class="edge">
<title>76_Almansoori,_Maitha&#45;&gt;77_Nasser,_Feras_Obaid_Al</title>
<path fill="none" stroke="#888888" d="M122.64,-1429.55C122.64,-1429.55 122.64,-1409.79 122.64,-1409.79"/>
<polygon fill="#888888" stroke="#888888" points="125.09,-1409.79 122.64,-1402.79 120.19,-1409.79 125.09,-1409.79"/>
</g>
<!-- 79_Alhosani,_Maryam -->
<g id="node46" class="node">
<title>79_Alhosani,_Maryam</title>
<path fill="#f9f9f9" stroke="#555555" d="M373.03,-1531C373.03,-1531 252.25,-1531 252.25,-1531 246.25,-1531 240.25,-1525 240.25,-1519 240.25,-1519 240.25,-1507 240.25,-1507 240.25,-1501 246.25,-1495 252.25,-1495 252.25,-1495 373.03,-1495 373.03,-1495 379.03,-1495 385.03,-1501 385.03,-1507 385.03,-1507 385.03,-1519 385.03,-1519 385.03,-1525 379.03,-1531 373.03,-1531"/>
<text xml:space="preserve" text-anchor="middle" x="312.64" y="-1514.2" font-family="Helvetica,sans-Serif" font-size="9.00">Alhosani, Maryam</text>
<text xml:space="preserve" text-anchor="middle" x="312.64" y="-1504.45" font-family="Helvetica,sans-Serif" font-size="9.00">Immigration Services Specialist</text>
</g>
<!-- 78_Alhajri,_Asma&#45;&gt;79_Alhosani,_Maryam -->
<g id="edge46" class="edge">
<title>78_Alhajri,_Asma&#45;&gt;79_Alhosani,_Maryam</title>
<path fill="none" stroke="#888888" d="M311.64,-1559.55C311.64,-1559.55 311.64,-1539.79 311.64,-1539.79"/>
<polygon fill="#888888" stroke="#888888" points="314.09,-1539.79 311.64,-1532.79 309.19,-1539.79 314.09,-1539.79"/>
</g>
<!-- 80_AlNahdi,_Zayed_QahtanSaleh -->
<g id="node47" class="node">
<title>80_AlNahdi,_Zayed_QahtanSaleh</title>
<path fill="#f9f9f9" stroke="#555555" d="M397.66,-1466C397.66,-1466 229.63,-1466 229.63,-1466 223.63,-1466 217.63,-1460 217.63,-1454 217.63,-1454 217.63,-1442 217.63,-1442 217.63,-1436 223.63,-1430 229.63,-1430 229.63,-1430 397.66,-1430 397.66,-1430 403.66,-1430 409.66,-1436 409.66,-1442 409.66,-1442 409.66,-1454 409.66,-1454 409.66,-1460 403.66,-1466 397.66,-1466"/>
<text xml:space="preserve" text-anchor="middle" x="313.64" y="-1449.2" font-family="Helvetica,sans-Serif" font-size="9.00">AlNahdi, Zayed QahtanSaleh</text>
<text xml:space="preserve" text-anchor="middle" x="313.64" y="-1439.45" font-family="Helvetica,sans-Serif" font-size="9.00">Immigration Services Operations Specialist</text>
</g>
<!-- 79_Alhosani,_Maryam&#45;&gt;80_AlNahdi,_Zayed_QahtanSaleh -->
<g id="edge47" class="edge">
<title>79_Alhosani,_Maryam&#45;&gt;80_AlNahdi,_Zayed_QahtanSaleh</title>
<path fill="none" stroke="#888888" d="M312.64,-1494.55C312.64,-1494.55 312.64,-1474.79 312.64,-1474.79"/>
<polygon fill="#888888" stroke="#888888" points="315.09,-1474.79 312.64,-1467.79 310.19,-1474.79 315.09,-1474.79"/>
</g>
<!-- 81_Alqubaisi,_Mera_Eid -->
<g id="node48" class="node">
<title>81_Alqubaisi,_Mera_Eid</title>
<path fill="#f9f9f9" stroke="#555555" d="M378.53,-1401C378.53,-1401 248.75,-1401 248.75,-1401 242.75,-1401 236.75,-1395 236.75,-1389 236.75,-1389 236.75,-1377 236.75,-1377 236.75,-1371 242.75,-1365 248.75,-1365 248.75,-1365 378.53,-1365 378.53,-1365 384.53,-1365 390.53,-1371 390.53,-1377 390.53,-1377 390.53,-1389 390.53,-1389 390.53,-1395 384.53,-1401 378.53,-1401"/>
<text xml:space="preserve" text-anchor="middle" x="313.64" y="-1384.2" font-family="Helvetica,sans-Serif" font-size="9.00">Alqubaisi, Mera Eid</text>
<text xml:space="preserve" text-anchor="middle" x="313.64" y="-1374.45" font-family="Helvetica,sans-Serif" font-size="9.00">Immigration Services Coordinator</text>
</g>
<!-- 80_AlNahdi,_Zayed_QahtanSaleh&#45;&gt;81_Alqubaisi,_Mera_Eid -->
<g id="edge48" class="edge">
<title>80_AlNahdi,_Zayed_QahtanSaleh&#45;&gt;81_Alqubaisi,_Mera_Eid</title>
<path fill="none" stroke="#888888" d="M313.64,-1429.55C313.64,-1429.55 313.64,-1409.79 313.64,-1409.79"/>
<polygon fill="#888888" stroke="#888888" points="316.09,-1409.79 313.64,-1402.79 311.19,-1409.79 316.09,-1409.79"/>
</g>
<!-- 82_Mohamed,_Nouf -->
<g id="node49" class="node">
<title>82_Mohamed,_Nouf</title>
<path fill="#f9f9f9" stroke="#555555" d="M441.16,-1336C441.16,-1336 186.13,-1336 186.13,-1336 180.13,-1336 174.13,-1330 174.13,-1324 174.13,-1324 174.13,-1312 174.13,-1312 174.13,-1306 180.13,-1300 186.13,-1300 186.13,-1300 441.16,-1300 441.16,-1300 447.16,-1300 453.16,-1306 453.16,-1312 453.16,-1312 453.16,-1324 453.16,-1324 453.16,-1330 447.16,-1336 441.16,-1336"/>
<text xml:space="preserve" text-anchor="middle" x="313.64" y="-1319.2" font-family="Helvetica,sans-Serif" font-size="9.00">Mohamed, Nouf</text>
<text xml:space="preserve" text-anchor="middle" x="313.64" y="-1309.45" font-family="Helvetica,sans-Serif" font-size="9.00">Operations and Communication Specialist, Immigration Services</text>
</g>
<!-- 81_Alqubaisi,_Mera_Eid&#45;&gt;82_Mohamed,_Nouf -->
<g id="edge49" class="edge">
<title>81_Alqubaisi,_Mera_Eid&#45;&gt;82_Mohamed,_Nouf</title>
<path fill="none" stroke="#888888" d="M313.64,-1364.55C313.64,-1364.55 313.64,-1344.79 313.64,-1344.79"/>
<polygon fill="#888888" stroke="#888888" points="316.09,-1344.79 313.64,-1337.79 311.19,-1344.79 316.09,-1344.79"/>
</g>
<!-- 96_Jijakli,_Bana -->
<g id="node62" class="node">
<title>96_Jijakli,_Bana</title>
<path fill="#f9f9f9" stroke="#555555" d="M859.66,-1531C859.66,-1531 715.63,-1531 715.63,-1531 709.63,-1531 703.63,-1525 703.63,-1519 703.63,-1519 703.63,-1507 703.63,-1507 703.63,-1501 709.63,-1495 715.63,-1495 715.63,-1495 859.66,-1495 859.66,-1495 865.66,-1495 871.66,-1501 871.66,-1507 871.66,-1507 871.66,-1519 871.66,-1519 871.66,-1525 865.66,-1531 859.66,-1531"/>
<text xml:space="preserve" text-anchor="middle" x="787.64" y="-1514.2" font-family="Helvetica,sans-Serif" font-size="9.00">Jijakli, Bana</text>
<text xml:space="preserve" text-anchor="middle" x="787.64" y="-1504.45" font-family="Helvetica,sans-Serif" font-size="9.00">HR Advisor and Benefits Coordinator</text>
</g>
<!-- 85_Ramos,_Jasmin_Oconer&#45;&gt;96_Jijakli,_Bana -->
<g id="edge61" class="edge">
<title>85_Ramos,_Jasmin_Oconer&#45;&gt;96_Jijakli,_Bana</title>
<path fill="none" stroke="#888888" d="M787.64,-1559.55C787.64,-1559.55 787.64,-1539.79 787.64,-1539.79"/>
<polygon fill="#888888" stroke="#888888" points="790.09,-1539.79 787.64,-1532.79 785.19,-1539.79 790.09,-1539.79"/>
</g>
<!-- 97_Malaiba,_Wendy_Joy_Abuedo -->
<g id="node63" class="node">
<title>97_Malaiba,_Wendy_Joy_Abuedo</title>
<path fill="#f9f9f9" stroke="#555555" d="M1049.78,-1531C1049.78,-1531 939.5,-1531 939.5,-1531 933.5,-1531 927.5,-1525 927.5,-1519 927.5,-1519 927.5,-1507 927.5,-1507 927.5,-1501 933.5,-1495 939.5,-1495 939.5,-1495 1049.78,-1495 1049.78,-1495 1055.78,-1495 1061.78,-1501 1061.78,-1507 1061.78,-1507 1061.78,-1519 1061.78,-1519 1061.78,-1525 1055.78,-1531 1049.78,-1531"/>
<text xml:space="preserve" text-anchor="middle" x="994.64" y="-1514.2" font-family="Helvetica,sans-Serif" font-size="9.00">Malaiba, Wendy Joy Abuedo</text>
<text xml:space="preserve" text-anchor="middle" x="994.64" y="-1504.45" font-family="Helvetica,sans-Serif" font-size="9.00">Human Resources Advisor</text>
</g>
<!-- 86_Moghrabi,_Mona&#45;&gt;97_Malaiba,_Wendy_Joy_Abuedo -->
<g id="edge62" class="edge">
<title>86_Moghrabi,_Mona&#45;&gt;97_Malaiba,_Wendy_Joy_Abuedo</title>
<path fill="none" stroke="#888888" d="M994.64,-1559.55C994.64,-1559.55 994.64,-1539.79 994.64,-1539.79"/>
<polygon fill="#888888" stroke="#888888" points="997.09,-1539.79 994.64,-1532.79 992.19,-1539.79 997.09,-1539.79"/>
</g>
<!-- 98_Young,_Tessa -->
<g id="node64" class="node">
<title>98_Young,_Tessa</title>
<path fill="#f9f9f9" stroke="#555555" d="M1405.03,-1531C1405.03,-1531 1356.25,-1531 1356.25,-1531 1350.25,-1531 1344.25,-1525 1344.25,-1519 1344.25,-1519 1344.25,-1507 1344.25,-1507 1344.25,-1501 1350.25,-1495 1356.25,-1495 1356.25,-1495 1405.03,-1495 1405.03,-1495 1411.03,-1495 1417.03,-1501 1417.03,-1507 1417.03,-1507 1417.03,-1519 1417.03,-1519 1417.03,-1525 1411.03,-1531 1405.03,-1531"/>
<text xml:space="preserve" text-anchor="middle" x="1380.64" y="-1514.2" font-family="Helvetica,sans-Serif" font-size="9.00">Young, Tessa</text>
<text xml:space="preserve" text-anchor="middle" x="1380.64" y="-1504.45" font-family="Helvetica,sans-Serif" font-size="9.00">HR Specialist</text>
</g>
<!-- 88_Issa,_Fatima&#45;&gt;98_Young,_Tessa -->
<g id="edge63" class="edge">
<title>88_Issa,_Fatima&#45;&gt;98_Young,_Tessa</title>
<path fill="none" stroke="#888888" d="M1380.64,-1559.55C1380.64,-1559.55 1380.64,-1539.79 1380.64,-1539.79"/>
<polygon fill="#888888" stroke="#888888" points="1383.09,-1539.79 1380.64,-1532.79 1378.19,-1539.79 1383.09,-1539.79"/>
</g>
<!-- 99_Santos,_Erika -->
<g id="node65" class="node">
<title>99_Santos,_Erika</title>
<path fill="#f9f9f9" stroke="#555555" d="M1596.03,-1531C1596.03,-1531 1487.25,-1531 1487.25,-1531 1481.25,-1531 1475.25,-1525 1475.25,-1519 1475.25,-1519 1475.25,-1507 1475.25,-1507 1475.25,-1501 1481.25,-1495 1487.25,-1495 1487.25,-1495 1596.03,-1495 1596.03,-1495 1602.03,-1495 1608.03,-1501 1608.03,-1507 1608.03,-1507 1608.03,-1519 1608.03,-1519 1608.03,-1525 1602.03,-1531 1596.03,-1531"/>
<text xml:space="preserve" text-anchor="middle" x="1541.64" y="-1514.2" font-family="Helvetica,sans-Serif" font-size="9.00">Santos, Erika</text>
<text xml:space="preserve" text-anchor="middle" x="1541.64" y="-1504.45" font-family="Helvetica,sans-Serif" font-size="9.00">Human Resources Assistant</text>
</g>
<!-- 89_Nyamanhindi,_Alvina&#45;&gt;99_Santos,_Erika -->
<g id="edge64" class="edge">
<title>89_Nyamanhindi,_Alvina&#45;&gt;99_Santos,_Erika</title>
<path fill="none" stroke="#888888" d="M1541.64,-1559.55C1541.64,-1559.55 1541.64,-1539.79 1541.64,-1539.79"/>
<polygon fill="#888888" stroke="#888888" points="1544.09,-1539.79 1541.64,-1532.79 1539.19,-1539.79 1544.09,-1539.79"/>
</g>
<!-- 93_Baker,_Stacey_Alana -->
<g id="node59" class="node">
<title>93_Baker,_Stacey_Alana</title>
<path fill="#f9f9f9" stroke="#555555" d="M1936.28,-1531C1936.28,-1531 1829,-1531 1829,-1531 1823,-1531 1817,-1525 1817,-1519 1817,-1519 1817,-1507 1817,-1507 1817,-1501 1823,-1495 1829,-1495 1829,-1495 1936.28,-1495 1936.28,-1495 1942.28,-1495 1948.28,-1501 1948.28,-1507 1948.28,-1507 1948.28,-1519 1948.28,-1519 1948.28,-1525 1942.28,-1531 1936.28,-1531"/>
<text xml:space="preserve" text-anchor="middle" x="1882.64" y="-1514.2" font-family="Helvetica,sans-Serif" font-size="9.00">Baker, Stacey Alana</text>
<text xml:space="preserve" text-anchor="middle" x="1882.64" y="-1504.45" font-family="Helvetica,sans-Serif" font-size="9.00">Talent Acquisition Specialist</text>
</g>
<!-- 92_Aniciete,_Margie_Navarro&#45;&gt;93_Baker,_Stacey_Alana -->
<g id="edge58" class="edge">
<title>92_Aniciete,_Margie_Navarro&#45;&gt;93_Baker,_Stacey_Alana</title>
<path fill="none" stroke="#888888" d="M1883.14,-1559.55C1883.14,-1559.55 1883.14,-1539.79 1883.14,-1539.79"/>
<polygon fill="#888888" stroke="#888888" points="1885.59,-1539.79 1883.14,-1532.79 1880.69,-1539.79 1885.59,-1539.79"/>
</g>
<!-- 94_Da_Cruz,_Amanda -->
<g id="node60" class="node">
<title>94_Da_Cruz,_Amanda</title>
<path fill="#f9f9f9" stroke="#555555" d="M1939.78,-1466C1939.78,-1466 1823.5,-1466 1823.5,-1466 1817.5,-1466 1811.5,-1460 1811.5,-1454 1811.5,-1454 1811.5,-1442 1811.5,-1442 1811.5,-1436 1817.5,-1430 1823.5,-1430 1823.5,-1430 1939.78,-1430 1939.78,-1430 1945.78,-1430 1951.78,-1436 1951.78,-1442 1951.78,-1442 1951.78,-1454 1951.78,-1454 1951.78,-1460 1945.78,-1466 1939.78,-1466"/>
<text xml:space="preserve" text-anchor="middle" x="1881.64" y="-1449.2" font-family="Helvetica,sans-Serif" font-size="9.00">Da Cruz, Amanda</text>
<text xml:space="preserve" text-anchor="middle" x="1881.64" y="-1439.45" font-family="Helvetica,sans-Serif" font-size="9.00">Talent Acquisition Coordinator</text>
</g>
<!-- 93_Baker,_Stacey_Alana&#45;&gt;94_Da_Cruz,_Amanda -->
<g id="edge59" class="edge">
<title>93_Baker,_Stacey_Alana&#45;&gt;94_Da_Cruz,_Amanda</title>
<path fill="none" stroke="#888888" d="M1882.64,-1494.55C1882.64,-1494.55 1882.64,-1474.79 1882.64,-1474.79"/>
<polygon fill="#888888" stroke="#888888" points="1885.09,-1474.79 1882.64,-1467.79 1880.19,-1474.79 1885.09,-1474.79"/>
</g>
<!-- 95_Fikree,_Shurooq -->
<g id="node61" class="node">
<title>95_Fikree,_Shurooq</title>
<path fill="#f9f9f9" stroke="#555555" d="M1935.28,-1401C1935.28,-1401 1828,-1401 1828,-1401 1822,-1401 1816,-1395 1816,-1389 1816,-1389 1816,-1377 1816,-1377 1816,-1371 1822,-1365 1828,-1365 1828,-1365 1935.28,-1365 1935.28,-1365 1941.28,-1365 1947.28,-1371 1947.28,-1377 1947.28,-1377 1947.28,-1389 1947.28,-1389 1947.28,-1395 1941.28,-1401 1935.28,-1401"/>
<text xml:space="preserve" text-anchor="middle" x="1881.64" y="-1384.2" font-family="Helvetica,sans-Serif" font-size="9.00">Fikree, Shurooq</text>
<text xml:space="preserve" text-anchor="middle" x="1881.64" y="-1374.45" font-family="Helvetica,sans-Serif" font-size="9.00">Talent Acquisition Specialist</text>
</g>
<!-- 94_Da_Cruz,_Amanda&#45;&gt;95_Fikree,_Shurooq -->
<g id="edge60" class="edge">
<title>94_Da_Cruz,_Amanda&#45;&gt;95_Fikree,_Shurooq</title>
<path fill="none" stroke="#888888" d="M1881.64,-1429.55C1881.64,-1429.55 1881.64,-1409.79 1881.64,-1409.79"/>
<polygon fill="#888888" stroke="#888888" points="1884.09,-1409.79 1881.64,-1402.79 1879.19,-1409.79 1884.09,-1409.79"/>
</g>
</g>
</svg>
