<?xml version="1.0" encoding="UTF-8" standalone="no"?>
<!DOCTYPE svg PUBLIC "-//W3C//DTD SVG 1.1//EN"
 "http://www.w3.org/Graphics/SVG/1.1/DTD/svg11.dtd">
<!-- Generated by graphviz version 13.1.2 (0)
 -->
<!-- Pages: 1 -->
<svg width="1253pt" height="272pt"
 viewBox="4.00 4.00 1250.00 268.00" xmlns="http://www.w3.org/2000/svg" xmlns:xlink="http://www.w3.org/1999/xlink">
<g id="graph0" class="graph" transform="scale(1 1) rotate(0) translate(10.8 261.05)">
<polygon fill="white" stroke="none" points="-7.2,7.2 -7.2,-257.45 1238.98,-257.45 1238.98,7.2 -7.2,7.2"/>
<text xml:space="preserve" text-anchor="middle" x="615.89" y="-236.75" font-family="Times,serif" font-size="10.00">HR Org Chart &#45; High Level</text>
<!-- 5_Moussoux,_Florence -->
<g id="node1" class="node">
<title>5_Moussoux,_Florence</title>
<path fill="#f9f9f9" stroke="#555555" d="M179.28,-166C179.28,-166 12,-166 12,-166 6,-166 0,-160 0,-154 0,-154 0,-142 0,-142 0,-136 6,-130 12,-130 12,-130 179.28,-130 179.28,-130 185.28,-130 191.28,-136 191.28,-142 191.28,-142 191.28,-154 191.28,-154 191.28,-160 185.28,-166 179.28,-166"/>
<text xml:space="preserve" text-anchor="middle" x="95.64" y="-149.2" font-family="Helvetica,sans-Serif" font-size="9.00">Moussoux, Florence</text>
<text xml:space="preserve" text-anchor="middle" x="95.64" y="-139.45" font-family="Helvetica,sans-Serif" font-size="9.00">Head of HR Planning &amp; Strategic Initiatives</text>
</g>
<!-- 67_Gameel,_Saru -->
<g id="node2" class="node">
<title>67_Gameel,_Saru</title>
<path fill="#f9f9f9" stroke="#555555" d="M242.03,-101C242.03,-101 91.25,-101 91.25,-101 85.25,-101 79.25,-95 79.25,-89 79.25,-89 79.25,-77 79.25,-77 79.25,-71 85.25,-65 91.25,-65 91.25,-65 242.03,-65 242.03,-65 248.03,-65 254.03,-71 254.03,-77 254.03,-77 254.03,-89 254.03,-89 254.03,-95 248.03,-101 242.03,-101"/>
<text xml:space="preserve" text-anchor="middle" x="166.64" y="-84.2" font-family="Helvetica,sans-Serif" font-size="9.00">Gameel, Saru</text>
<text xml:space="preserve" text-anchor="middle" x="166.64" y="-74.45" font-family="Helvetica,sans-Serif" font-size="9.00">Assistant Director, Relocation Services</text>
</g>
<!-- 89_Nyamanhindi,_Alvina -->
<g id="node3" class="node">
<title>89_Nyamanhindi,_Alvina</title>
<path fill="#f9f9f9" stroke="#555555" d="M555.28,-36C555.28,-36 472,-36 472,-36 466,-36 460,-30 460,-24 460,-24 460,-12 460,-12 460,-6 466,0 472,0 472,0 555.28,0 555.28,0 561.28,0 567.28,-6 567.28,-12 567.28,-12 567.28,-24 567.28,-24 567.28,-30 561.28,-36 555.28,-36"/>
<text xml:space="preserve" text-anchor="middle" x="513.64" y="-19.2" font-family="Helvetica,sans-Serif" font-size="9.00">Nyamanhindi, Alvina</text>
<text xml:space="preserve" text-anchor="middle" x="513.64" y="-9.45" font-family="Helvetica,sans-Serif" font-size="9.00">HR Services Manager</text>
</g>
<!-- 72_Arikat,_Suhair_Mohamed_Atta_Khalil -->
<g id="node4" class="node">
<title>72_Arikat,_Suhair_Mohamed_Atta_Khalil</title>
<path fill="#f9f9f9" stroke="#555555" d="M725.9,-101C725.9,-101 517.38,-101 517.38,-101 511.38,-101 505.38,-95 505.38,-89 505.38,-89 505.38,-77 505.38,-77 505.38,-71 511.38,-65 517.38,-65 517.38,-65 725.9,-65 725.9,-65 731.9,-65 737.9,-71 737.9,-77 737.9,-77 737.9,-89 737.9,-89 737.9,-95 731.9,-101 725.9,-101"/>
<text xml:space="preserve" text-anchor="middle" x="621.64" y="-84.2" font-family="Helvetica,sans-Serif" font-size="9.00">Arikat, Suhair Mohamed Atta Khalil</text>
<text xml:space="preserve" text-anchor="middle" x="621.64" y="-74.45" font-family="Helvetica,sans-Serif" font-size="9.00">Director, HR Business Partner &amp; Employee Relations</text>
</g>
<!-- 72_Arikat,_Suhair_Mohamed_Atta_Khalil&#45;&gt;89_Nyamanhindi,_Alvina -->
<g id="edge14" class="edge">
<title>72_Arikat,_Suhair_Mohamed_Atta_Khalil&#45;&gt;89_Nyamanhindi,_Alvina</title>
<path fill="none" stroke="#888888" d="M536.33,-64.55C536.33,-64.55 536.33,-44.79 536.33,-44.79"/>
<polygon fill="#888888" stroke="#888888" points="538.78,-44.79 536.33,-37.79 533.88,-44.79 538.78,-44.79"/>
</g>
<!-- 88_Issa,_Fatima -->
<g id="node5" class="node">
<title>88_Issa,_Fatima</title>
<path fill="#f9f9f9" stroke="#555555" d="M751.9,-36C751.9,-36 597.38,-36 597.38,-36 591.38,-36 585.38,-30 585.38,-24 585.38,-24 585.38,-12 585.38,-12 585.38,-6 591.38,0 597.38,0 597.38,0 751.9,0 751.9,0 757.9,0 763.9,-6 763.9,-12 763.9,-12 763.9,-24 763.9,-24 763.9,-30 757.9,-36 751.9,-36"/>
<text xml:space="preserve" text-anchor="middle" x="674.64" y="-19.2" font-family="Helvetica,sans-Serif" font-size="9.00">Issa, Fatima</text>
<text xml:space="preserve" text-anchor="middle" x="674.64" y="-9.45" font-family="Helvetica,sans-Serif" font-size="9.00">Assistant Director, HR Business Partner</text>
</g>
<!-- 72_Arikat,_Suhair_Mohamed_Atta_Khalil&#45;&gt;88_Issa,_Fatima -->
<g id="edge13" class="edge">
<title>72_Arikat,_Suhair_Mohamed_Atta_Khalil&#45;&gt;88_Issa,_Fatima</title>
<path fill="none" stroke="#888888" d="M661.64,-64.55C661.64,-64.55 661.64,-44.79 661.64,-44.79"/>
<polygon fill="#888888" stroke="#888888" points="664.09,-44.79 661.64,-37.79 659.19,-44.79 664.09,-44.79"/>
</g>
<!-- 6_Alamoodi,_Saif -->
<g id="node6" class="node">
<title>6_Alamoodi,_Saif</title>
<path fill="#f9f9f9" stroke="#555555" d="M450.4,-166C450.4,-166 220.88,-166 220.88,-166 214.88,-166 208.88,-160 208.88,-154 208.88,-154 208.88,-142 208.88,-142 208.88,-136 214.88,-130 220.88,-130 220.88,-130 450.4,-130 450.4,-130 456.4,-130 462.4,-136 462.4,-142 462.4,-142 462.4,-154 462.4,-154 462.4,-160 456.4,-166 450.4,-166"/>
<text xml:space="preserve" text-anchor="middle" x="335.64" y="-149.2" font-family="Helvetica,sans-Serif" font-size="9.00">Alamoodi, Saif</text>
<text xml:space="preserve" text-anchor="middle" x="335.64" y="-139.45" font-family="Helvetica,sans-Serif" font-size="9.00">Director, Government Relations and Immigration &#160;Services</text>
</g>
<!-- 6_Alamoodi,_Saif&#45;&gt;67_Gameel,_Saru -->
<g id="edge7" class="edge">
<title>6_Alamoodi,_Saif&#45;&gt;67_Gameel,_Saru</title>
<path fill="none" stroke="#888888" d="M231.45,-129.55C231.45,-129.55 231.45,-109.79 231.45,-109.79"/>
<polygon fill="#888888" stroke="#888888" points="233.9,-109.79 231.45,-102.79 229,-109.79 233.9,-109.79"/>
</g>
<!-- 64_Alhosani,_Yaaqoub -->
<g id="node9" class="node">
<title>64_Alhosani,_Yaaqoub</title>
<path fill="#f9f9f9" stroke="#555555" d="M385.28,-101C385.28,-101 284,-101 284,-101 278,-101 272,-95 272,-89 272,-89 272,-77 272,-77 272,-71 278,-65 284,-65 284,-65 385.28,-65 385.28,-65 391.28,-65 397.28,-71 397.28,-77 397.28,-77 397.28,-89 397.28,-89 397.28,-95 391.28,-101 385.28,-101"/>
<text xml:space="preserve" text-anchor="middle" x="334.64" y="-84.2" font-family="Helvetica,sans-Serif" font-size="9.00">Alhosani, Yaaqoub</text>
<text xml:space="preserve" text-anchor="middle" x="334.64" y="-74.45" font-family="Helvetica,sans-Serif" font-size="9.00">Manager, Public Relations</text>
</g>
<!-- 6_Alamoodi,_Saif&#45;&gt;64_Alhosani,_Yaaqoub -->
<g id="edge5" class="edge">
<title>6_Alamoodi,_Saif&#45;&gt;64_Alhosani,_Yaaqoub</title>
<path fill="none" stroke="#888888" d="M334.64,-129.55C334.64,-129.55 334.64,-109.79 334.64,-109.79"/>
<polygon fill="#888888" stroke="#888888" points="337.09,-109.79 334.64,-102.79 332.19,-109.79 337.09,-109.79"/>
</g>
<!-- 66_(2)_Managers -->
<g id="node13" class="node">
<title>66_(2)_Managers</title>
<path fill="#f9f9f9" stroke="#555555" d="M475.65,-101C475.65,-101 427.62,-101 427.62,-101 421.62,-101 415.62,-95 415.62,-89 415.62,-89 415.62,-77 415.62,-77 415.62,-71 421.62,-65 427.62,-65 427.62,-65 475.65,-65 475.65,-65 481.65,-65 487.65,-71 487.65,-77 487.65,-77 487.65,-89 487.65,-89 487.65,-95 481.65,-101 475.65,-101"/>
<text xml:space="preserve" text-anchor="middle" x="451.64" y="-79.33" font-family="Helvetica,sans-Serif" font-size="9.00">(2) Managers</text>
</g>
<!-- 6_Alamoodi,_Saif&#45;&gt;66_(2)_Managers -->
<g id="edge6" class="edge">
<title>6_Alamoodi,_Saif&#45;&gt;66_(2)_Managers</title>
<path fill="none" stroke="#888888" d="M439.01,-129.55C439.01,-129.55 439.01,-109.79 439.01,-109.79"/>
<polygon fill="#888888" stroke="#888888" points="441.47,-109.79 439.02,-102.79 436.57,-109.79 441.47,-109.79"/>
</g>
<!-- 85_Ramos,_Jasmin_Oconer -->
<g id="node7" class="node">
<title>85_Ramos,_Jasmin_Oconer</title>
<path fill="#f9f9f9" stroke="#555555" d="M959.15,-36C959.15,-36 848.12,-36 848.12,-36 842.12,-36 836.12,-30 836.12,-24 836.12,-24 836.12,-12 836.12,-12 836.12,-6 842.12,0 848.12,0 848.12,0 959.15,0 959.15,0 965.15,0 971.15,-6 971.15,-12 971.15,-12 971.15,-24 971.15,-24 971.15,-30 965.15,-36 959.15,-36"/>
<text xml:space="preserve" text-anchor="middle" x="903.64" y="-19.2" font-family="Helvetica,sans-Serif" font-size="9.00">Ramos, Jasmin Oconer</text>
<text xml:space="preserve" text-anchor="middle" x="903.64" y="-9.45" font-family="Helvetica,sans-Serif" font-size="9.00">Manager, Employee Benefits</text>
</g>
<!-- 7_Putnins,_Natasha -->
<g id="node8" class="node">
<title>7_Putnins,_Natasha</title>
<path fill="#f9f9f9" stroke="#555555" d="M686.78,-166C686.78,-166 492.5,-166 492.5,-166 486.5,-166 480.5,-160 480.5,-154 480.5,-154 480.5,-142 480.5,-142 480.5,-136 486.5,-130 492.5,-130 492.5,-130 686.78,-130 686.78,-130 692.78,-130 698.78,-136 698.78,-142 698.78,-142 698.78,-154 698.78,-154 698.78,-160 692.78,-166 686.78,-166"/>
<text xml:space="preserve" text-anchor="middle" x="589.64" y="-149.2" font-family="Helvetica,sans-Serif" font-size="9.00">Putnins, Natasha</text>
<text xml:space="preserve" text-anchor="middle" x="589.64" y="-139.45" font-family="Helvetica,sans-Serif" font-size="9.00">Director, Learning &amp; Organizational Development</text>
</g>
<!-- 86_Moghrabi,_Mona -->
<g id="node10" class="node">
<title>86_Moghrabi,_Mona</title>
<path fill="#f9f9f9" stroke="#555555" d="M1219.78,-36C1219.78,-36 1001.5,-36 1001.5,-36 995.5,-36 989.5,-30 989.5,-24 989.5,-24 989.5,-12 989.5,-12 989.5,-6 995.5,0 1001.5,0 1001.5,0 1219.78,0 1219.78,0 1225.78,0 1231.78,-6 1231.78,-12 1231.78,-12 1231.78,-24 1231.78,-24 1231.78,-30 1225.78,-36 1219.78,-36"/>
<text xml:space="preserve" text-anchor="middle" x="1110.64" y="-19.2" font-family="Helvetica,sans-Serif" font-size="9.00">Moghrabi, Mona</text>
<text xml:space="preserve" text-anchor="middle" x="1110.64" y="-9.45" font-family="Helvetica,sans-Serif" font-size="9.00">Assistant Director, HR Information System and Services</text>
</g>
<!-- 73_O&#39;Brien,_Charlotte_(On_Leave) -->
<g id="node11" class="node">
<title>73_O&#39;Brien,_Charlotte_(On_Leave)</title>
<path fill="#f9f9f9" stroke="#555555" d="M881.28,-101C881.28,-101 768,-101 768,-101 762,-101 756,-95 756,-89 756,-89 756,-77 756,-77 756,-71 762,-65 768,-65 768,-65 881.28,-65 881.28,-65 887.28,-65 893.28,-71 893.28,-77 893.28,-77 893.28,-89 893.28,-89 893.28,-95 887.28,-101 881.28,-101"/>
<text xml:space="preserve" text-anchor="middle" x="824.64" y="-84.2" font-family="Helvetica,sans-Serif" font-size="9.00">O&#39;Brien, Charlotte (On Leave)</text>
<text xml:space="preserve" text-anchor="middle" x="824.64" y="-74.45" font-family="Helvetica,sans-Serif" font-size="9.00">Head of Talent Acquisition</text>
</g>
<!-- 71_Mreish,_Amani -->
<g id="node12" class="node">
<title>71_Mreish,_Amani</title>
<path fill="#f9f9f9" stroke="#555555" d="M1092.4,-101C1092.4,-101 922.88,-101 922.88,-101 916.88,-101 910.88,-95 910.88,-89 910.88,-89 910.88,-77 910.88,-77 910.88,-71 916.88,-65 922.88,-65 922.88,-65 1092.4,-65 1092.4,-65 1098.4,-65 1104.4,-71 1104.4,-77 1104.4,-77 1104.4,-89 1104.4,-89 1104.4,-95 1098.4,-101 1092.4,-101"/>
<text xml:space="preserve" text-anchor="middle" x="1007.64" y="-84.2" font-family="Helvetica,sans-Serif" font-size="9.00">Mreish, Amani</text>
<text xml:space="preserve" text-anchor="middle" x="1007.64" y="-74.45" font-family="Helvetica,sans-Serif" font-size="9.00">Director, Compensation, Benefits and HRIS</text>
</g>
<!-- 71_Mreish,_Amani&#45;&gt;85_Ramos,_Jasmin_Oconer -->
<g id="edge11" class="edge">
<title>71_Mreish,_Amani&#45;&gt;85_Ramos,_Jasmin_Oconer</title>
<path fill="none" stroke="#888888" d="M941.01,-64.55C941.01,-64.55 941.01,-44.79 941.01,-44.79"/>
<polygon fill="#888888" stroke="#888888" points="943.47,-44.79 941.02,-37.79 938.57,-44.79 943.47,-44.79"/>
</g>
<!-- 71_Mreish,_Amani&#45;&gt;86_Moghrabi,_Mona -->
<g id="edge12" class="edge">
<title>71_Mreish,_Amani&#45;&gt;86_Moghrabi,_Mona</title>
<path fill="none" stroke="#888888" d="M1046.95,-64.55C1046.95,-64.55 1046.95,-44.79 1046.95,-44.79"/>
<polygon fill="#888888" stroke="#888888" points="1049.4,-44.79 1046.95,-37.79 1044.5,-44.79 1049.4,-44.79"/>
</g>
<!-- 8_Koyo,_Karl_Delors -->
<g id="node14" class="node">
<title>8_Koyo,_Karl_Delors</title>
<path fill="#f9f9f9" stroke="#555555" d="M917.4,-166C917.4,-166 729.88,-166 729.88,-166 723.88,-166 717.88,-160 717.88,-154 717.88,-154 717.88,-142 717.88,-142 717.88,-136 723.88,-130 729.88,-130 729.88,-130 917.4,-130 917.4,-130 923.4,-130 929.4,-136 929.4,-142 929.4,-142 929.4,-154 929.4,-154 929.4,-160 923.4,-166 917.4,-166"/>
<text xml:space="preserve" text-anchor="middle" x="823.64" y="-149.2" font-family="Helvetica,sans-Serif" font-size="9.00">Koyo, Karl Delors</text>
<text xml:space="preserve" text-anchor="middle" x="823.64" y="-139.45" font-family="Helvetica,sans-Serif" font-size="9.00">Executive Director, Strategic HR Transformation</text>
</g>
<!-- 8_Koyo,_Karl_Delors&#45;&gt;72_Arikat,_Suhair_Mohamed_Atta_Khalil -->
<g id="edge9" class="edge">
<title>8_Koyo,_Karl_Delors&#45;&gt;72_Arikat,_Suhair_Mohamed_Atta_Khalil</title>
<path fill="none" stroke="#888888" d="M727.89,-129.55C727.89,-129.55 727.89,-109.79 727.89,-109.79"/>
<polygon fill="#888888" stroke="#888888" points="730.34,-109.79 727.89,-102.79 725.44,-109.79 730.34,-109.79"/>
</g>
<!-- 8_Koyo,_Karl_Delors&#45;&gt;73_O&#39;Brien,_Charlotte_(On_Leave) -->
<g id="edge10" class="edge">
<title>8_Koyo,_Karl_Delors&#45;&gt;73_O&#39;Brien,_Charlotte_(On_Leave)</title>
<path fill="none" stroke="#888888" d="M824.64,-129.55C824.64,-129.55 824.64,-109.79 824.64,-109.79"/>
<polygon fill="#888888" stroke="#888888" points="827.09,-109.79 824.64,-102.79 822.19,-109.79 827.09,-109.79"/>
</g>
<!-- 8_Koyo,_Karl_Delors&#45;&gt;71_Mreish,_Amani -->
<g id="edge8" class="edge">
<title>8_Koyo,_Karl_Delors&#45;&gt;71_Mreish,_Amani</title>
<path fill="none" stroke="#888888" d="M920.14,-129.55C920.14,-129.55 920.14,-109.79 920.14,-109.79"/>
<polygon fill="#888888" stroke="#888888" points="922.59,-109.79 920.14,-102.79 917.69,-109.79 922.59,-109.79"/>
</g>
<!-- 0_AlNuaimi,_Rashed -->
<g id="node15" class="node">
<title>0_AlNuaimi,_Rashed</title>
<path fill="#e3f2fd" stroke="#555555" stroke-width="1.3" d="M541.4,-231C541.4,-231 383.88,-231 383.88,-231 377.88,-231 371.88,-225 371.88,-219 371.88,-219 371.88,-207 371.88,-207 371.88,-201 377.88,-195 383.88,-195 383.88,-195 541.4,-195 541.4,-195 547.4,-195 553.4,-201 553.4,-207 553.4,-207 553.4,-219 553.4,-219 553.4,-225 547.4,-231 541.4,-231"/>
<text xml:space="preserve" text-anchor="middle" x="462.64" y="-214.2" font-family="Helvetica,sans-Serif" font-size="9.00">AlNuaimi, Rashed</text>
<text xml:space="preserve" text-anchor="middle" x="462.64" y="-204.45" font-family="Helvetica,sans-Serif" font-size="9.00">Chief Human Resources Officer (CHRO)</text>
</g>
<!-- 0_AlNuaimi,_Rashed&#45;&gt;5_Moussoux,_Florence -->
<g id="edge1" class="edge">
<title>0_AlNuaimi,_Rashed&#45;&gt;5_Moussoux,_Florence</title>
<path fill="none" stroke="#888888" d="M371.45,-213C262.76,-213 95.64,-213 95.64,-213 95.64,-213 95.64,-174.97 95.64,-174.97"/>
<polygon fill="#888888" stroke="#888888" points="98.09,-174.97 95.64,-167.97 93.19,-174.97 98.09,-174.97"/>
</g>
<!-- 0_AlNuaimi,_Rashed&#45;&gt;6_Alamoodi,_Saif -->
<g id="edge2" class="edge">
<title>0_AlNuaimi,_Rashed&#45;&gt;6_Alamoodi,_Saif</title>
<path fill="none" stroke="#888888" d="M417.14,-194.55C417.14,-194.55 417.14,-174.79 417.14,-174.79"/>
<polygon fill="#888888" stroke="#888888" points="419.59,-174.79 417.14,-167.79 414.69,-174.79 419.59,-174.79"/>
</g>
<!-- 0_AlNuaimi,_Rashed&#45;&gt;7_Putnins,_Natasha -->
<g id="edge3" class="edge">
<title>0_AlNuaimi,_Rashed&#45;&gt;7_Putnins,_Natasha</title>
<path fill="none" stroke="#888888" d="M516.95,-194.55C516.95,-194.55 516.95,-174.79 516.95,-174.79"/>
<polygon fill="#888888" stroke="#888888" points="519.4,-174.79 516.95,-167.79 514.5,-174.79 519.4,-174.79"/>
</g>
<!-- 0_AlNuaimi,_Rashed&#45;&gt;8_Koyo,_Karl_Delors -->
<g id="edge4" class="edge">
<title>0_AlNuaimi,_Rashed&#45;&gt;8_Koyo,_Karl_Delors</title>
<path fill="none" stroke="#888888" d="M553.74,-213C660.68,-213 823.64,-213 823.64,-213 823.64,-213 823.64,-174.97 823.64,-174.97"/>
<polygon fill="#888888" stroke="#888888" points="826.09,-174.97 823.64,-167.97 821.19,-174.97 826.09,-174.97"/>
</g>
</g>
</svg>
