<?xml version="1.0" encoding="UTF-8" standalone="no"?>
<!DOCTYPE svg PUBLIC "-//W3C//DTD SVG 1.1//EN"
 "http://www.w3.org/Graphics/SVG/1.1/DTD/svg11.dtd">
<!-- Generated by graphviz version 13.1.2 (0)
 -->
<!-- Pages: 1 -->
<svg width="523pt" height="199pt"
 viewBox="4.00 4.00 519.00 195.00" xmlns="http://www.w3.org/2000/svg" xmlns:xlink="http://www.w3.org/1999/xlink">
<g id="graph0" class="graph" transform="scale(1 1) rotate(0) translate(10.8 188.05)">
<polygon fill="white" stroke="none" points="-7.2,7.2 -7.2,-184.45 508.23,-184.45 508.23,7.2 -7.2,7.2"/>
<text xml:space="preserve" text-anchor="middle" x="250.51" y="-163.75" font-family="Times,serif" font-size="10.00">Team of Arikat, Suhair Mohamed Atta Khalil</text>
<!-- 72_Arikat,_Suhair_Mohamed_Atta_Khalil -->
<g id="node1" class="node">
<title>72_Arikat,_Suhair_Mohamed_Atta_Khalil</title>
<path fill="#e3f2fd" stroke="#555555" d="M350.53,-158C350.53,-158 142,-158 142,-158 136,-158 130,-152 130,-146 130,-146 130,-134 130,-134 130,-128 136,-122 142,-122 142,-122 350.53,-122 350.53,-122 356.53,-122 362.53,-128 362.53,-134 362.53,-134 362.53,-146 362.53,-146 362.53,-152 356.53,-158 350.53,-158"/>
<text xml:space="preserve" text-anchor="middle" x="246.26" y="-141.2" font-family="Helvetica,sans-Serif" font-size="9.00">Arikat, Suhair Mohamed Atta Khalil</text>
<text xml:space="preserve" text-anchor="middle" x="246.26" y="-131.45" font-family="Helvetica,sans-Serif" font-size="9.00">Director, HR Business Partner &amp; Employee Relations</text>
</g>
<!-- 88_Issa,_Fatima -->
<g id="node2" class="node">
<title>88_Issa,_Fatima</title>
<path fill="#f9f9f9" stroke="#555555" d="M166.53,-97C166.53,-97 12,-97 12,-97 6,-97 0,-91 0,-85 0,-85 0,-73 0,-73 0,-67 6,-61 12,-61 12,-61 166.53,-61 166.53,-61 172.53,-61 178.53,-67 178.53,-73 178.53,-73 178.53,-85 178.53,-85 178.53,-91 172.53,-97 166.53,-97"/>
<text xml:space="preserve" text-anchor="middle" x="89.26" y="-80.2" font-family="Helvetica,sans-Serif" font-size="9.00">Issa, Fatima</text>
<text xml:space="preserve" text-anchor="middle" x="89.26" y="-70.45" font-family="Helvetica,sans-Serif" font-size="9.00">Assistant Director, HR Business Partner</text>
</g>
<!-- 72_Arikat,_Suhair_Mohamed_Atta_Khalil&#45;&gt;88_Issa,_Fatima -->
<g id="edge1" class="edge">
<title>72_Arikat,_Suhair_Mohamed_Atta_Khalil&#45;&gt;88_Issa,_Fatima</title>
<path fill="none" stroke="#aaaaaa" stroke-width="0.7" d="M154.26,-121.7C154.26,-121.7 154.26,-104.35 154.26,-104.35"/>
<polygon fill="#aaaaaa" stroke="#aaaaaa" stroke-width="0.7" points="156.37,-104.35 154.27,-98.35 152.17,-104.35 156.37,-104.35"/>
</g>
<!-- 89_Nyamanhindi,_Alvina -->
<g id="node3" class="node">
<title>89_Nyamanhindi,_Alvina</title>
<path fill="#f9f9f9" stroke="#555555" d="M287.9,-97C287.9,-97 204.62,-97 204.62,-97 198.62,-97 192.62,-91 192.62,-85 192.62,-85 192.62,-73 192.62,-73 192.62,-67 198.62,-61 204.62,-61 204.62,-61 287.9,-61 287.9,-61 293.9,-61 299.9,-67 299.9,-73 299.9,-73 299.9,-85 299.9,-85 299.9,-91 293.9,-97 287.9,-97"/>
<text xml:space="preserve" text-anchor="middle" x="246.26" y="-80.2" font-family="Helvetica,sans-Serif" font-size="9.00">Nyamanhindi, Alvina</text>
<text xml:space="preserve" text-anchor="middle" x="246.26" y="-70.45" font-family="Helvetica,sans-Serif" font-size="9.00">HR Services Manager</text>
</g>
<!-- 72_Arikat,_Suhair_Mohamed_Atta_Khalil&#45;&gt;89_Nyamanhindi,_Alvina -->
<g id="edge2" class="edge">
<title>72_Arikat,_Suhair_Mohamed_Atta_Khalil&#45;&gt;89_Nyamanhindi,_Alvina</title>
<path fill="none" stroke="#aaaaaa" stroke-width="0.7" d="M246.26,-121.7C246.26,-121.7 246.26,-104.35 246.26,-104.35"/>
<polygon fill="#aaaaaa" stroke="#aaaaaa" stroke-width="0.7" points="248.37,-104.35 246.27,-98.35 244.17,-104.35 248.37,-104.35"/>
</g>
<!-- 90_Alblooshi,_Majed_Nabeel_(ماجد_نبيل_البلوشي) -->
<g id="node4" class="node">
<title>90_Alblooshi,_Majed_Nabeel_(ماجد_نبيل_البلوشي)</title>
<path fill="#f9f9f9" stroke="#555555" d="M489.03,-97C489.03,-97 325.5,-97 325.5,-97 319.5,-97 313.5,-91 313.5,-85 313.5,-85 313.5,-73 313.5,-73 313.5,-67 319.5,-61 325.5,-61 325.5,-61 489.03,-61 489.03,-61 495.03,-61 501.03,-67 501.03,-73 501.03,-73 501.03,-85 501.03,-85 501.03,-91 495.03,-97 489.03,-97"/>
<text xml:space="preserve" text-anchor="middle" x="407.26" y="-80.95" font-family="Helvetica,sans-Serif" font-size="9.00">Alblooshi, Majed Nabeel (ماجد نبيل البلوشي)</text>
<text xml:space="preserve" text-anchor="middle" x="407.26" y="-69.7" font-family="Helvetica,sans-Serif" font-size="9.00">Human Resources Business Partner</text>
</g>
<!-- 72_Arikat,_Suhair_Mohamed_Atta_Khalil&#45;&gt;90_Alblooshi,_Majed_Nabeel_(ماجد_نبيل_البلوشي) -->
<g id="edge3" class="edge">
<title>72_Arikat,_Suhair_Mohamed_Atta_Khalil&#45;&gt;90_Alblooshi,_Majed_Nabeel_(ماجد_نبيل_البلوشي)</title>
<path fill="none" stroke="#aaaaaa" stroke-width="0.7" d="M338.01,-121.7C338.01,-121.7 338.01,-104.35 338.01,-104.35"/>
<polygon fill="#aaaaaa" stroke="#aaaaaa" stroke-width="0.7" points="340.12,-104.35 338.02,-98.35 335.92,-104.35 340.12,-104.35"/>
</g>
<!-- 98_Young,_Tessa -->
<g id="node5" class="node">
<title>98_Young,_Tessa</title>
<path fill="#ffffff" stroke="#555555" d="M113.65,-36C113.65,-36 64.87,-36 64.87,-36 58.87,-36 52.87,-30 52.87,-24 52.87,-24 52.87,-12 52.87,-12 52.87,-6 58.87,0 64.87,0 64.87,0 113.65,0 113.65,0 119.65,0 125.65,-6 125.65,-12 125.65,-12 125.65,-24 125.65,-24 125.65,-30 119.65,-36 113.65,-36"/>
<text xml:space="preserve" text-anchor="middle" x="89.26" y="-19.2" font-family="Helvetica,sans-Serif" font-size="9.00">Young, Tessa</text>
<text xml:space="preserve" text-anchor="middle" x="89.26" y="-9.45" font-family="Helvetica,sans-Serif" font-size="9.00">HR Specialist</text>
</g>
<!-- 88_Issa,_Fatima&#45;&gt;98_Young,_Tessa -->
<g id="edge4" class="edge">
<title>88_Issa,_Fatima&#45;&gt;98_Young,_Tessa</title>
<path fill="none" stroke="#aaaaaa" stroke-width="0.7" d="M89.26,-60.7C89.26,-60.7 89.26,-43.35 89.26,-43.35"/>
<polygon fill="#aaaaaa" stroke="#aaaaaa" stroke-width="0.7" points="91.37,-43.35 89.27,-37.35 87.17,-43.35 91.37,-43.35"/>
</g>
<!-- 99_Santos,_Erika -->
<g id="node6" class="node">
<title>99_Santos,_Erika</title>
<path fill="#ffffff" stroke="#555555" d="M300.65,-36C300.65,-36 191.88,-36 191.88,-36 185.88,-36 179.88,-30 179.88,-24 179.88,-24 179.88,-12 179.88,-12 179.88,-6 185.88,0 191.88,0 191.88,0 300.65,0 300.65,0 306.65,0 312.65,-6 312.65,-12 312.65,-12 312.65,-24 312.65,-24 312.65,-30 306.65,-36 300.65,-36"/>
<text xml:space="preserve" text-anchor="middle" x="246.26" y="-19.2" font-family="Helvetica,sans-Serif" font-size="9.00">Santos, Erika</text>
<text xml:space="preserve" text-anchor="middle" x="246.26" y="-9.45" font-family="Helvetica,sans-Serif" font-size="9.00">Human Resources Assistant</text>
</g>
<!-- 89_Nyamanhindi,_Alvina&#45;&gt;99_Santos,_Erika -->
<g id="edge5" class="edge">
<title>89_Nyamanhindi,_Alvina&#45;&gt;99_Santos,_Erika</title>
<path fill="none" stroke="#aaaaaa" stroke-width="0.7" d="M246.26,-60.7C246.26,-60.7 246.26,-43.35 246.26,-43.35"/>
<polygon fill="#aaaaaa" stroke="#aaaaaa" stroke-width="0.7" points="248.37,-43.35 246.27,-37.35 244.17,-43.35 248.37,-43.35"/>
</g>
</g>
</svg>
