<?xml version="1.0" encoding="UTF-8" standalone="no"?>
<!DOCTYPE svg PUBLIC "-//W3C//DTD SVG 1.1//EN"
 "http://www.w3.org/Graphics/SVG/1.1/DTD/svg11.dtd">
<!-- Generated by graphviz version 13.1.2 (0)
 -->
<!-- Pages: 1 -->
<svg width="1861pt" height="199pt"
 viewBox="4.00 4.00 1858.00 195.00" xmlns="http://www.w3.org/2000/svg" xmlns:xlink="http://www.w3.org/1999/xlink">
<g id="graph0" class="graph" transform="scale(1 1) rotate(0) translate(10.8 188.05)">
<polygon fill="white" stroke="none" points="-7.2,7.2 -7.2,-184.45 1846.98,-184.45 1846.98,7.2 -7.2,7.2"/>
<text xml:space="preserve" text-anchor="middle" x="919.89" y="-163.75" font-family="Times,serif" font-size="10.00">Team of Alamoodi, Saif</text>
<!-- 6_Alamoodi,_Saif -->
<g id="node1" class="node">
<title>6_Alamoodi,_Saif</title>
<path fill="#e3f2fd" stroke="#555555" d="M1212.66,-158C1212.66,-158 983.13,-158 983.13,-158 977.13,-158 971.13,-152 971.13,-146 971.13,-146 971.13,-134 971.13,-134 971.13,-128 977.13,-122 983.13,-122 983.13,-122 1212.66,-122 1212.66,-122 1218.66,-122 1224.66,-128 1224.66,-134 1224.66,-134 1224.66,-146 1224.66,-146 1224.66,-152 1218.66,-158 1212.66,-158"/>
<text xml:space="preserve" text-anchor="middle" x="1097.89" y="-141.2" font-family="Helvetica,sans-Serif" font-size="9.00">Alamoodi, Saif</text>
<text xml:space="preserve" text-anchor="middle" x="1097.89" y="-131.45" font-family="Helvetica,sans-Serif" font-size="9.00">Director, Government Relations and Immigration &#160;Services</text>
</g>
<!-- 64_Alhosani,_Yaaqoub -->
<g id="node2" class="node">
<title>64_Alhosani,_Yaaqoub</title>
<path fill="#f9f9f9" stroke="#555555" d="M463.53,-97C463.53,-97 362.25,-97 362.25,-97 356.25,-97 350.25,-91 350.25,-85 350.25,-85 350.25,-73 350.25,-73 350.25,-67 356.25,-61 362.25,-61 362.25,-61 463.53,-61 463.53,-61 469.53,-61 475.53,-67 475.53,-73 475.53,-73 475.53,-85 475.53,-85 475.53,-91 469.53,-97 463.53,-97"/>
<text xml:space="preserve" text-anchor="middle" x="412.89" y="-80.2" font-family="Helvetica,sans-Serif" font-size="9.00">Alhosani, Yaaqoub</text>
<text xml:space="preserve" text-anchor="middle" x="412.89" y="-70.45" font-family="Helvetica,sans-Serif" font-size="9.00">Manager, Public Relations</text>
</g>
<!-- 6_Alamoodi,_Saif&#45;&gt;64_Alhosani,_Yaaqoub -->
<g id="edge1" class="edge">
<title>6_Alamoodi,_Saif&#45;&gt;64_Alhosani,_Yaaqoub</title>
<path fill="none" stroke="#aaaaaa" stroke-width="0.7" d="M976.84,-121.67C976.84,-107.4 976.84,-90 976.84,-90 976.84,-90 483,-90 483,-90"/>
<polygon fill="#aaaaaa" stroke="#aaaaaa" stroke-width="0.7" points="483,-87.9 477,-90 483,-92.1 483,-87.9"/>
</g>
<!-- 66_(2)_Managers -->
<g id="node3" class="node">
<title>66_(2)_Managers</title>
<path fill="#f9f9f9" stroke="#555555" d="M1121.91,-97C1121.91,-97 1073.88,-97 1073.88,-97 1067.88,-97 1061.88,-91 1061.88,-85 1061.88,-85 1061.88,-73 1061.88,-73 1061.88,-67 1067.88,-61 1073.88,-61 1073.88,-61 1121.91,-61 1121.91,-61 1127.91,-61 1133.91,-67 1133.91,-73 1133.91,-73 1133.91,-85 1133.91,-85 1133.91,-91 1127.91,-97 1121.91,-97"/>
<text xml:space="preserve" text-anchor="middle" x="1097.89" y="-75.33" font-family="Helvetica,sans-Serif" font-size="9.00">(2) Managers</text>
</g>
<!-- 6_Alamoodi,_Saif&#45;&gt;66_(2)_Managers -->
<g id="edge2" class="edge">
<title>6_Alamoodi,_Saif&#45;&gt;66_(2)_Managers</title>
<path fill="none" stroke="#aaaaaa" stroke-width="0.7" d="M1097.89,-121.7C1097.89,-121.7 1097.89,-104.35 1097.89,-104.35"/>
<polygon fill="#aaaaaa" stroke="#aaaaaa" stroke-width="0.7" points="1099.99,-104.35 1097.89,-98.35 1095.79,-104.35 1099.99,-104.35"/>
</g>
<!-- 67_Gameel,_Saru -->
<g id="node4" class="node">
<title>67_Gameel,_Saru</title>
<path fill="#f9f9f9" stroke="#555555" d="M1569.28,-97C1569.28,-97 1418.5,-97 1418.5,-97 1412.5,-97 1406.5,-91 1406.5,-85 1406.5,-85 1406.5,-73 1406.5,-73 1406.5,-67 1412.5,-61 1418.5,-61 1418.5,-61 1569.28,-61 1569.28,-61 1575.28,-61 1581.28,-67 1581.28,-73 1581.28,-73 1581.28,-85 1581.28,-85 1581.28,-91 1575.28,-97 1569.28,-97"/>
<text xml:space="preserve" text-anchor="middle" x="1493.89" y="-80.2" font-family="Helvetica,sans-Serif" font-size="9.00">Gameel, Saru</text>
<text xml:space="preserve" text-anchor="middle" x="1493.89" y="-70.45" font-family="Helvetica,sans-Serif" font-size="9.00">Assistant Director, Relocation Services</text>
</g>
<!-- 6_Alamoodi,_Saif&#45;&gt;67_Gameel,_Saru -->
<g id="edge3" class="edge">
<title>6_Alamoodi,_Saif&#45;&gt;67_Gameel,_Saru</title>
<path fill="none" stroke="#aaaaaa" stroke-width="0.7" d="M1219.1,-121.52C1219.1,-106.57 1219.1,-88 1219.1,-88 1219.1,-88 1399.13,-88 1399.13,-88"/>
<polygon fill="#aaaaaa" stroke="#aaaaaa" stroke-width="0.7" points="1399.13,-90.1 1405.13,-88 1399.13,-85.9 1399.13,-90.1"/>
</g>
<!-- 74_Alhameli,_Falah -->
<g id="node5" class="node">
<title>74_Alhameli,_Falah</title>
<path fill="#ffffff" stroke="#555555" d="M141.78,-36C141.78,-36 12,-36 12,-36 6,-36 0,-30 0,-24 0,-24 0,-12 0,-12 0,-6 6,0 12,0 12,0 141.78,0 141.78,0 147.78,0 153.78,-6 153.78,-12 153.78,-12 153.78,-24 153.78,-24 153.78,-30 147.78,-36 141.78,-36"/>
<text xml:space="preserve" text-anchor="middle" x="76.89" y="-19.2" font-family="Helvetica,sans-Serif" font-size="9.00">Alhameli, Falah</text>
<text xml:space="preserve" text-anchor="middle" x="76.89" y="-9.45" font-family="Helvetica,sans-Serif" font-size="9.00">Immigration Services Coordinator</text>
</g>
<!-- 64_Alhosani,_Yaaqoub&#45;&gt;74_Alhameli,_Falah -->
<g id="edge4" class="edge">
<title>64_Alhosani,_Yaaqoub&#45;&gt;74_Alhameli,_Falah</title>
<path fill="none" stroke="#aaaaaa" stroke-width="0.7" d="M350.09,-85C252.83,-85 76.89,-85 76.89,-85 76.89,-85 76.89,-43.37 76.89,-43.37"/>
<polygon fill="#aaaaaa" stroke="#aaaaaa" stroke-width="0.7" points="78.99,-43.37 76.89,-37.37 74.79,-43.37 78.99,-43.37"/>
</g>
<!-- 75_Aljaberi,_Alyazia -->
<g id="node6" class="node">
<title>75_Aljaberi,_Alyazia</title>
<path fill="#ffffff" stroke="#555555" d="M309.78,-36C309.78,-36 180,-36 180,-36 174,-36 168,-30 168,-24 168,-24 168,-12 168,-12 168,-6 174,0 180,0 180,0 309.78,0 309.78,0 315.78,0 321.78,-6 321.78,-12 321.78,-12 321.78,-24 321.78,-24 321.78,-30 315.78,-36 309.78,-36"/>
<text xml:space="preserve" text-anchor="middle" x="244.89" y="-19.2" font-family="Helvetica,sans-Serif" font-size="9.00">Aljaberi, Alyazia</text>
<text xml:space="preserve" text-anchor="middle" x="244.89" y="-9.45" font-family="Helvetica,sans-Serif" font-size="9.00">Immigration Services Coordinator</text>
</g>
<!-- 64_Alhosani,_Yaaqoub&#45;&gt;75_Aljaberi,_Alyazia -->
<g id="edge5" class="edge">
<title>64_Alhosani,_Yaaqoub&#45;&gt;75_Aljaberi,_Alyazia</title>
<path fill="none" stroke="#aaaaaa" stroke-width="0.7" d="M349.86,-73C302.18,-73 244.89,-73 244.89,-73 244.89,-73 244.89,-43.37 244.89,-43.37"/>
<polygon fill="#aaaaaa" stroke="#aaaaaa" stroke-width="0.7" points="246.99,-43.37 244.89,-37.37 242.79,-43.37 246.99,-43.37"/>
</g>
<!-- 76_Almansoori,_Maitha -->
<g id="node7" class="node">
<title>76_Almansoori,_Maitha</title>
<path fill="#ffffff" stroke="#555555" d="M477.78,-36C477.78,-36 348,-36 348,-36 342,-36 336,-30 336,-24 336,-24 336,-12 336,-12 336,-6 342,0 348,0 348,0 477.78,0 477.78,0 483.78,0 489.78,-6 489.78,-12 489.78,-12 489.78,-24 489.78,-24 489.78,-30 483.78,-36 477.78,-36"/>
<text xml:space="preserve" text-anchor="middle" x="412.89" y="-19.2" font-family="Helvetica,sans-Serif" font-size="9.00">Almansoori, Maitha</text>
<text xml:space="preserve" text-anchor="middle" x="412.89" y="-9.45" font-family="Helvetica,sans-Serif" font-size="9.00">Immigration Services Coordinator</text>
</g>
<!-- 64_Alhosani,_Yaaqoub&#45;&gt;76_Almansoori,_Maitha -->
<g id="edge6" class="edge">
<title>64_Alhosani,_Yaaqoub&#45;&gt;76_Almansoori,_Maitha</title>
<path fill="none" stroke="#aaaaaa" stroke-width="0.7" d="M412.89,-60.7C412.89,-60.7 412.89,-43.35 412.89,-43.35"/>
<polygon fill="#aaaaaa" stroke="#aaaaaa" stroke-width="0.7" points="414.99,-43.35 412.89,-37.35 410.79,-43.35 414.99,-43.35"/>
</g>
<!-- 77_Nasser,_Feras_Obaid_Al -->
<g id="node8" class="node">
<title>77_Nasser,_Feras_Obaid_Al</title>
<path fill="#ffffff" stroke="#555555" d="M658.16,-36C658.16,-36 515.63,-36 515.63,-36 509.63,-36 503.63,-30 503.63,-24 503.63,-24 503.63,-12 503.63,-12 503.63,-6 509.63,0 515.63,0 515.63,0 658.16,0 658.16,0 664.16,0 670.16,-6 670.16,-12 670.16,-12 670.16,-24 670.16,-24 670.16,-30 664.16,-36 658.16,-36"/>
<text xml:space="preserve" text-anchor="middle" x="586.89" y="-19.2" font-family="Helvetica,sans-Serif" font-size="9.00">Nasser, Feras Obaid Al</text>
<text xml:space="preserve" text-anchor="middle" x="586.89" y="-9.45" font-family="Helvetica,sans-Serif" font-size="9.00">Senior PRO &amp; Immigration Specialist</text>
</g>
<!-- 64_Alhosani,_Yaaqoub&#45;&gt;77_Nasser,_Feras_Obaid_Al -->
<g id="edge7" class="edge">
<title>64_Alhosani,_Yaaqoub&#45;&gt;77_Nasser,_Feras_Obaid_Al</title>
<path fill="none" stroke="#aaaaaa" stroke-width="0.7" d="M475.71,-68C525.55,-68 586.89,-68 586.89,-68 586.89,-68 586.89,-43.39 586.89,-43.39"/>
<polygon fill="#aaaaaa" stroke="#aaaaaa" stroke-width="0.7" points="588.99,-43.39 586.89,-37.39 584.79,-43.39 588.99,-43.39"/>
</g>
<!-- 78_Alhajri,_Asma -->
<g id="node9" class="node">
<title>78_Alhajri,_Asma</title>
<path fill="#ffffff" stroke="#555555" d="M817.28,-36C817.28,-36 696.5,-36 696.5,-36 690.5,-36 684.5,-30 684.5,-24 684.5,-24 684.5,-12 684.5,-12 684.5,-6 690.5,0 696.5,0 696.5,0 817.28,0 817.28,0 823.28,0 829.28,-6 829.28,-12 829.28,-12 829.28,-24 829.28,-24 829.28,-30 823.28,-36 817.28,-36"/>
<text xml:space="preserve" text-anchor="middle" x="756.89" y="-19.2" font-family="Helvetica,sans-Serif" font-size="9.00">Alhajri, Asma</text>
<text xml:space="preserve" text-anchor="middle" x="756.89" y="-9.45" font-family="Helvetica,sans-Serif" font-size="9.00">Immigration Services Specialist</text>
</g>
<!-- 66_(2)_Managers&#45;&gt;78_Alhajri,_Asma -->
<g id="edge8" class="edge">
<title>66_(2)_Managers&#45;&gt;78_Alhajri,_Asma</title>
<path fill="none" stroke="#aaaaaa" stroke-width="0.7" d="M1061.4,-83C973.43,-83 756.89,-83 756.89,-83 756.89,-83 756.89,-43.51 756.89,-43.51"/>
<polygon fill="#aaaaaa" stroke="#aaaaaa" stroke-width="0.7" points="758.99,-43.51 756.89,-37.51 754.79,-43.51 758.99,-43.51"/>
</g>
<!-- 79_Alhosani,_Maryam -->
<g id="node10" class="node">
<title>79_Alhosani,_Maryam</title>
<path fill="#ffffff" stroke="#555555" d="M976.28,-36C976.28,-36 855.5,-36 855.5,-36 849.5,-36 843.5,-30 843.5,-24 843.5,-24 843.5,-12 843.5,-12 843.5,-6 849.5,0 855.5,0 855.5,0 976.28,0 976.28,0 982.28,0 988.28,-6 988.28,-12 988.28,-12 988.28,-24 988.28,-24 988.28,-30 982.28,-36 976.28,-36"/>
<text xml:space="preserve" text-anchor="middle" x="915.89" y="-19.2" font-family="Helvetica,sans-Serif" font-size="9.00">Alhosani, Maryam</text>
<text xml:space="preserve" text-anchor="middle" x="915.89" y="-9.45" font-family="Helvetica,sans-Serif" font-size="9.00">Immigration Services Specialist</text>
</g>
<!-- 66_(2)_Managers&#45;&gt;79_Alhosani,_Maryam -->
<g id="edge9" class="edge">
<title>66_(2)_Managers&#45;&gt;79_Alhosani,_Maryam</title>
<path fill="none" stroke="#aaaaaa" stroke-width="0.7" d="M1061.4,-75C1027.61,-75 982.56,-75 982.56,-75 982.56,-75 982.56,-43.41 982.56,-43.41"/>
<polygon fill="#aaaaaa" stroke="#aaaaaa" stroke-width="0.7" points="984.66,-43.41 982.56,-37.41 980.46,-43.41 984.66,-43.41"/>
</g>
<!-- 80_AlNahdi,_Zayed_QahtanSaleh -->
<g id="node11" class="node">
<title>80_AlNahdi,_Zayed_QahtanSaleh</title>
<path fill="#ffffff" stroke="#555555" d="M1181.91,-36C1181.91,-36 1013.88,-36 1013.88,-36 1007.88,-36 1001.88,-30 1001.88,-24 1001.88,-24 1001.88,-12 1001.88,-12 1001.88,-6 1007.88,0 1013.88,0 1013.88,0 1181.91,0 1181.91,0 1187.91,0 1193.91,-6 1193.91,-12 1193.91,-12 1193.91,-24 1193.91,-24 1193.91,-30 1187.91,-36 1181.91,-36"/>
<text xml:space="preserve" text-anchor="middle" x="1097.89" y="-19.2" font-family="Helvetica,sans-Serif" font-size="9.00">AlNahdi, Zayed QahtanSaleh</text>
<text xml:space="preserve" text-anchor="middle" x="1097.89" y="-9.45" font-family="Helvetica,sans-Serif" font-size="9.00">Immigration Services Operations Specialist</text>
</g>
<!-- 66_(2)_Managers&#45;&gt;80_AlNahdi,_Zayed_QahtanSaleh -->
<g id="edge10" class="edge">
<title>66_(2)_Managers&#45;&gt;80_AlNahdi,_Zayed_QahtanSaleh</title>
<path fill="none" stroke="#aaaaaa" stroke-width="0.7" d="M1097.89,-60.7C1097.89,-60.7 1097.89,-43.35 1097.89,-43.35"/>
<polygon fill="#aaaaaa" stroke="#aaaaaa" stroke-width="0.7" points="1099.99,-43.35 1097.89,-37.35 1095.79,-43.35 1099.99,-43.35"/>
</g>
<!-- 81_Alqubaisi,_Mera_Eid -->
<g id="node12" class="node">
<title>81_Alqubaisi,_Mera_Eid</title>
<path fill="#ffffff" stroke="#555555" d="M1349.78,-36C1349.78,-36 1220,-36 1220,-36 1214,-36 1208,-30 1208,-24 1208,-24 1208,-12 1208,-12 1208,-6 1214,0 1220,0 1220,0 1349.78,0 1349.78,0 1355.78,0 1361.78,-6 1361.78,-12 1361.78,-12 1361.78,-24 1361.78,-24 1361.78,-30 1355.78,-36 1349.78,-36"/>
<text xml:space="preserve" text-anchor="middle" x="1284.89" y="-19.2" font-family="Helvetica,sans-Serif" font-size="9.00">Alqubaisi, Mera Eid</text>
<text xml:space="preserve" text-anchor="middle" x="1284.89" y="-9.45" font-family="Helvetica,sans-Serif" font-size="9.00">Immigration Services Coordinator</text>
</g>
<!-- 66_(2)_Managers&#45;&gt;81_Alqubaisi,_Mera_Eid -->
<g id="edge11" class="edge">
<title>66_(2)_Managers&#45;&gt;81_Alqubaisi,_Mera_Eid</title>
<path fill="none" stroke="#aaaaaa" stroke-width="0.7" d="M1134.17,-70C1168.09,-70 1213.55,-70 1213.55,-70 1213.55,-70 1213.55,-43.54 1213.55,-43.54"/>
<polygon fill="#aaaaaa" stroke="#aaaaaa" stroke-width="0.7" points="1215.65,-43.54 1213.55,-37.54 1211.45,-43.54 1215.65,-43.54"/>
</g>
<!-- 82_Mohamed,_Nouf -->
<g id="node13" class="node">
<title>82_Mohamed,_Nouf</title>
<path fill="#ffffff" stroke="#555555" d="M1642.41,-36C1642.41,-36 1387.38,-36 1387.38,-36 1381.38,-36 1375.38,-30 1375.38,-24 1375.38,-24 1375.38,-12 1375.38,-12 1375.38,-6 1381.38,0 1387.38,0 1387.38,0 1642.41,0 1642.41,0 1648.41,0 1654.41,-6 1654.41,-12 1654.41,-12 1654.41,-24 1654.41,-24 1654.41,-30 1648.41,-36 1642.41,-36"/>
<text xml:space="preserve" text-anchor="middle" x="1514.89" y="-19.2" font-family="Helvetica,sans-Serif" font-size="9.00">Mohamed, Nouf</text>
<text xml:space="preserve" text-anchor="middle" x="1514.89" y="-9.45" font-family="Helvetica,sans-Serif" font-size="9.00">Operations and Communication Specialist, Immigration Services</text>
</g>
<!-- 66_(2)_Managers&#45;&gt;82_Mohamed,_Nouf -->
<g id="edge12" class="edge">
<title>66_(2)_Managers&#45;&gt;82_Mohamed,_Nouf</title>
<path fill="none" stroke="#aaaaaa" stroke-width="0.7" d="M1134.12,-79C1212.52,-79 1390.94,-79 1390.94,-79 1390.94,-79 1390.94,-43.36 1390.94,-43.36"/>
<polygon fill="#aaaaaa" stroke="#aaaaaa" stroke-width="0.7" points="1393.04,-43.36 1390.94,-37.36 1388.84,-43.36 1393.04,-43.36"/>
</g>
<!-- 83_Balasubramanian,_Ram_Mohan -->
<g id="node14" class="node">
<title>83_Balasubramanian,_Ram_Mohan</title>
<path fill="#ffffff" stroke="#555555" d="M1827.78,-36C1827.78,-36 1680,-36 1680,-36 1674,-36 1668,-30 1668,-24 1668,-24 1668,-12 1668,-12 1668,-6 1674,0 1680,0 1680,0 1827.78,0 1827.78,0 1833.78,0 1839.78,-6 1839.78,-12 1839.78,-12 1839.78,-24 1839.78,-24 1839.78,-30 1833.78,-36 1827.78,-36"/>
<text xml:space="preserve" text-anchor="middle" x="1753.89" y="-19.2" font-family="Helvetica,sans-Serif" font-size="9.00">Balasubramanian, Ram Mohan</text>
<text xml:space="preserve" text-anchor="middle" x="1753.89" y="-9.45" font-family="Helvetica,sans-Serif" font-size="9.00">Employee Mobility Services Specialist</text>
</g>
<!-- 67_Gameel,_Saru&#45;&gt;83_Balasubramanian,_Ram_Mohan -->
<g id="edge13" class="edge">
<title>67_Gameel,_Saru&#45;&gt;83_Balasubramanian,_Ram_Mohan</title>
<path fill="none" stroke="#aaaaaa" stroke-width="0.7" d="M1581.55,-79C1657.03,-79 1753.89,-79 1753.89,-79 1753.89,-79 1753.89,-43.36 1753.89,-43.36"/>
<polygon fill="#aaaaaa" stroke="#aaaaaa" stroke-width="0.7" points="1755.99,-43.36 1753.89,-37.36 1751.79,-43.36 1755.99,-43.36"/>
</g>
</g>
</svg>
