<?xml version="1.0" encoding="UTF-8" standalone="no"?>
<!DOCTYPE svg PUBLIC "-//W3C//DTD SVG 1.1//EN"
 "http://www.w3.org/Graphics/SVG/1.1/DTD/svg11.dtd">
<!-- Generated by graphviz version 13.1.2 (0)
 -->
<!-- Pages: 1 -->
<svg width="598pt" height="138pt"
 viewBox="4.00 4.00 594.00 134.00" xmlns="http://www.w3.org/2000/svg" xmlns:xlink="http://www.w3.org/1999/xlink">
<g id="graph0" class="graph" transform="scale(1 1) rotate(0) translate(10.8 127.05)">
<polygon fill="white" stroke="none" points="-7.2,7.2 -7.2,-123.45 583.48,-123.45 583.48,7.2 -7.2,7.2"/>
<text xml:space="preserve" text-anchor="middle" x="288.14" y="-102.75" font-family="Times,serif" font-size="10.00">Team of O&#39;Brien, Charlotte (On Leave)</text>
<!-- 73_O&#39;Brien,_Charlotte_(On_Leave) -->
<g id="node1" class="node">
<title>73_O&#39;Brien,_Charlotte_(On_Leave)</title>
<path fill="#e3f2fd" stroke="#555555" d="M342.28,-97C342.28,-97 229,-97 229,-97 223,-97 217,-91 217,-85 217,-85 217,-73 217,-73 217,-67 223,-61 229,-61 229,-61 342.28,-61 342.28,-61 348.28,-61 354.28,-67 354.28,-73 354.28,-73 354.28,-85 354.28,-85 354.28,-91 348.28,-97 342.28,-97"/>
<text xml:space="preserve" text-anchor="middle" x="285.64" y="-80.2" font-family="Helvetica,sans-Serif" font-size="9.00">O&#39;Brien, Charlotte (On Leave)</text>
<text xml:space="preserve" text-anchor="middle" x="285.64" y="-70.45" font-family="Helvetica,sans-Serif" font-size="9.00">Head of Talent Acquisition</text>
</g>
<!-- 92_Aniciete,_Margie_Navarro -->
<g id="node2" class="node">
<title>92_Aniciete,_Margie_Navarro</title>
<path fill="#f9f9f9" stroke="#555555" d="M119.28,-36C119.28,-36 12,-36 12,-36 6,-36 0,-30 0,-24 0,-24 0,-12 0,-12 0,-6 6,0 12,0 12,0 119.28,0 119.28,0 125.28,0 131.28,-6 131.28,-12 131.28,-12 131.28,-24 131.28,-24 131.28,-30 125.28,-36 119.28,-36"/>
<text xml:space="preserve" text-anchor="middle" x="65.64" y="-19.2" font-family="Helvetica,sans-Serif" font-size="9.00">Aniciete, Margie Navarro</text>
<text xml:space="preserve" text-anchor="middle" x="65.64" y="-9.45" font-family="Helvetica,sans-Serif" font-size="9.00">Talent Acquisition Specialist</text>
</g>
<!-- 73_O&#39;Brien,_Charlotte_(On_Leave)&#45;&gt;92_Aniciete,_Margie_Navarro -->
<g id="edge1" class="edge">
<title>73_O&#39;Brien,_Charlotte_(On_Leave)&#45;&gt;92_Aniciete,_Margie_Navarro</title>
<path fill="none" stroke="#aaaaaa" stroke-width="0.7" d="M216.63,-79C152.12,-79 65.64,-79 65.64,-79 65.64,-79 65.64,-43.36 65.64,-43.36"/>
<polygon fill="#aaaaaa" stroke="#aaaaaa" stroke-width="0.7" points="67.74,-43.36 65.64,-37.36 63.54,-43.36 67.74,-43.36"/>
</g>
<!-- 93_Baker,_Stacey_Alana -->
<g id="node3" class="node">
<title>93_Baker,_Stacey_Alana</title>
<path fill="#f9f9f9" stroke="#555555" d="M264.28,-36C264.28,-36 157,-36 157,-36 151,-36 145,-30 145,-24 145,-24 145,-12 145,-12 145,-6 151,0 157,0 157,0 264.28,0 264.28,0 270.28,0 276.28,-6 276.28,-12 276.28,-12 276.28,-24 276.28,-24 276.28,-30 270.28,-36 264.28,-36"/>
<text xml:space="preserve" text-anchor="middle" x="210.64" y="-19.2" font-family="Helvetica,sans-Serif" font-size="9.00">Baker, Stacey Alana</text>
<text xml:space="preserve" text-anchor="middle" x="210.64" y="-9.45" font-family="Helvetica,sans-Serif" font-size="9.00">Talent Acquisition Specialist</text>
</g>
<!-- 73_O&#39;Brien,_Charlotte_(On_Leave)&#45;&gt;93_Baker,_Stacey_Alana -->
<g id="edge2" class="edge">
<title>73_O&#39;Brien,_Charlotte_(On_Leave)&#45;&gt;93_Baker,_Stacey_Alana</title>
<path fill="none" stroke="#aaaaaa" stroke-width="0.7" d="M246.64,-60.7C246.64,-60.7 246.64,-43.35 246.64,-43.35"/>
<polygon fill="#aaaaaa" stroke="#aaaaaa" stroke-width="0.7" points="248.74,-43.35 246.64,-37.35 244.54,-43.35 248.74,-43.35"/>
</g>
<!-- 94_Da_Cruz,_Amanda -->
<g id="node4" class="node">
<title>94_Da_Cruz,_Amanda</title>
<path fill="#f9f9f9" stroke="#555555" d="M418.78,-36C418.78,-36 302.5,-36 302.5,-36 296.5,-36 290.5,-30 290.5,-24 290.5,-24 290.5,-12 290.5,-12 290.5,-6 296.5,0 302.5,0 302.5,0 418.78,0 418.78,0 424.78,0 430.78,-6 430.78,-12 430.78,-12 430.78,-24 430.78,-24 430.78,-30 424.78,-36 418.78,-36"/>
<text xml:space="preserve" text-anchor="middle" x="360.64" y="-19.2" font-family="Helvetica,sans-Serif" font-size="9.00">Da Cruz, Amanda</text>
<text xml:space="preserve" text-anchor="middle" x="360.64" y="-9.45" font-family="Helvetica,sans-Serif" font-size="9.00">Talent Acquisition Coordinator</text>
</g>
<!-- 73_O&#39;Brien,_Charlotte_(On_Leave)&#45;&gt;94_Da_Cruz,_Amanda -->
<g id="edge3" class="edge">
<title>73_O&#39;Brien,_Charlotte_(On_Leave)&#45;&gt;94_Da_Cruz,_Amanda</title>
<path fill="none" stroke="#aaaaaa" stroke-width="0.7" d="M322.39,-60.7C322.39,-60.7 322.39,-43.35 322.39,-43.35"/>
<polygon fill="#aaaaaa" stroke="#aaaaaa" stroke-width="0.7" points="324.49,-43.35 322.39,-37.35 320.29,-43.35 324.49,-43.35"/>
</g>
<!-- 95_Fikree,_Shurooq -->
<g id="node5" class="node">
<title>95_Fikree,_Shurooq</title>
<path fill="#f9f9f9" stroke="#555555" d="M564.28,-36C564.28,-36 457,-36 457,-36 451,-36 445,-30 445,-24 445,-24 445,-12 445,-12 445,-6 451,0 457,0 457,0 564.28,0 564.28,0 570.28,0 576.28,-6 576.28,-12 576.28,-12 576.28,-24 576.28,-24 576.28,-30 570.28,-36 564.28,-36"/>
<text xml:space="preserve" text-anchor="middle" x="510.64" y="-19.2" font-family="Helvetica,sans-Serif" font-size="9.00">Fikree, Shurooq</text>
<text xml:space="preserve" text-anchor="middle" x="510.64" y="-9.45" font-family="Helvetica,sans-Serif" font-size="9.00">Talent Acquisition Specialist</text>
</g>
<!-- 73_O&#39;Brien,_Charlotte_(On_Leave)&#45;&gt;95_Fikree,_Shurooq -->
<g id="edge4" class="edge">
<title>73_O&#39;Brien,_Charlotte_(On_Leave)&#45;&gt;95_Fikree,_Shurooq</title>
<path fill="none" stroke="#aaaaaa" stroke-width="0.7" d="M354.68,-79C420.82,-79 510.64,-79 510.64,-79 510.64,-79 510.64,-43.36 510.64,-43.36"/>
<polygon fill="#aaaaaa" stroke="#aaaaaa" stroke-width="0.7" points="512.74,-43.36 510.64,-37.36 508.54,-43.36 512.74,-43.36"/>
</g>
</g>
</svg>
