<?xml version="1.0" encoding="UTF-8" standalone="no"?>
<!DOCTYPE svg PUBLIC "-//W3C//DTD SVG 1.1//EN"
 "http://www.w3.org/Graphics/SVG/1.1/DTD/svg11.dtd">
<!-- Generated by graphviz version 13.1.2 (0)
 -->
<!-- Pages: 1 -->
<svg width="583pt" height="199pt"
 viewBox="4.00 4.00 579.00 195.00" xmlns="http://www.w3.org/2000/svg" xmlns:xlink="http://www.w3.org/1999/xlink">
<g id="graph0" class="graph" transform="scale(1 1) rotate(0) translate(10.8 188.05)">
<polygon fill="white" stroke="none" points="-7.2,7.2 -7.2,-184.45 568.61,-184.45 568.61,7.2 -7.2,7.2"/>
<text xml:space="preserve" text-anchor="middle" x="280.7" y="-163.75" font-family="Times,serif" font-size="10.00">Team of Mreish, Amani</text>
<!-- 71_Mreish,_Amani -->
<g id="node1" class="node">
<title>71_Mreish,_Amani</title>
<path fill="#e3f2fd" stroke="#555555" d="M371.78,-158C371.78,-158 202.25,-158 202.25,-158 196.25,-158 190.25,-152 190.25,-146 190.25,-146 190.25,-134 190.25,-134 190.25,-128 196.25,-122 202.25,-122 202.25,-122 371.78,-122 371.78,-122 377.78,-122 383.78,-128 383.78,-134 383.78,-134 383.78,-146 383.78,-146 383.78,-152 377.78,-158 371.78,-158"/>
<text xml:space="preserve" text-anchor="middle" x="287.01" y="-141.2" font-family="Helvetica,sans-Serif" font-size="9.00">Mreish, Amani</text>
<text xml:space="preserve" text-anchor="middle" x="287.01" y="-131.45" font-family="Helvetica,sans-Serif" font-size="9.00">Director, Compensation, Benefits and HRIS</text>
</g>
<!-- 85_Ramos,_Jasmin_Oconer -->
<g id="node2" class="node">
<title>85_Ramos,_Jasmin_Oconer</title>
<path fill="#f9f9f9" stroke="#555555" d="M139.53,-97C139.53,-97 28.5,-97 28.5,-97 22.5,-97 16.5,-91 16.5,-85 16.5,-85 16.5,-73 16.5,-73 16.5,-67 22.5,-61 28.5,-61 28.5,-61 139.53,-61 139.53,-61 145.53,-61 151.53,-67 151.53,-73 151.53,-73 151.53,-85 151.53,-85 151.53,-91 145.53,-97 139.53,-97"/>
<text xml:space="preserve" text-anchor="middle" x="84.02" y="-80.2" font-family="Helvetica,sans-Serif" font-size="9.00">Ramos, Jasmin Oconer</text>
<text xml:space="preserve" text-anchor="middle" x="84.02" y="-70.45" font-family="Helvetica,sans-Serif" font-size="9.00">Manager, Employee Benefits</text>
</g>
<!-- 71_Mreish,_Amani&#45;&gt;85_Ramos,_Jasmin_Oconer -->
<g id="edge1" class="edge">
<title>71_Mreish,_Amani&#45;&gt;85_Ramos,_Jasmin_Oconer</title>
<path fill="none" stroke="#aaaaaa" stroke-width="0.7" d="M189.97,-140C137.78,-140 84.02,-140 84.02,-140 84.02,-140 84.02,-104.36 84.02,-104.36"/>
<polygon fill="#aaaaaa" stroke="#aaaaaa" stroke-width="0.7" points="86.12,-104.36 84.02,-98.36 81.92,-104.36 86.12,-104.36"/>
</g>
<!-- 86_Moghrabi,_Mona -->
<g id="node3" class="node">
<title>86_Moghrabi,_Mona</title>
<path fill="#f9f9f9" stroke="#555555" d="M396.15,-97C396.15,-97 177.88,-97 177.88,-97 171.88,-97 165.88,-91 165.88,-85 165.88,-85 165.88,-73 165.88,-73 165.88,-67 171.88,-61 177.88,-61 177.88,-61 396.15,-61 396.15,-61 402.15,-61 408.15,-67 408.15,-73 408.15,-73 408.15,-85 408.15,-85 408.15,-91 402.15,-97 396.15,-97"/>
<text xml:space="preserve" text-anchor="middle" x="287.01" y="-80.2" font-family="Helvetica,sans-Serif" font-size="9.00">Moghrabi, Mona</text>
<text xml:space="preserve" text-anchor="middle" x="287.01" y="-70.45" font-family="Helvetica,sans-Serif" font-size="9.00">Assistant Director, HR Information System and Services</text>
</g>
<!-- 71_Mreish,_Amani&#45;&gt;86_Moghrabi,_Mona -->
<g id="edge2" class="edge">
<title>71_Mreish,_Amani&#45;&gt;86_Moghrabi,_Mona</title>
<path fill="none" stroke="#aaaaaa" stroke-width="0.7" d="M287.01,-121.7C287.01,-121.7 287.01,-104.35 287.01,-104.35"/>
<polygon fill="#aaaaaa" stroke="#aaaaaa" stroke-width="0.7" points="289.12,-104.35 287.02,-98.35 284.92,-104.35 289.12,-104.35"/>
</g>
<!-- 87_Saadeddin,_Hanan_Tayel -->
<g id="node4" class="node">
<title>87_Saadeddin,_Hanan_Tayel</title>
<path fill="#f9f9f9" stroke="#555555" d="M549.4,-97C549.4,-97 434.62,-97 434.62,-97 428.62,-97 422.62,-91 422.62,-85 422.62,-85 422.62,-73 422.62,-73 422.62,-67 428.62,-61 434.62,-61 434.62,-61 549.4,-61 549.4,-61 555.4,-61 561.4,-67 561.4,-73 561.4,-73 561.4,-85 561.4,-85 561.4,-91 555.4,-97 549.4,-97"/>
<text xml:space="preserve" text-anchor="middle" x="492.01" y="-80.2" font-family="Helvetica,sans-Serif" font-size="9.00">Saadeddin, Hanan Tayel</text>
<text xml:space="preserve" text-anchor="middle" x="492.01" y="-70.45" font-family="Helvetica,sans-Serif" font-size="9.00">Senior Compensation Analyst</text>
</g>
<!-- 71_Mreish,_Amani&#45;&gt;87_Saadeddin,_Hanan_Tayel -->
<g id="edge3" class="edge">
<title>71_Mreish,_Amani&#45;&gt;87_Saadeddin,_Hanan_Tayel</title>
<path fill="none" stroke="#aaaaaa" stroke-width="0.7" d="M384.11,-140C437.1,-140 492.01,-140 492.01,-140 492.01,-140 492.01,-104.36 492.01,-104.36"/>
<polygon fill="#aaaaaa" stroke="#aaaaaa" stroke-width="0.7" points="494.12,-104.36 492.02,-98.36 489.92,-104.36 494.12,-104.36"/>
</g>
<!-- 96_Jijakli,_Bana -->
<g id="node5" class="node">
<title>96_Jijakli,_Bana</title>
<path fill="#ffffff" stroke="#555555" d="M156.03,-36C156.03,-36 12,-36 12,-36 6,-36 0,-30 0,-24 0,-24 0,-12 0,-12 0,-6 6,0 12,0 12,0 156.03,0 156.03,0 162.03,0 168.03,-6 168.03,-12 168.03,-12 168.03,-24 168.03,-24 168.03,-30 162.03,-36 156.03,-36"/>
<text xml:space="preserve" text-anchor="middle" x="84.02" y="-19.2" font-family="Helvetica,sans-Serif" font-size="9.00">Jijakli, Bana</text>
<text xml:space="preserve" text-anchor="middle" x="84.02" y="-9.45" font-family="Helvetica,sans-Serif" font-size="9.00">HR Advisor and Benefits Coordinator</text>
</g>
<!-- 85_Ramos,_Jasmin_Oconer&#45;&gt;96_Jijakli,_Bana -->
<g id="edge4" class="edge">
<title>85_Ramos,_Jasmin_Oconer&#45;&gt;96_Jijakli,_Bana</title>
<path fill="none" stroke="#aaaaaa" stroke-width="0.7" d="M84.02,-60.7C84.02,-60.7 84.02,-43.35 84.02,-43.35"/>
<polygon fill="#aaaaaa" stroke="#aaaaaa" stroke-width="0.7" points="86.12,-43.35 84.02,-37.35 81.92,-43.35 86.12,-43.35"/>
</g>
<!-- 97_Malaiba,_Wendy_Joy_Abuedo -->
<g id="node6" class="node">
<title>97_Malaiba,_Wendy_Joy_Abuedo</title>
<path fill="#ffffff" stroke="#555555" d="M342.15,-36C342.15,-36 231.88,-36 231.88,-36 225.88,-36 219.88,-30 219.88,-24 219.88,-24 219.88,-12 219.88,-12 219.88,-6 225.88,0 231.88,0 231.88,0 342.15,0 342.15,0 348.15,0 354.15,-6 354.15,-12 354.15,-12 354.15,-24 354.15,-24 354.15,-30 348.15,-36 342.15,-36"/>
<text xml:space="preserve" text-anchor="middle" x="287.01" y="-19.2" font-family="Helvetica,sans-Serif" font-size="9.00">Malaiba, Wendy Joy Abuedo</text>
<text xml:space="preserve" text-anchor="middle" x="287.01" y="-9.45" font-family="Helvetica,sans-Serif" font-size="9.00">Human Resources Advisor</text>
</g>
<!-- 86_Moghrabi,_Mona&#45;&gt;97_Malaiba,_Wendy_Joy_Abuedo -->
<g id="edge5" class="edge">
<title>86_Moghrabi,_Mona&#45;&gt;97_Malaiba,_Wendy_Joy_Abuedo</title>
<path fill="none" stroke="#aaaaaa" stroke-width="0.7" d="M287.01,-60.7C287.01,-60.7 287.01,-43.35 287.01,-43.35"/>
<polygon fill="#aaaaaa" stroke="#aaaaaa" stroke-width="0.7" points="289.12,-43.35 287.02,-37.35 284.92,-43.35 289.12,-43.35"/>
</g>
</g>
</svg>
