<?xml version="1.0" encoding="UTF-8" standalone="no"?>
<!DOCTYPE svg PUBLIC "-//W3C//DTD SVG 1.1//EN"
 "http://www.w3.org/Graphics/SVG/1.1/DTD/svg11.dtd">
<!-- Generated by graphviz version 13.1.2 (0)
 -->
<!-- Pages: 1 -->
<svg width="386pt" height="138pt"
 viewBox="4.00 4.00 382.00 134.00" xmlns="http://www.w3.org/2000/svg" xmlns:xlink="http://www.w3.org/1999/xlink">
<g id="graph0" class="graph" transform="scale(1 1) rotate(0) translate(10.8 127.05)">
<polygon fill="white" stroke="none" points="-7.2,7.2 -7.2,-123.45 371.35,-123.45 371.35,7.2 -7.2,7.2"/>
<text xml:space="preserve" text-anchor="middle" x="182.08" y="-102.75" font-family="Times,serif" font-size="10.00">Team of Putnins, Natasha</text>
<!-- 7_Putnins,_Natasha -->
<g id="node1" class="node">
<title>7_Putnins,_Natasha</title>
<path fill="#e3f2fd" stroke="#555555" d="M310.4,-97C310.4,-97 116.12,-97 116.12,-97 110.12,-97 104.12,-91 104.12,-85 104.12,-85 104.12,-73 104.12,-73 104.12,-67 110.12,-61 116.12,-61 116.12,-61 310.4,-61 310.4,-61 316.4,-61 322.4,-67 322.4,-73 322.4,-73 322.4,-85 322.4,-85 322.4,-91 316.4,-97 310.4,-97"/>
<text xml:space="preserve" text-anchor="middle" x="213.26" y="-80.2" font-family="Helvetica,sans-Serif" font-size="9.00">Putnins, Natasha</text>
<text xml:space="preserve" text-anchor="middle" x="213.26" y="-70.45" font-family="Helvetica,sans-Serif" font-size="9.00">Director, Learning &amp; Organizational Development</text>
</g>
<!-- 69_Beetham,_Anne -->
<g id="node2" class="node">
<title>69_Beetham,_Anne</title>
<path fill="#f9f9f9" stroke="#555555" d="M226.53,-36C226.53,-36 12,-36 12,-36 6,-36 0,-30 0,-24 0,-24 0,-12 0,-12 0,-6 6,0 12,0 12,0 226.53,0 226.53,0 232.53,0 238.53,-6 238.53,-12 238.53,-12 238.53,-24 238.53,-24 238.53,-30 232.53,-36 226.53,-36"/>
<text xml:space="preserve" text-anchor="middle" x="119.26" y="-19.2" font-family="Helvetica,sans-Serif" font-size="9.00">Beetham, Anne</text>
<text xml:space="preserve" text-anchor="middle" x="119.26" y="-9.45" font-family="Helvetica,sans-Serif" font-size="9.00">Associate Director Performance &amp; Talent Development</text>
</g>
<!-- 7_Putnins,_Natasha&#45;&gt;69_Beetham,_Anne -->
<g id="edge1" class="edge">
<title>7_Putnins,_Natasha&#45;&gt;69_Beetham,_Anne</title>
<path fill="none" stroke="#aaaaaa" stroke-width="0.7" d="M171.33,-60.7C171.33,-60.7 171.33,-43.35 171.33,-43.35"/>
<polygon fill="#aaaaaa" stroke="#aaaaaa" stroke-width="0.7" points="173.43,-43.35 171.33,-37.35 169.23,-43.35 173.43,-43.35"/>
</g>
<!-- 84_Chua,_Andreana_Druce -->
<g id="node3" class="node">
<title>84_Chua,_Andreana_Druce</title>
<path fill="#f9f9f9" stroke="#555555" d="M352.15,-36C352.15,-36 264.38,-36 264.38,-36 258.38,-36 252.38,-30 252.38,-24 252.38,-24 252.38,-12 252.38,-12 252.38,-6 258.38,0 264.38,0 264.38,0 352.15,0 352.15,0 358.15,0 364.15,-6 364.15,-12 364.15,-12 364.15,-24 364.15,-24 364.15,-30 358.15,-36 352.15,-36"/>
<text xml:space="preserve" text-anchor="middle" x="308.26" y="-19.2" font-family="Helvetica,sans-Serif" font-size="9.00">Chua, Andreana Druce</text>
<text xml:space="preserve" text-anchor="middle" x="308.26" y="-9.45" font-family="Helvetica,sans-Serif" font-size="9.00">Research Fellow</text>
</g>
<!-- 7_Putnins,_Natasha&#45;&gt;84_Chua,_Andreana_Druce -->
<g id="edge2" class="edge">
<title>7_Putnins,_Natasha&#45;&gt;84_Chua,_Andreana_Druce</title>
<path fill="none" stroke="#aaaaaa" stroke-width="0.7" d="M287.39,-60.7C287.39,-60.7 287.39,-43.35 287.39,-43.35"/>
<polygon fill="#aaaaaa" stroke="#aaaaaa" stroke-width="0.7" points="289.49,-43.35 287.39,-37.35 285.29,-43.35 289.49,-43.35"/>
</g>
</g>
</svg>
