<?xml version="1.0" encoding="UTF-8" standalone="no"?>
<!DOCTYPE svg PUBLIC "-//W3C//DTD SVG 1.1//EN"
 "http://www.w3.org/Graphics/SVG/1.1/DTD/svg11.dtd">
<!-- Generated by graphviz version 13.1.2 (0)
 -->
<!-- Pages: 1 -->
<svg width="6025pt" height="199pt"
 viewBox="4.00 4.00 6022.00 195.00" xmlns="http://www.w3.org/2000/svg" xmlns:xlink="http://www.w3.org/1999/xlink">
<g id="graph0" class="graph" transform="scale(1 1) rotate(0) translate(10.8 188.05)">
<polygon fill="white" stroke="none" points="-7.2,7.2 -7.2,-184.45 6010.73,-184.45 6010.73,7.2 -7.2,7.2"/>
<text xml:space="preserve" text-anchor="middle" x="3001.77" y="-163.75" font-family="Times,serif" font-size="10.00">Team of AlNuaimi, Rashed</text>
<!-- 0_AlNuaimi,_Rashed -->
<g id="node1" class="node">
<title>0_AlNuaimi,_Rashed</title>
<path fill="#e3f2fd" stroke="#555555" d="M3069.4,-158C3069.4,-158 2911.88,-158 2911.88,-158 2905.88,-158 2899.88,-152 2899.88,-146 2899.88,-146 2899.88,-134 2899.88,-134 2899.88,-128 2905.88,-122 2911.88,-122 2911.88,-122 3069.4,-122 3069.4,-122 3075.4,-122 3081.4,-128 3081.4,-134 3081.4,-134 3081.4,-146 3081.4,-146 3081.4,-152 3075.4,-158 3069.4,-158"/>
<text xml:space="preserve" text-anchor="middle" x="2990.64" y="-141.2" font-family="Helvetica,sans-Serif" font-size="9.00">AlNuaimi, Rashed</text>
<text xml:space="preserve" text-anchor="middle" x="2990.64" y="-131.45" font-family="Helvetica,sans-Serif" font-size="9.00">Chief Human Resources Officer (CHRO)</text>
</g>
<!-- 5_Moussoux,_Florence -->
<g id="node2" class="node">
<title>5_Moussoux,_Florence</title>
<path fill="#f9f9f9" stroke="#555555" d="M227.28,-97C227.28,-97 60,-97 60,-97 54,-97 48,-91 48,-85 48,-85 48,-73 48,-73 48,-67 54,-61 60,-61 60,-61 227.28,-61 227.28,-61 233.28,-61 239.28,-67 239.28,-73 239.28,-73 239.28,-85 239.28,-85 239.28,-91 233.28,-97 227.28,-97"/>
<text xml:space="preserve" text-anchor="middle" x="143.64" y="-80.2" font-family="Helvetica,sans-Serif" font-size="9.00">Moussoux, Florence</text>
<text xml:space="preserve" text-anchor="middle" x="143.64" y="-70.45" font-family="Helvetica,sans-Serif" font-size="9.00">Head of HR Planning &amp; Strategic Initiatives</text>
</g>
<!-- 0_AlNuaimi,_Rashed&#45;&gt;5_Moussoux,_Florence -->
<g id="edge1" class="edge">
<title>0_AlNuaimi,_Rashed&#45;&gt;5_Moussoux,_Florence</title>
<path fill="none" stroke="#aaaaaa" stroke-width="0.7" d="M2899.54,-156C2413.07,-156 143.64,-156 143.64,-156 143.64,-156 143.64,-104.31 143.64,-104.31"/>
<polygon fill="#aaaaaa" stroke="#aaaaaa" stroke-width="0.7" points="145.74,-104.31 143.64,-98.31 141.54,-104.31 145.74,-104.31"/>
</g>
<!-- 6_Alamoodi,_Saif -->
<g id="node3" class="node">
<title>6_Alamoodi,_Saif</title>
<path fill="#f9f9f9" stroke="#555555" d="M503.4,-97C503.4,-97 273.88,-97 273.88,-97 267.88,-97 261.88,-91 261.88,-85 261.88,-85 261.88,-73 261.88,-73 261.88,-67 267.88,-61 273.88,-61 273.88,-61 503.4,-61 503.4,-61 509.4,-61 515.4,-67 515.4,-73 515.4,-73 515.4,-85 515.4,-85 515.4,-91 509.4,-97 503.4,-97"/>
<text xml:space="preserve" text-anchor="middle" x="388.64" y="-80.2" font-family="Helvetica,sans-Serif" font-size="9.00">Alamoodi, Saif</text>
<text xml:space="preserve" text-anchor="middle" x="388.64" y="-70.45" font-family="Helvetica,sans-Serif" font-size="9.00">Director, Government Relations and Immigration &#160;Services</text>
</g>
<!-- 0_AlNuaimi,_Rashed&#45;&gt;6_Alamoodi,_Saif -->
<g id="edge2" class="edge">
<title>0_AlNuaimi,_Rashed&#45;&gt;6_Alamoodi,_Saif</title>
<path fill="none" stroke="#aaaaaa" stroke-width="0.7" d="M2899.56,-153C2439.02,-153 388.64,-153 388.64,-153 388.64,-153 388.64,-104.35 388.64,-104.35"/>
<polygon fill="#aaaaaa" stroke="#aaaaaa" stroke-width="0.7" points="390.74,-104.35 388.64,-98.35 386.54,-104.35 390.74,-104.35"/>
</g>
<!-- 7_Putnins,_Natasha -->
<g id="node4" class="node">
<title>7_Putnins,_Natasha</title>
<path fill="#f9f9f9" stroke="#555555" d="M902.78,-97C902.78,-97 708.5,-97 708.5,-97 702.5,-97 696.5,-91 696.5,-85 696.5,-85 696.5,-73 696.5,-73 696.5,-67 702.5,-61 708.5,-61 708.5,-61 902.78,-61 902.78,-61 908.78,-61 914.78,-67 914.78,-73 914.78,-73 914.78,-85 914.78,-85 914.78,-91 908.78,-97 902.78,-97"/>
<text xml:space="preserve" text-anchor="middle" x="805.64" y="-80.2" font-family="Helvetica,sans-Serif" font-size="9.00">Putnins, Natasha</text>
<text xml:space="preserve" text-anchor="middle" x="805.64" y="-70.45" font-family="Helvetica,sans-Serif" font-size="9.00">Director, Learning &amp; Organizational Development</text>
</g>
<!-- 0_AlNuaimi,_Rashed&#45;&gt;7_Putnins,_Natasha -->
<g id="edge3" class="edge">
<title>0_AlNuaimi,_Rashed&#45;&gt;7_Putnins,_Natasha</title>
<path fill="none" stroke="#aaaaaa" stroke-width="0.7" d="M2899.54,-151C2486.01,-151 805.64,-151 805.64,-151 805.64,-151 805.64,-104.23 805.64,-104.23"/>
<polygon fill="#aaaaaa" stroke="#aaaaaa" stroke-width="0.7" points="807.74,-104.23 805.64,-98.23 803.54,-104.23 807.74,-104.23"/>
</g>
<!-- 8_Koyo,_Karl_Delors -->
<g id="node5" class="node">
<title>8_Koyo,_Karl_Delors</title>
<path fill="#f9f9f9" stroke="#555555" d="M1128.4,-97C1128.4,-97 940.87,-97 940.87,-97 934.87,-97 928.87,-91 928.87,-85 928.87,-85 928.87,-73 928.87,-73 928.87,-67 934.87,-61 940.87,-61 940.87,-61 1128.4,-61 1128.4,-61 1134.4,-61 1140.4,-67 1140.4,-73 1140.4,-73 1140.4,-85 1140.4,-85 1140.4,-91 1134.4,-97 1128.4,-97"/>
<text xml:space="preserve" text-anchor="middle" x="1034.64" y="-80.2" font-family="Helvetica,sans-Serif" font-size="9.00">Koyo, Karl Delors</text>
<text xml:space="preserve" text-anchor="middle" x="1034.64" y="-70.45" font-family="Helvetica,sans-Serif" font-size="9.00">Executive Director, Strategic HR Transformation</text>
</g>
<!-- 0_AlNuaimi,_Rashed&#45;&gt;8_Koyo,_Karl_Delors -->
<g id="edge4" class="edge">
<title>0_AlNuaimi,_Rashed&#45;&gt;8_Koyo,_Karl_Delors</title>
<path fill="none" stroke="#aaaaaa" stroke-width="0.7" d="M2899.57,-148C2513.87,-148 1034.64,-148 1034.64,-148 1034.64,-148 1034.64,-104.55 1034.64,-104.55"/>
<polygon fill="#aaaaaa" stroke="#aaaaaa" stroke-width="0.7" points="1036.74,-104.55 1034.64,-98.55 1032.54,-104.55 1036.74,-104.55"/>
</g>
<!-- 9_Alhash,_Reem_Mohammad_Ali_Saeed -->
<g id="node6" class="node">
<title>9_Alhash,_Reem_Mohammad_Ali_Saeed</title>
<path fill="#f9f9f9" stroke="#555555" d="M1321.28,-97C1321.28,-97 1166,-97 1166,-97 1160,-97 1154,-91 1154,-85 1154,-85 1154,-73 1154,-73 1154,-67 1160,-61 1166,-61 1166,-61 1321.28,-61 1321.28,-61 1327.28,-61 1333.28,-67 1333.28,-73 1333.28,-73 1333.28,-85 1333.28,-85 1333.28,-91 1327.28,-97 1321.28,-97"/>
<text xml:space="preserve" text-anchor="middle" x="1243.64" y="-80.2" font-family="Helvetica,sans-Serif" font-size="9.00">Alhash, Reem Mohammad Ali Saeed</text>
<text xml:space="preserve" text-anchor="middle" x="1243.64" y="-70.45" font-family="Helvetica,sans-Serif" font-size="9.00">Director of National Talent Management</text>
</g>
<!-- 0_AlNuaimi,_Rashed&#45;&gt;9_Alhash,_Reem_Mohammad_Ali_Saeed -->
<g id="edge5" class="edge">
<title>0_AlNuaimi,_Rashed&#45;&gt;9_Alhash,_Reem_Mohammad_Ali_Saeed</title>
<path fill="none" stroke="#aaaaaa" stroke-width="0.7" d="M2899.48,-146C2540.45,-146 1243.64,-146 1243.64,-146 1243.64,-146 1243.64,-104.37 1243.64,-104.37"/>
<polygon fill="#aaaaaa" stroke="#aaaaaa" stroke-width="0.7" points="1245.74,-104.37 1243.64,-98.37 1241.54,-104.37 1245.74,-104.37"/>
</g>
<!-- 10_Corotan,_Mylene -->
<g id="node7" class="node">
<title>10_Corotan,_Mylene</title>
<path fill="#f9f9f9" stroke="#555555" d="M1513.9,-97C1513.9,-97 1359.37,-97 1359.37,-97 1353.37,-97 1347.37,-91 1347.37,-85 1347.37,-85 1347.37,-73 1347.37,-73 1347.37,-67 1353.37,-61 1359.37,-61 1359.37,-61 1513.9,-61 1513.9,-61 1519.9,-61 1525.9,-67 1525.9,-73 1525.9,-73 1525.9,-85 1525.9,-85 1525.9,-91 1519.9,-97 1513.9,-97"/>
<text xml:space="preserve" text-anchor="middle" x="1436.64" y="-80.2" font-family="Helvetica,sans-Serif" font-size="9.00">Corotan, Mylene</text>
<text xml:space="preserve" text-anchor="middle" x="1436.64" y="-70.45" font-family="Helvetica,sans-Serif" font-size="9.00">Manager of Administration to the CHRO</text>
</g>
<!-- 0_AlNuaimi,_Rashed&#45;&gt;10_Corotan,_Mylene -->
<g id="edge6" class="edge">
<title>0_AlNuaimi,_Rashed&#45;&gt;10_Corotan,_Mylene</title>
<path fill="none" stroke="#aaaaaa" stroke-width="0.7" d="M2899.52,-144C2566.77,-144 1436.64,-144 1436.64,-144 1436.64,-144 1436.64,-104.51 1436.64,-104.51"/>
<polygon fill="#aaaaaa" stroke="#aaaaaa" stroke-width="0.7" points="1438.74,-104.51 1436.64,-98.51 1434.54,-104.51 1438.74,-104.51"/>
</g>
<!-- 21_Alameri,_Alreem -->
<g id="node8" class="node">
<title>21_Alameri,_Alreem</title>
<path fill="#f9f9f9" stroke="#555555" d="M1667.03,-97C1667.03,-97 1552.25,-97 1552.25,-97 1546.25,-97 1540.25,-91 1540.25,-85 1540.25,-85 1540.25,-73 1540.25,-73 1540.25,-67 1546.25,-61 1552.25,-61 1552.25,-61 1667.03,-61 1667.03,-61 1673.03,-61 1679.03,-67 1679.03,-73 1679.03,-73 1679.03,-85 1679.03,-85 1679.03,-91 1673.03,-97 1667.03,-97"/>
<text xml:space="preserve" text-anchor="middle" x="1609.64" y="-80.2" font-family="Helvetica,sans-Serif" font-size="9.00">Alameri, Alreem</text>
<text xml:space="preserve" text-anchor="middle" x="1609.64" y="-70.45" font-family="Helvetica,sans-Serif" font-size="9.00">Academic Operations Trainee</text>
</g>
<!-- 0_AlNuaimi,_Rashed&#45;&gt;21_Alameri,_Alreem -->
<g id="edge7" class="edge">
<title>0_AlNuaimi,_Rashed&#45;&gt;21_Alameri,_Alreem</title>
<path fill="none" stroke="#aaaaaa" stroke-width="0.7" d="M2899.49,-141C2591.66,-141 1609.64,-141 1609.64,-141 1609.64,-141 1609.64,-104.33 1609.64,-104.33"/>
<polygon fill="#aaaaaa" stroke="#aaaaaa" stroke-width="0.7" points="1611.74,-104.33 1609.64,-98.33 1607.54,-104.33 1611.74,-104.33"/>
</g>
<!-- 22_Alazeezi,_Mahra -->
<g id="node9" class="node">
<title>22_Alazeezi,_Mahra</title>
<path fill="#f9f9f9" stroke="#555555" d="M1820.03,-97C1820.03,-97 1705.25,-97 1705.25,-97 1699.25,-97 1693.25,-91 1693.25,-85 1693.25,-85 1693.25,-73 1693.25,-73 1693.25,-67 1699.25,-61 1705.25,-61 1705.25,-61 1820.03,-61 1820.03,-61 1826.03,-61 1832.03,-67 1832.03,-73 1832.03,-73 1832.03,-85 1832.03,-85 1832.03,-91 1826.03,-97 1820.03,-97"/>
<text xml:space="preserve" text-anchor="middle" x="1762.64" y="-80.2" font-family="Helvetica,sans-Serif" font-size="9.00">Alazeezi, Mahra</text>
<text xml:space="preserve" text-anchor="middle" x="1762.64" y="-70.45" font-family="Helvetica,sans-Serif" font-size="9.00">Academic Operations Trainee</text>
</g>
<!-- 0_AlNuaimi,_Rashed&#45;&gt;22_Alazeezi,_Mahra -->
<g id="edge8" class="edge">
<title>0_AlNuaimi,_Rashed&#45;&gt;22_Alazeezi,_Mahra</title>
<path fill="none" stroke="#aaaaaa" stroke-width="0.7" d="M2899.84,-139C2615.75,-139 1762.64,-139 1762.64,-139 1762.64,-139 1762.64,-104.39 1762.64,-104.39"/>
<polygon fill="#aaaaaa" stroke="#aaaaaa" stroke-width="0.7" points="1764.74,-104.39 1762.64,-98.39 1760.54,-104.39 1764.74,-104.39"/>
</g>
<!-- 23_Alhosani,_Fatima -->
<g id="node10" class="node">
<title>23_Alhosani,_Fatima</title>
<path fill="#f9f9f9" stroke="#555555" d="M1973.03,-97C1973.03,-97 1858.25,-97 1858.25,-97 1852.25,-97 1846.25,-91 1846.25,-85 1846.25,-85 1846.25,-73 1846.25,-73 1846.25,-67 1852.25,-61 1858.25,-61 1858.25,-61 1973.03,-61 1973.03,-61 1979.03,-61 1985.03,-67 1985.03,-73 1985.03,-73 1985.03,-85 1985.03,-85 1985.03,-91 1979.03,-97 1973.03,-97"/>
<text xml:space="preserve" text-anchor="middle" x="1915.64" y="-80.2" font-family="Helvetica,sans-Serif" font-size="9.00">Alhosani, Fatima</text>
<text xml:space="preserve" text-anchor="middle" x="1915.64" y="-70.45" font-family="Helvetica,sans-Serif" font-size="9.00">Academic Operations Trainee</text>
</g>
<!-- 0_AlNuaimi,_Rashed&#45;&gt;23_Alhosani,_Fatima -->
<g id="edge9" class="edge">
<title>0_AlNuaimi,_Rashed&#45;&gt;23_Alhosani,_Fatima</title>
<path fill="none" stroke="#aaaaaa" stroke-width="0.7" d="M2899.45,-136C2639.88,-136 1915.64,-136 1915.64,-136 1915.64,-136 1915.64,-104.41 1915.64,-104.41"/>
<polygon fill="#aaaaaa" stroke="#aaaaaa" stroke-width="0.7" points="1917.74,-104.41 1915.64,-98.41 1913.54,-104.41 1917.74,-104.41"/>
</g>
<!-- 24_AlHosani,_Shamma -->
<g id="node11" class="node">
<title>24_AlHosani,_Shamma</title>
<path fill="#f9f9f9" stroke="#555555" d="M2126.03,-97C2126.03,-97 2011.25,-97 2011.25,-97 2005.25,-97 1999.25,-91 1999.25,-85 1999.25,-85 1999.25,-73 1999.25,-73 1999.25,-67 2005.25,-61 2011.25,-61 2011.25,-61 2126.03,-61 2126.03,-61 2132.03,-61 2138.03,-67 2138.03,-73 2138.03,-73 2138.03,-85 2138.03,-85 2138.03,-91 2132.03,-97 2126.03,-97"/>
<text xml:space="preserve" text-anchor="middle" x="2068.64" y="-80.2" font-family="Helvetica,sans-Serif" font-size="9.00">AlHosani, Shamma</text>
<text xml:space="preserve" text-anchor="middle" x="2068.64" y="-70.45" font-family="Helvetica,sans-Serif" font-size="9.00">Academic Operations Trainee</text>
</g>
<!-- 0_AlNuaimi,_Rashed&#45;&gt;24_AlHosani,_Shamma -->
<g id="edge10" class="edge">
<title>0_AlNuaimi,_Rashed&#45;&gt;24_AlHosani,_Shamma</title>
<path fill="none" stroke="#aaaaaa" stroke-width="0.7" d="M2899.71,-134C2667.11,-134 2068.64,-134 2068.64,-134 2068.64,-134 2068.64,-104.37 2068.64,-104.37"/>
<polygon fill="#aaaaaa" stroke="#aaaaaa" stroke-width="0.7" points="2070.74,-104.37 2068.64,-98.37 2066.54,-104.37 2070.74,-104.37"/>
</g>
<!-- 25_Alkatheeri,_Ahad -->
<g id="node12" class="node">
<title>25_Alkatheeri,_Ahad</title>
<path fill="#f9f9f9" stroke="#555555" d="M2279.03,-97C2279.03,-97 2164.25,-97 2164.25,-97 2158.25,-97 2152.25,-91 2152.25,-85 2152.25,-85 2152.25,-73 2152.25,-73 2152.25,-67 2158.25,-61 2164.25,-61 2164.25,-61 2279.03,-61 2279.03,-61 2285.03,-61 2291.03,-67 2291.03,-73 2291.03,-73 2291.03,-85 2291.03,-85 2291.03,-91 2285.03,-97 2279.03,-97"/>
<text xml:space="preserve" text-anchor="middle" x="2221.64" y="-80.2" font-family="Helvetica,sans-Serif" font-size="9.00">Alkatheeri, Ahad</text>
<text xml:space="preserve" text-anchor="middle" x="2221.64" y="-70.45" font-family="Helvetica,sans-Serif" font-size="9.00">Academic Operations Trainee</text>
</g>
<!-- 0_AlNuaimi,_Rashed&#45;&gt;25_Alkatheeri,_Ahad -->
<g id="edge11" class="edge">
<title>0_AlNuaimi,_Rashed&#45;&gt;25_Alkatheeri,_Ahad</title>
<path fill="none" stroke="#aaaaaa" stroke-width="0.7" d="M2899.41,-132C2695.71,-132 2221.64,-132 2221.64,-132 2221.64,-132 2221.64,-104.3 2221.64,-104.3"/>
<polygon fill="#aaaaaa" stroke="#aaaaaa" stroke-width="0.7" points="2223.74,-104.3 2221.64,-98.3 2219.54,-104.3 2223.74,-104.3"/>
</g>
<!-- 26_Alkhoori,_Shaikha -->
<g id="node13" class="node">
<title>26_Alkhoori,_Shaikha</title>
<path fill="#f9f9f9" stroke="#555555" d="M2432.03,-97C2432.03,-97 2317.25,-97 2317.25,-97 2311.25,-97 2305.25,-91 2305.25,-85 2305.25,-85 2305.25,-73 2305.25,-73 2305.25,-67 2311.25,-61 2317.25,-61 2317.25,-61 2432.03,-61 2432.03,-61 2438.03,-61 2444.03,-67 2444.03,-73 2444.03,-73 2444.03,-85 2444.03,-85 2444.03,-91 2438.03,-97 2432.03,-97"/>
<text xml:space="preserve" text-anchor="middle" x="2374.64" y="-80.2" font-family="Helvetica,sans-Serif" font-size="9.00">Alkhoori, Shaikha</text>
<text xml:space="preserve" text-anchor="middle" x="2374.64" y="-70.45" font-family="Helvetica,sans-Serif" font-size="9.00">Academic Operations Trainee</text>
</g>
<!-- 0_AlNuaimi,_Rashed&#45;&gt;26_Alkhoori,_Shaikha -->
<g id="edge12" class="edge">
<title>0_AlNuaimi,_Rashed&#45;&gt;26_Alkhoori,_Shaikha</title>
<path fill="none" stroke="#aaaaaa" stroke-width="0.7" d="M2899.42,-129C2727.94,-129 2374.64,-129 2374.64,-129 2374.64,-129 2374.64,-104.39 2374.64,-104.39"/>
<polygon fill="#aaaaaa" stroke="#aaaaaa" stroke-width="0.7" points="2376.74,-104.39 2374.64,-98.39 2372.54,-104.39 2376.74,-104.39"/>
</g>
<!-- 27_Almenhali,_Sara -->
<g id="node14" class="node">
<title>27_Almenhali,_Sara</title>
<path fill="#f9f9f9" stroke="#555555" d="M2585.03,-97C2585.03,-97 2470.25,-97 2470.25,-97 2464.25,-97 2458.25,-91 2458.25,-85 2458.25,-85 2458.25,-73 2458.25,-73 2458.25,-67 2464.25,-61 2470.25,-61 2470.25,-61 2585.03,-61 2585.03,-61 2591.03,-61 2597.03,-67 2597.03,-73 2597.03,-73 2597.03,-85 2597.03,-85 2597.03,-91 2591.03,-97 2585.03,-97"/>
<text xml:space="preserve" text-anchor="middle" x="2527.64" y="-80.2" font-family="Helvetica,sans-Serif" font-size="9.00">Almenhali, Sara</text>
<text xml:space="preserve" text-anchor="middle" x="2527.64" y="-70.45" font-family="Helvetica,sans-Serif" font-size="9.00">Academic Operations Trainee</text>
</g>
<!-- 0_AlNuaimi,_Rashed&#45;&gt;27_Almenhali,_Sara -->
<g id="edge13" class="edge">
<title>0_AlNuaimi,_Rashed&#45;&gt;27_Almenhali,_Sara</title>
<path fill="none" stroke="#aaaaaa" stroke-width="0.7" d="M2899.44,-127C2764.56,-127 2527.64,-127 2527.64,-127 2527.64,-127 2527.64,-104.48 2527.64,-104.48"/>
<polygon fill="#aaaaaa" stroke="#aaaaaa" stroke-width="0.7" points="2529.74,-104.48 2527.64,-98.48 2525.54,-104.48 2529.74,-104.48"/>
</g>
<!-- 28_Almheiri,_Rafeea -->
<g id="node15" class="node">
<title>28_Almheiri,_Rafeea</title>
<path fill="#f9f9f9" stroke="#555555" d="M2738.03,-97C2738.03,-97 2623.25,-97 2623.25,-97 2617.25,-97 2611.25,-91 2611.25,-85 2611.25,-85 2611.25,-73 2611.25,-73 2611.25,-67 2617.25,-61 2623.25,-61 2623.25,-61 2738.03,-61 2738.03,-61 2744.03,-61 2750.03,-67 2750.03,-73 2750.03,-73 2750.03,-85 2750.03,-85 2750.03,-91 2744.03,-97 2738.03,-97"/>
<text xml:space="preserve" text-anchor="middle" x="2680.64" y="-80.2" font-family="Helvetica,sans-Serif" font-size="9.00">Almheiri, Rafeea</text>
<text xml:space="preserve" text-anchor="middle" x="2680.64" y="-70.45" font-family="Helvetica,sans-Serif" font-size="9.00">Academic Operations Trainee</text>
</g>
<!-- 0_AlNuaimi,_Rashed&#45;&gt;28_Almheiri,_Rafeea -->
<g id="edge14" class="edge">
<title>0_AlNuaimi,_Rashed&#45;&gt;28_Almheiri,_Rafeea</title>
<path fill="none" stroke="#aaaaaa" stroke-width="0.7" d="M2899.72,-124C2808.25,-124 2680.64,-124 2680.64,-124 2680.64,-124 2680.64,-104.36 2680.64,-104.36"/>
<polygon fill="#aaaaaa" stroke="#aaaaaa" stroke-width="0.7" points="2682.74,-104.36 2680.64,-98.36 2678.54,-104.36 2682.74,-104.36"/>
</g>
<!-- 29_Almujaini,_Ibrahim -->
<g id="node16" class="node">
<title>29_Almujaini,_Ibrahim</title>
<path fill="#f9f9f9" stroke="#555555" d="M2891.03,-97C2891.03,-97 2776.25,-97 2776.25,-97 2770.25,-97 2764.25,-91 2764.25,-85 2764.25,-85 2764.25,-73 2764.25,-73 2764.25,-67 2770.25,-61 2776.25,-61 2776.25,-61 2891.03,-61 2891.03,-61 2897.03,-61 2903.03,-67 2903.03,-73 2903.03,-73 2903.03,-85 2903.03,-85 2903.03,-91 2897.03,-97 2891.03,-97"/>
<text xml:space="preserve" text-anchor="middle" x="2833.64" y="-80.2" font-family="Helvetica,sans-Serif" font-size="9.00">Almujaini, Ibrahim</text>
<text xml:space="preserve" text-anchor="middle" x="2833.64" y="-70.45" font-family="Helvetica,sans-Serif" font-size="9.00">Academic Operations Trainee</text>
</g>
<!-- 0_AlNuaimi,_Rashed&#45;&gt;29_Almujaini,_Ibrahim -->
<g id="edge15" class="edge">
<title>0_AlNuaimi,_Rashed&#45;&gt;29_Almujaini,_Ibrahim</title>
<path fill="none" stroke="#aaaaaa" stroke-width="0.7" d="M2910.26,-121.7C2910.26,-103.73 2910.26,-79 2910.26,-79 2910.26,-79 2909.59,-79 2909.59,-79"/>
<polygon fill="#aaaaaa" stroke="#aaaaaa" stroke-width="0.7" points="2910.52,-76.9 2904.52,-79 2910.52,-81.1 2910.52,-76.9"/>
</g>
<!-- 30_Al_Nuaimi,_Shaikha_Mohammed -->
<g id="node17" class="node">
<title>30_Al_Nuaimi,_Shaikha_Mohammed</title>
<path fill="#f9f9f9" stroke="#555555" d="M3051.78,-97C3051.78,-97 2929.5,-97 2929.5,-97 2923.5,-97 2917.5,-91 2917.5,-85 2917.5,-85 2917.5,-73 2917.5,-73 2917.5,-67 2923.5,-61 2929.5,-61 2929.5,-61 3051.78,-61 3051.78,-61 3057.78,-61 3063.78,-67 3063.78,-73 3063.78,-73 3063.78,-85 3063.78,-85 3063.78,-91 3057.78,-97 3051.78,-97"/>
<text xml:space="preserve" text-anchor="middle" x="2990.64" y="-80.2" font-family="Helvetica,sans-Serif" font-size="9.00">Al Nuaimi, Shaikha Mohammed</text>
<text xml:space="preserve" text-anchor="middle" x="2990.64" y="-70.45" font-family="Helvetica,sans-Serif" font-size="9.00">Academic Operations Trainee</text>
</g>
<!-- 0_AlNuaimi,_Rashed&#45;&gt;30_Al_Nuaimi,_Shaikha_Mohammed -->
<g id="edge16" class="edge">
<title>0_AlNuaimi,_Rashed&#45;&gt;30_Al_Nuaimi,_Shaikha_Mohammed</title>
<path fill="none" stroke="#aaaaaa" stroke-width="0.7" d="M2990.64,-121.7C2990.64,-121.7 2990.64,-104.35 2990.64,-104.35"/>
<polygon fill="#aaaaaa" stroke="#aaaaaa" stroke-width="0.7" points="2992.74,-104.35 2990.64,-98.35 2988.54,-104.35 2992.74,-104.35"/>
</g>
<!-- 31_Alobaidalla,_Shaikha -->
<g id="node18" class="node">
<title>31_Alobaidalla,_Shaikha</title>
<path fill="#f9f9f9" stroke="#555555" d="M3167.65,-97C3167.65,-97 3089.62,-97 3089.62,-97 3083.62,-97 3077.62,-91 3077.62,-85 3077.62,-85 3077.62,-73 3077.62,-73 3077.62,-67 3083.62,-61 3089.62,-61 3089.62,-61 3167.65,-61 3167.65,-61 3173.65,-61 3179.65,-67 3179.65,-73 3179.65,-73 3179.65,-85 3179.65,-85 3179.65,-91 3173.65,-97 3167.65,-97"/>
<text xml:space="preserve" text-anchor="middle" x="3128.64" y="-80.2" font-family="Helvetica,sans-Serif" font-size="9.00">Alobaidalla, Shaikha</text>
<text xml:space="preserve" text-anchor="middle" x="3128.64" y="-70.45" font-family="Helvetica,sans-Serif" font-size="9.00">Lab Assistant</text>
</g>
<!-- 0_AlNuaimi,_Rashed&#45;&gt;31_Alobaidalla,_Shaikha -->
<g id="edge17" class="edge">
<title>0_AlNuaimi,_Rashed&#45;&gt;31_Alobaidalla,_Shaikha</title>
<path fill="none" stroke="#aaaaaa" stroke-width="0.7" d="M3070.7,-121.7C3070.7,-103.73 3070.7,-79 3070.7,-79 3070.7,-79 3071.37,-79 3071.37,-79"/>
<polygon fill="#aaaaaa" stroke="#aaaaaa" stroke-width="0.7" points="3070.29,-81.1 3076.29,-79 3070.29,-76.9 3070.29,-81.1"/>
</g>
<!-- 32_Alrayssi,_Rayan -->
<g id="node19" class="node">
<title>32_Alrayssi,_Rayan</title>
<path fill="#f9f9f9" stroke="#555555" d="M3320.03,-97C3320.03,-97 3205.25,-97 3205.25,-97 3199.25,-97 3193.25,-91 3193.25,-85 3193.25,-85 3193.25,-73 3193.25,-73 3193.25,-67 3199.25,-61 3205.25,-61 3205.25,-61 3320.03,-61 3320.03,-61 3326.03,-61 3332.03,-67 3332.03,-73 3332.03,-73 3332.03,-85 3332.03,-85 3332.03,-91 3326.03,-97 3320.03,-97"/>
<text xml:space="preserve" text-anchor="middle" x="3262.64" y="-80.2" font-family="Helvetica,sans-Serif" font-size="9.00">Alrayssi, Rayan</text>
<text xml:space="preserve" text-anchor="middle" x="3262.64" y="-70.45" font-family="Helvetica,sans-Serif" font-size="9.00">Academic Operations Trainee</text>
</g>
<!-- 0_AlNuaimi,_Rashed&#45;&gt;32_Alrayssi,_Rayan -->
<g id="edge18" class="edge">
<title>0_AlNuaimi,_Rashed&#45;&gt;32_Alrayssi,_Rayan</title>
<path fill="none" stroke="#aaaaaa" stroke-width="0.7" d="M3081.59,-124C3160.66,-124 3262.64,-124 3262.64,-124 3262.64,-124 3262.64,-104.36 3262.64,-104.36"/>
<polygon fill="#aaaaaa" stroke="#aaaaaa" stroke-width="0.7" points="3264.74,-104.36 3262.64,-98.36 3260.54,-104.36 3264.74,-104.36"/>
</g>
<!-- 33_Alremeithi,_Mahra -->
<g id="node20" class="node">
<title>33_Alremeithi,_Mahra</title>
<path fill="#f9f9f9" stroke="#555555" d="M3473.03,-97C3473.03,-97 3358.25,-97 3358.25,-97 3352.25,-97 3346.25,-91 3346.25,-85 3346.25,-85 3346.25,-73 3346.25,-73 3346.25,-67 3352.25,-61 3358.25,-61 3358.25,-61 3473.03,-61 3473.03,-61 3479.03,-61 3485.03,-67 3485.03,-73 3485.03,-73 3485.03,-85 3485.03,-85 3485.03,-91 3479.03,-97 3473.03,-97"/>
<text xml:space="preserve" text-anchor="middle" x="3415.64" y="-80.2" font-family="Helvetica,sans-Serif" font-size="9.00">Alremeithi, Mahra</text>
<text xml:space="preserve" text-anchor="middle" x="3415.64" y="-70.45" font-family="Helvetica,sans-Serif" font-size="9.00">Academic Operations Trainee</text>
</g>
<!-- 0_AlNuaimi,_Rashed&#45;&gt;33_Alremeithi,_Mahra -->
<g id="edge19" class="edge">
<title>0_AlNuaimi,_Rashed&#45;&gt;33_Alremeithi,_Mahra</title>
<path fill="none" stroke="#aaaaaa" stroke-width="0.7" d="M3081.81,-127C3206.69,-127 3415.64,-127 3415.64,-127 3415.64,-127 3415.64,-104.48 3415.64,-104.48"/>
<polygon fill="#aaaaaa" stroke="#aaaaaa" stroke-width="0.7" points="3417.74,-104.48 3415.64,-98.48 3413.54,-104.48 3417.74,-104.48"/>
</g>
<!-- 34_Alwahedi,_Eman -->
<g id="node21" class="node">
<title>34_Alwahedi,_Eman</title>
<path fill="#f9f9f9" stroke="#555555" d="M3626.03,-97C3626.03,-97 3511.25,-97 3511.25,-97 3505.25,-97 3499.25,-91 3499.25,-85 3499.25,-85 3499.25,-73 3499.25,-73 3499.25,-67 3505.25,-61 3511.25,-61 3511.25,-61 3626.03,-61 3626.03,-61 3632.03,-61 3638.03,-67 3638.03,-73 3638.03,-73 3638.03,-85 3638.03,-85 3638.03,-91 3632.03,-97 3626.03,-97"/>
<text xml:space="preserve" text-anchor="middle" x="3568.64" y="-80.2" font-family="Helvetica,sans-Serif" font-size="9.00">Alwahedi, Eman</text>
<text xml:space="preserve" text-anchor="middle" x="3568.64" y="-70.45" font-family="Helvetica,sans-Serif" font-size="9.00">Academic Operations Trainee</text>
</g>
<!-- 0_AlNuaimi,_Rashed&#45;&gt;34_Alwahedi,_Eman -->
<g id="edge20" class="edge">
<title>0_AlNuaimi,_Rashed&#45;&gt;34_Alwahedi,_Eman</title>
<path fill="none" stroke="#aaaaaa" stroke-width="0.7" d="M3081.59,-129C3244.36,-129 3568.64,-129 3568.64,-129 3568.64,-129 3568.64,-104.39 3568.64,-104.39"/>
<polygon fill="#aaaaaa" stroke="#aaaaaa" stroke-width="0.7" points="3570.74,-104.39 3568.64,-98.39 3566.54,-104.39 3570.74,-104.39"/>
</g>
<!-- 35_Alzaabi,_Noof -->
<g id="node22" class="node">
<title>35_Alzaabi,_Noof</title>
<path fill="#f9f9f9" stroke="#555555" d="M3779.03,-97C3779.03,-97 3664.25,-97 3664.25,-97 3658.25,-97 3652.25,-91 3652.25,-85 3652.25,-85 3652.25,-73 3652.25,-73 3652.25,-67 3658.25,-61 3664.25,-61 3664.25,-61 3779.03,-61 3779.03,-61 3785.03,-61 3791.03,-67 3791.03,-73 3791.03,-73 3791.03,-85 3791.03,-85 3791.03,-91 3785.03,-97 3779.03,-97"/>
<text xml:space="preserve" text-anchor="middle" x="3721.64" y="-80.2" font-family="Helvetica,sans-Serif" font-size="9.00">Alzaabi, Noof</text>
<text xml:space="preserve" text-anchor="middle" x="3721.64" y="-70.45" font-family="Helvetica,sans-Serif" font-size="9.00">Academic Operations Trainee</text>
</g>
<!-- 0_AlNuaimi,_Rashed&#45;&gt;35_Alzaabi,_Noof -->
<g id="edge21" class="edge">
<title>0_AlNuaimi,_Rashed&#45;&gt;35_Alzaabi,_Noof</title>
<path fill="none" stroke="#aaaaaa" stroke-width="0.7" d="M3081.74,-132C3277.7,-132 3721.64,-132 3721.64,-132 3721.64,-132 3721.64,-104.3 3721.64,-104.3"/>
<polygon fill="#aaaaaa" stroke="#aaaaaa" stroke-width="0.7" points="3723.74,-104.3 3721.64,-98.3 3719.54,-104.3 3723.74,-104.3"/>
</g>
<!-- 36_Majid,_Fatima_Ismael -->
<g id="node23" class="node">
<title>36_Majid,_Fatima_Ismael</title>
<path fill="#f9f9f9" stroke="#555555" d="M3932.03,-97C3932.03,-97 3817.25,-97 3817.25,-97 3811.25,-97 3805.25,-91 3805.25,-85 3805.25,-85 3805.25,-73 3805.25,-73 3805.25,-67 3811.25,-61 3817.25,-61 3817.25,-61 3932.03,-61 3932.03,-61 3938.03,-61 3944.03,-67 3944.03,-73 3944.03,-73 3944.03,-85 3944.03,-85 3944.03,-91 3938.03,-97 3932.03,-97"/>
<text xml:space="preserve" text-anchor="middle" x="3874.64" y="-80.2" font-family="Helvetica,sans-Serif" font-size="9.00">Majid, Fatima Ismael</text>
<text xml:space="preserve" text-anchor="middle" x="3874.64" y="-70.45" font-family="Helvetica,sans-Serif" font-size="9.00">Academic Operations Trainee</text>
</g>
<!-- 0_AlNuaimi,_Rashed&#45;&gt;36_Majid,_Fatima_Ismael -->
<g id="edge22" class="edge">
<title>0_AlNuaimi,_Rashed&#45;&gt;36_Majid,_Fatima_Ismael</title>
<path fill="none" stroke="#aaaaaa" stroke-width="0.7" d="M3081.5,-134C3307.08,-134 3874.64,-134 3874.64,-134 3874.64,-134 3874.64,-104.37 3874.64,-104.37"/>
<polygon fill="#aaaaaa" stroke="#aaaaaa" stroke-width="0.7" points="3876.74,-104.37 3874.64,-98.37 3872.54,-104.37 3876.74,-104.37"/>
</g>
<!-- 37_Shamlan,_Nadia -->
<g id="node24" class="node">
<title>37_Shamlan,_Nadia</title>
<path fill="#f9f9f9" stroke="#555555" d="M4085.03,-97C4085.03,-97 3970.25,-97 3970.25,-97 3964.25,-97 3958.25,-91 3958.25,-85 3958.25,-85 3958.25,-73 3958.25,-73 3958.25,-67 3964.25,-61 3970.25,-61 3970.25,-61 4085.03,-61 4085.03,-61 4091.03,-61 4097.03,-67 4097.03,-73 4097.03,-73 4097.03,-85 4097.03,-85 4097.03,-91 4091.03,-97 4085.03,-97"/>
<text xml:space="preserve" text-anchor="middle" x="4027.64" y="-80.2" font-family="Helvetica,sans-Serif" font-size="9.00">Shamlan, Nadia</text>
<text xml:space="preserve" text-anchor="middle" x="4027.64" y="-70.45" font-family="Helvetica,sans-Serif" font-size="9.00">Academic Operations Trainee</text>
</g>
<!-- 0_AlNuaimi,_Rashed&#45;&gt;37_Shamlan,_Nadia -->
<g id="edge23" class="edge">
<title>0_AlNuaimi,_Rashed&#45;&gt;37_Shamlan,_Nadia</title>
<path fill="none" stroke="#aaaaaa" stroke-width="0.7" d="M3081.76,-136C3334.81,-136 4027.64,-136 4027.64,-136 4027.64,-136 4027.64,-104.41 4027.64,-104.41"/>
<polygon fill="#aaaaaa" stroke="#aaaaaa" stroke-width="0.7" points="4029.74,-104.41 4027.64,-98.41 4025.54,-104.41 4029.74,-104.41"/>
</g>
<!-- 52_Dilmamode,_Anisah -->
<g id="node25" class="node">
<title>52_Dilmamode,_Anisah</title>
<path fill="#f9f9f9" stroke="#555555" d="M4269.78,-97C4269.78,-97 4123.5,-97 4123.5,-97 4117.5,-97 4111.5,-91 4111.5,-85 4111.5,-85 4111.5,-73 4111.5,-73 4111.5,-67 4117.5,-61 4123.5,-61 4123.5,-61 4269.78,-61 4269.78,-61 4275.78,-61 4281.78,-67 4281.78,-73 4281.78,-73 4281.78,-85 4281.78,-85 4281.78,-91 4275.78,-97 4269.78,-97"/>
<text xml:space="preserve" text-anchor="middle" x="4196.64" y="-80.2" font-family="Helvetica,sans-Serif" font-size="9.00">Dilmamode, Anisah</text>
<text xml:space="preserve" text-anchor="middle" x="4196.64" y="-70.45" font-family="Helvetica,sans-Serif" font-size="9.00">Senior Manager, Employee Relations</text>
</g>
<!-- 0_AlNuaimi,_Rashed&#45;&gt;52_Dilmamode,_Anisah -->
<g id="edge24" class="edge">
<title>0_AlNuaimi,_Rashed&#45;&gt;52_Dilmamode,_Anisah</title>
<path fill="none" stroke="#aaaaaa" stroke-width="0.7" d="M3081.78,-139C3362.73,-139 4196.64,-139 4196.64,-139 4196.64,-139 4196.64,-104.39 4196.64,-104.39"/>
<polygon fill="#aaaaaa" stroke="#aaaaaa" stroke-width="0.7" points="4198.74,-104.39 4196.64,-98.39 4194.54,-104.39 4198.74,-104.39"/>
</g>
<!-- 53_AlKaabi,_Mahra -->
<g id="node26" class="node">
<title>53_AlKaabi,_Mahra</title>
<path fill="#f9f9f9" stroke="#555555" d="M4515.53,-97C4515.53,-97 4307.75,-97 4307.75,-97 4301.75,-97 4295.75,-91 4295.75,-85 4295.75,-85 4295.75,-73 4295.75,-73 4295.75,-67 4301.75,-61 4307.75,-61 4307.75,-61 4515.53,-61 4515.53,-61 4521.53,-61 4527.53,-67 4527.53,-73 4527.53,-73 4527.53,-85 4527.53,-85 4527.53,-91 4521.53,-97 4515.53,-97"/>
<text xml:space="preserve" text-anchor="middle" x="4411.64" y="-80.2" font-family="Helvetica,sans-Serif" font-size="9.00">AlKaabi, Mahra</text>
<text xml:space="preserve" text-anchor="middle" x="4411.64" y="-70.45" font-family="Helvetica,sans-Serif" font-size="9.00">Student Assistant, Higher Education Career Program</text>
</g>
<!-- 0_AlNuaimi,_Rashed&#45;&gt;53_AlKaabi,_Mahra -->
<g id="edge25" class="edge">
<title>0_AlNuaimi,_Rashed&#45;&gt;53_AlKaabi,_Mahra</title>
<path fill="none" stroke="#aaaaaa" stroke-width="0.7" d="M3081.69,-141C3395.32,-141 4411.64,-141 4411.64,-141 4411.64,-141 4411.64,-104.33 4411.64,-104.33"/>
<polygon fill="#aaaaaa" stroke="#aaaaaa" stroke-width="0.7" points="4413.74,-104.33 4411.64,-98.33 4409.54,-104.33 4413.74,-104.33"/>
</g>
<!-- 54_Almansoori,_Azzah -->
<g id="node27" class="node">
<title>54_Almansoori,_Azzah</title>
<path fill="#f9f9f9" stroke="#555555" d="M4761.53,-97C4761.53,-97 4553.75,-97 4553.75,-97 4547.75,-97 4541.75,-91 4541.75,-85 4541.75,-85 4541.75,-73 4541.75,-73 4541.75,-67 4547.75,-61 4553.75,-61 4553.75,-61 4761.53,-61 4761.53,-61 4767.53,-61 4773.53,-67 4773.53,-73 4773.53,-73 4773.53,-85 4773.53,-85 4773.53,-91 4767.53,-97 4761.53,-97"/>
<text xml:space="preserve" text-anchor="middle" x="4657.64" y="-80.2" font-family="Helvetica,sans-Serif" font-size="9.00">Almansoori, Azzah</text>
<text xml:space="preserve" text-anchor="middle" x="4657.64" y="-70.45" font-family="Helvetica,sans-Serif" font-size="9.00">Student Assistant, Higher Education Career Program</text>
</g>
<!-- 0_AlNuaimi,_Rashed&#45;&gt;54_Almansoori,_Azzah -->
<g id="edge26" class="edge">
<title>0_AlNuaimi,_Rashed&#45;&gt;54_Almansoori,_Azzah</title>
<path fill="none" stroke="#aaaaaa" stroke-width="0.7" d="M3081.75,-144C3430.01,-144 4657.64,-144 4657.64,-144 4657.64,-144 4657.64,-104.51 4657.64,-104.51"/>
<polygon fill="#aaaaaa" stroke="#aaaaaa" stroke-width="0.7" points="4659.74,-104.51 4657.64,-98.51 4655.54,-104.51 4659.74,-104.51"/>
</g>
<!-- 55_Almazrouei,_Amal -->
<g id="node28" class="node">
<title>55_Almazrouei,_Amal</title>
<path fill="#f9f9f9" stroke="#555555" d="M5007.53,-97C5007.53,-97 4799.75,-97 4799.75,-97 4793.75,-97 4787.75,-91 4787.75,-85 4787.75,-85 4787.75,-73 4787.75,-73 4787.75,-67 4793.75,-61 4799.75,-61 4799.75,-61 5007.53,-61 5007.53,-61 5013.53,-61 5019.53,-67 5019.53,-73 5019.53,-73 5019.53,-85 5019.53,-85 5019.53,-91 5013.53,-97 5007.53,-97"/>
<text xml:space="preserve" text-anchor="middle" x="4903.64" y="-80.2" font-family="Helvetica,sans-Serif" font-size="9.00">Almazrouei, Amal</text>
<text xml:space="preserve" text-anchor="middle" x="4903.64" y="-70.45" font-family="Helvetica,sans-Serif" font-size="9.00">Student Assistant, Higher Education Career Program</text>
</g>
<!-- 0_AlNuaimi,_Rashed&#45;&gt;55_Almazrouei,_Amal -->
<g id="edge27" class="edge">
<title>0_AlNuaimi,_Rashed&#45;&gt;55_Almazrouei,_Amal</title>
<path fill="none" stroke="#aaaaaa" stroke-width="0.7" d="M3081.62,-146C3461.79,-146 4903.64,-146 4903.64,-146 4903.64,-146 4903.64,-104.37 4903.64,-104.37"/>
<polygon fill="#aaaaaa" stroke="#aaaaaa" stroke-width="0.7" points="4905.74,-104.37 4903.64,-98.37 4901.54,-104.37 4905.74,-104.37"/>
</g>
<!-- 56_Almheiri,_Fatima -->
<g id="node29" class="node">
<title>56_Almheiri,_Fatima</title>
<path fill="#f9f9f9" stroke="#555555" d="M5253.53,-97C5253.53,-97 5045.75,-97 5045.75,-97 5039.75,-97 5033.75,-91 5033.75,-85 5033.75,-85 5033.75,-73 5033.75,-73 5033.75,-67 5039.75,-61 5045.75,-61 5045.75,-61 5253.53,-61 5253.53,-61 5259.53,-61 5265.53,-67 5265.53,-73 5265.53,-73 5265.53,-85 5265.53,-85 5265.53,-91 5259.53,-97 5253.53,-97"/>
<text xml:space="preserve" text-anchor="middle" x="5149.64" y="-80.2" font-family="Helvetica,sans-Serif" font-size="9.00">Almheiri, Fatima</text>
<text xml:space="preserve" text-anchor="middle" x="5149.64" y="-70.45" font-family="Helvetica,sans-Serif" font-size="9.00">Student Assistant, Higher Education Career Program</text>
</g>
<!-- 0_AlNuaimi,_Rashed&#45;&gt;56_Almheiri,_Fatima -->
<g id="edge28" class="edge">
<title>0_AlNuaimi,_Rashed&#45;&gt;56_Almheiri,_Fatima</title>
<path fill="none" stroke="#aaaaaa" stroke-width="0.7" d="M3081.69,-148C3492.04,-148 5149.64,-148 5149.64,-148 5149.64,-148 5149.64,-104.55 5149.64,-104.55"/>
<polygon fill="#aaaaaa" stroke="#aaaaaa" stroke-width="0.7" points="5151.74,-104.55 5149.64,-98.55 5147.54,-104.55 5151.74,-104.55"/>
</g>
<!-- 57_Alremeithi,_Meera -->
<g id="node30" class="node">
<title>57_Alremeithi,_Meera</title>
<path fill="#f9f9f9" stroke="#555555" d="M5499.53,-97C5499.53,-97 5291.75,-97 5291.75,-97 5285.75,-97 5279.75,-91 5279.75,-85 5279.75,-85 5279.75,-73 5279.75,-73 5279.75,-67 5285.75,-61 5291.75,-61 5291.75,-61 5499.53,-61 5499.53,-61 5505.53,-61 5511.53,-67 5511.53,-73 5511.53,-73 5511.53,-85 5511.53,-85 5511.53,-91 5505.53,-97 5499.53,-97"/>
<text xml:space="preserve" text-anchor="middle" x="5395.64" y="-80.2" font-family="Helvetica,sans-Serif" font-size="9.00">Alremeithi, Meera</text>
<text xml:space="preserve" text-anchor="middle" x="5395.64" y="-70.45" font-family="Helvetica,sans-Serif" font-size="9.00">Student Assistant, Higher Education Career Program</text>
</g>
<!-- 0_AlNuaimi,_Rashed&#45;&gt;57_Alremeithi,_Meera -->
<g id="edge29" class="edge">
<title>0_AlNuaimi,_Rashed&#45;&gt;57_Alremeithi,_Meera</title>
<path fill="none" stroke="#aaaaaa" stroke-width="0.7" d="M3081.62,-151C3520.25,-151 5395.64,-151 5395.64,-151 5395.64,-151 5395.64,-104.23 5395.64,-104.23"/>
<polygon fill="#aaaaaa" stroke="#aaaaaa" stroke-width="0.7" points="5397.74,-104.23 5395.64,-98.23 5393.54,-104.23 5397.74,-104.23"/>
</g>
<!-- 58_Alshamsi,_Maitha -->
<g id="node31" class="node">
<title>58_Alshamsi,_Maitha</title>
<path fill="#f9f9f9" stroke="#555555" d="M5745.53,-97C5745.53,-97 5537.75,-97 5537.75,-97 5531.75,-97 5525.75,-91 5525.75,-85 5525.75,-85 5525.75,-73 5525.75,-73 5525.75,-67 5531.75,-61 5537.75,-61 5537.75,-61 5745.53,-61 5745.53,-61 5751.53,-61 5757.53,-67 5757.53,-73 5757.53,-73 5757.53,-85 5757.53,-85 5757.53,-91 5751.53,-97 5745.53,-97"/>
<text xml:space="preserve" text-anchor="middle" x="5641.64" y="-80.2" font-family="Helvetica,sans-Serif" font-size="9.00">Alshamsi, Maitha</text>
<text xml:space="preserve" text-anchor="middle" x="5641.64" y="-70.45" font-family="Helvetica,sans-Serif" font-size="9.00">Student Assistant, Higher Education Career Program</text>
</g>
<!-- 0_AlNuaimi,_Rashed&#45;&gt;58_Alshamsi,_Maitha -->
<g id="edge30" class="edge">
<title>0_AlNuaimi,_Rashed&#45;&gt;58_Alshamsi,_Maitha</title>
<path fill="none" stroke="#aaaaaa" stroke-width="0.7" d="M3081.89,-153C3548.05,-153 5641.64,-153 5641.64,-153 5641.64,-153 5641.64,-104.35 5641.64,-104.35"/>
<polygon fill="#aaaaaa" stroke="#aaaaaa" stroke-width="0.7" points="5643.74,-104.35 5641.64,-98.35 5639.54,-104.35 5643.74,-104.35"/>
</g>
<!-- 59_Alzahmi,_Alyaa -->
<g id="node32" class="node">
<title>59_Alzahmi,_Alyaa</title>
<path fill="#f9f9f9" stroke="#555555" d="M5991.53,-97C5991.53,-97 5783.75,-97 5783.75,-97 5777.75,-97 5771.75,-91 5771.75,-85 5771.75,-85 5771.75,-73 5771.75,-73 5771.75,-67 5777.75,-61 5783.75,-61 5783.75,-61 5991.53,-61 5991.53,-61 5997.53,-61 6003.53,-67 6003.53,-73 6003.53,-73 6003.53,-85 6003.53,-85 6003.53,-91 5997.53,-97 5991.53,-97"/>
<text xml:space="preserve" text-anchor="middle" x="5887.64" y="-80.2" font-family="Helvetica,sans-Serif" font-size="9.00">Alzahmi, Alyaa</text>
<text xml:space="preserve" text-anchor="middle" x="5887.64" y="-70.45" font-family="Helvetica,sans-Serif" font-size="9.00">Student Assistant, Higher Education Career Program</text>
</g>
<!-- 0_AlNuaimi,_Rashed&#45;&gt;59_Alzahmi,_Alyaa -->
<g id="edge31" class="edge">
<title>0_AlNuaimi,_Rashed&#45;&gt;59_Alzahmi,_Alyaa</title>
<path fill="none" stroke="#aaaaaa" stroke-width="0.7" d="M3081.72,-156C3573.3,-156 5887.64,-156 5887.64,-156 5887.64,-156 5887.64,-104.31 5887.64,-104.31"/>
<polygon fill="#aaaaaa" stroke="#aaaaaa" stroke-width="0.7" points="5889.74,-104.31 5887.64,-98.31 5885.54,-104.31 5889.74,-104.31"/>
</g>
<!-- 63_Alhajeri,_Fatema_Salem -->
<g id="node33" class="node">
<title>63_Alhajeri,_Fatema_Salem</title>
<path fill="#ffffff" stroke="#555555" d="M119.28,-36C119.28,-36 12,-36 12,-36 6,-36 0,-30 0,-24 0,-24 0,-12 0,-12 0,-6 6,0 12,0 12,0 119.28,0 119.28,0 125.28,0 131.28,-6 131.28,-12 131.28,-12 131.28,-24 131.28,-24 131.28,-30 125.28,-36 119.28,-36"/>
<text xml:space="preserve" text-anchor="middle" x="65.64" y="-19.2" font-family="Helvetica,sans-Serif" font-size="9.00">Alhajeri, Fatema Salem</text>
<text xml:space="preserve" text-anchor="middle" x="65.64" y="-9.45" font-family="Helvetica,sans-Serif" font-size="9.00">Business Support Specialist</text>
</g>
<!-- 5_Moussoux,_Florence&#45;&gt;63_Alhajeri,_Fatema_Salem -->
<g id="edge32" class="edge">
<title>5_Moussoux,_Florence&#45;&gt;63_Alhajeri,_Fatema_Salem</title>
<path fill="none" stroke="#aaaaaa" stroke-width="0.7" d="M89.64,-60.7C89.64,-60.7 89.64,-43.35 89.64,-43.35"/>
<polygon fill="#aaaaaa" stroke="#aaaaaa" stroke-width="0.7" points="91.74,-43.35 89.64,-37.35 87.54,-43.35 91.74,-43.35"/>
</g>
<!-- 64_Alhosani,_Yaaqoub -->
<g id="node34" class="node">
<title>64_Alhosani,_Yaaqoub</title>
<path fill="#ffffff" stroke="#555555" d="M258.28,-36C258.28,-36 157,-36 157,-36 151,-36 145,-30 145,-24 145,-24 145,-12 145,-12 145,-6 151,0 157,0 157,0 258.28,0 258.28,0 264.28,0 270.28,-6 270.28,-12 270.28,-12 270.28,-24 270.28,-24 270.28,-30 264.28,-36 258.28,-36"/>
<text xml:space="preserve" text-anchor="middle" x="207.64" y="-19.2" font-family="Helvetica,sans-Serif" font-size="9.00">Alhosani, Yaaqoub</text>
<text xml:space="preserve" text-anchor="middle" x="207.64" y="-9.45" font-family="Helvetica,sans-Serif" font-size="9.00">Manager, Public Relations</text>
</g>
<!-- 6_Alamoodi,_Saif&#45;&gt;64_Alhosani,_Yaaqoub -->
<g id="edge33" class="edge">
<title>6_Alamoodi,_Saif&#45;&gt;64_Alhosani,_Yaaqoub</title>
<path fill="none" stroke="#aaaaaa" stroke-width="0.7" d="M266.08,-60.7C266.08,-60.7 266.08,-43.35 266.08,-43.35"/>
<polygon fill="#aaaaaa" stroke="#aaaaaa" stroke-width="0.7" points="268.18,-43.35 266.08,-37.35 263.98,-43.35 268.18,-43.35"/>
</g>
<!-- 66_(2)_Managers -->
<g id="node35" class="node">
<title>66_(2)_Managers</title>
<path fill="#ffffff" stroke="#555555" d="M344.65,-36C344.65,-36 296.62,-36 296.62,-36 290.62,-36 284.62,-30 284.62,-24 284.62,-24 284.62,-12 284.62,-12 284.62,-6 290.62,0 296.62,0 296.62,0 344.65,0 344.65,0 350.65,0 356.65,-6 356.65,-12 356.65,-12 356.65,-24 356.65,-24 356.65,-30 350.65,-36 344.65,-36"/>
<text xml:space="preserve" text-anchor="middle" x="320.64" y="-14.32" font-family="Helvetica,sans-Serif" font-size="9.00">(2) Managers</text>
</g>
<!-- 6_Alamoodi,_Saif&#45;&gt;66_(2)_Managers -->
<g id="edge34" class="edge">
<title>6_Alamoodi,_Saif&#45;&gt;66_(2)_Managers</title>
<path fill="none" stroke="#aaaaaa" stroke-width="0.7" d="M320.64,-60.7C320.64,-60.7 320.64,-43.35 320.64,-43.35"/>
<polygon fill="#aaaaaa" stroke="#aaaaaa" stroke-width="0.7" points="322.74,-43.35 320.64,-37.35 318.54,-43.35 322.74,-43.35"/>
</g>
<!-- 67_Gameel,_Saru -->
<g id="node36" class="node">
<title>67_Gameel,_Saru</title>
<path fill="#ffffff" stroke="#555555" d="M533.03,-36C533.03,-36 382.25,-36 382.25,-36 376.25,-36 370.25,-30 370.25,-24 370.25,-24 370.25,-12 370.25,-12 370.25,-6 376.25,0 382.25,0 382.25,0 533.03,0 533.03,0 539.03,0 545.03,-6 545.03,-12 545.03,-12 545.03,-24 545.03,-24 545.03,-30 539.03,-36 533.03,-36"/>
<text xml:space="preserve" text-anchor="middle" x="457.64" y="-19.2" font-family="Helvetica,sans-Serif" font-size="9.00">Gameel, Saru</text>
<text xml:space="preserve" text-anchor="middle" x="457.64" y="-9.45" font-family="Helvetica,sans-Serif" font-size="9.00">Assistant Director, Relocation Services</text>
</g>
<!-- 6_Alamoodi,_Saif&#45;&gt;67_Gameel,_Saru -->
<g id="edge35" class="edge">
<title>6_Alamoodi,_Saif&#45;&gt;67_Gameel,_Saru</title>
<path fill="none" stroke="#aaaaaa" stroke-width="0.7" d="M442.83,-60.7C442.83,-60.7 442.83,-43.35 442.83,-43.35"/>
<polygon fill="#aaaaaa" stroke="#aaaaaa" stroke-width="0.7" points="444.93,-43.35 442.83,-37.35 440.73,-43.35 444.93,-43.35"/>
</g>
<!-- 69_Beetham,_Anne -->
<g id="node37" class="node">
<title>69_Beetham,_Anne</title>
<path fill="#ffffff" stroke="#555555" d="M785.9,-36C785.9,-36 571.38,-36 571.38,-36 565.38,-36 559.38,-30 559.38,-24 559.38,-24 559.38,-12 559.38,-12 559.38,-6 565.38,0 571.38,0 571.38,0 785.9,0 785.9,0 791.9,0 797.9,-6 797.9,-12 797.9,-12 797.9,-24 797.9,-24 797.9,-30 791.9,-36 785.9,-36"/>
<text xml:space="preserve" text-anchor="middle" x="678.64" y="-19.2" font-family="Helvetica,sans-Serif" font-size="9.00">Beetham, Anne</text>
<text xml:space="preserve" text-anchor="middle" x="678.64" y="-9.45" font-family="Helvetica,sans-Serif" font-size="9.00">Associate Director Performance &amp; Talent Development</text>
</g>
<!-- 7_Putnins,_Natasha&#45;&gt;69_Beetham,_Anne -->
<g id="edge36" class="edge">
<title>7_Putnins,_Natasha&#45;&gt;69_Beetham,_Anne</title>
<path fill="none" stroke="#aaaaaa" stroke-width="0.7" d="M747.2,-60.7C747.2,-60.7 747.2,-43.35 747.2,-43.35"/>
<polygon fill="#aaaaaa" stroke="#aaaaaa" stroke-width="0.7" points="749.3,-43.35 747.2,-37.35 745.1,-43.35 749.3,-43.35"/>
</g>
<!-- 84_Chua,_Andreana_Druce -->
<g id="node38" class="node">
<title>84_Chua,_Andreana_Druce</title>
<path fill="#ffffff" stroke="#555555" d="M911.53,-36C911.53,-36 823.75,-36 823.75,-36 817.75,-36 811.75,-30 811.75,-24 811.75,-24 811.75,-12 811.75,-12 811.75,-6 817.75,0 823.75,0 823.75,0 911.53,0 911.53,0 917.53,0 923.53,-6 923.53,-12 923.53,-12 923.53,-24 923.53,-24 923.53,-30 917.53,-36 911.53,-36"/>
<text xml:space="preserve" text-anchor="middle" x="867.64" y="-19.2" font-family="Helvetica,sans-Serif" font-size="9.00">Chua, Andreana Druce</text>
<text xml:space="preserve" text-anchor="middle" x="867.64" y="-9.45" font-family="Helvetica,sans-Serif" font-size="9.00">Research Fellow</text>
</g>
<!-- 7_Putnins,_Natasha&#45;&gt;84_Chua,_Andreana_Druce -->
<g id="edge37" class="edge">
<title>7_Putnins,_Natasha&#45;&gt;84_Chua,_Andreana_Druce</title>
<path fill="none" stroke="#aaaaaa" stroke-width="0.7" d="M863.26,-60.7C863.26,-60.7 863.26,-43.35 863.26,-43.35"/>
<polygon fill="#aaaaaa" stroke="#aaaaaa" stroke-width="0.7" points="865.37,-43.35 863.27,-37.35 861.17,-43.35 865.37,-43.35"/>
</g>
<!-- 71_Mreish,_Amani -->
<g id="node39" class="node">
<title>71_Mreish,_Amani</title>
<path fill="#ffffff" stroke="#555555" d="M1119.4,-36C1119.4,-36 949.87,-36 949.87,-36 943.87,-36 937.87,-30 937.87,-24 937.87,-24 937.87,-12 937.87,-12 937.87,-6 943.87,0 949.87,0 949.87,0 1119.4,0 1119.4,0 1125.4,0 1131.4,-6 1131.4,-12 1131.4,-12 1131.4,-24 1131.4,-24 1131.4,-30 1125.4,-36 1119.4,-36"/>
<text xml:space="preserve" text-anchor="middle" x="1034.64" y="-19.2" font-family="Helvetica,sans-Serif" font-size="9.00">Mreish, Amani</text>
<text xml:space="preserve" text-anchor="middle" x="1034.64" y="-9.45" font-family="Helvetica,sans-Serif" font-size="9.00">Director, Compensation, Benefits and HRIS</text>
</g>
<!-- 8_Koyo,_Karl_Delors&#45;&gt;71_Mreish,_Amani -->
<g id="edge38" class="edge">
<title>8_Koyo,_Karl_Delors&#45;&gt;71_Mreish,_Amani</title>
<path fill="none" stroke="#aaaaaa" stroke-width="0.7" d="M1034.64,-60.7C1034.64,-60.7 1034.64,-43.35 1034.64,-43.35"/>
<polygon fill="#aaaaaa" stroke="#aaaaaa" stroke-width="0.7" points="1036.74,-43.35 1034.64,-37.35 1032.54,-43.35 1036.74,-43.35"/>
</g>
<!-- 72_Arikat,_Suhair_Mohamed_Atta_Khalil -->
<g id="node40" class="node">
<title>72_Arikat,_Suhair_Mohamed_Atta_Khalil</title>
<path fill="#ffffff" stroke="#555555" d="M1365.9,-36C1365.9,-36 1157.37,-36 1157.37,-36 1151.37,-36 1145.37,-30 1145.37,-24 1145.37,-24 1145.37,-12 1145.37,-12 1145.37,-6 1151.37,0 1157.37,0 1157.37,0 1365.9,0 1365.9,0 1371.9,0 1377.9,-6 1377.9,-12 1377.9,-12 1377.9,-24 1377.9,-24 1377.9,-30 1371.9,-36 1365.9,-36"/>
<text xml:space="preserve" text-anchor="middle" x="1261.64" y="-19.2" font-family="Helvetica,sans-Serif" font-size="9.00">Arikat, Suhair Mohamed Atta Khalil</text>
<text xml:space="preserve" text-anchor="middle" x="1261.64" y="-9.45" font-family="Helvetica,sans-Serif" font-size="9.00">Director, HR Business Partner &amp; Employee Relations</text>
</g>
<!-- 8_Koyo,_Karl_Delors&#45;&gt;72_Arikat,_Suhair_Mohamed_Atta_Khalil -->
<g id="edge39" class="edge">
<title>8_Koyo,_Karl_Delors&#45;&gt;72_Arikat,_Suhair_Mohamed_Atta_Khalil</title>
<path fill="none" stroke="#aaaaaa" stroke-width="0.7" d="M1140.66,-79C1146.29,-79 1149.69,-79 1149.69,-79 1149.69,-79 1149.69,-43.36 1149.69,-43.36"/>
<polygon fill="#aaaaaa" stroke="#aaaaaa" stroke-width="0.7" points="1151.79,-43.36 1149.69,-37.36 1147.59,-43.36 1151.79,-43.36"/>
</g>
<!-- 73_O&#39;Brien,_Charlotte_(On_Leave) -->
<g id="node41" class="node">
<title>73_O&#39;Brien,_Charlotte_(On_Leave)</title>
<path fill="#ffffff" stroke="#555555" d="M1517.28,-36C1517.28,-36 1404,-36 1404,-36 1398,-36 1392,-30 1392,-24 1392,-24 1392,-12 1392,-12 1392,-6 1398,0 1404,0 1404,0 1517.28,0 1517.28,0 1523.28,0 1529.28,-6 1529.28,-12 1529.28,-12 1529.28,-24 1529.28,-24 1529.28,-30 1523.28,-36 1517.28,-36"/>
<text xml:space="preserve" text-anchor="middle" x="1460.64" y="-19.2" font-family="Helvetica,sans-Serif" font-size="9.00">O&#39;Brien, Charlotte (On Leave)</text>
<text xml:space="preserve" text-anchor="middle" x="1460.64" y="-9.45" font-family="Helvetica,sans-Serif" font-size="9.00">Head of Talent Acquisition</text>
</g>
<!-- 8_Koyo,_Karl_Delors&#45;&gt;73_O&#39;Brien,_Charlotte_(On_Leave) -->
<g id="edge40" class="edge">
<title>8_Koyo,_Karl_Delors&#45;&gt;73_O&#39;Brien,_Charlotte_(On_Leave)</title>
<path fill="none" stroke="#aaaaaa" stroke-width="0.7" d="M1135.9,-60.51C1135.9,-54.34 1135.9,-49 1135.9,-49 1135.9,-49 1458.95,-49 1458.95,-49 1458.95,-49 1458.95,-43.45 1458.95,-43.45"/>
<polygon fill="#aaaaaa" stroke="#aaaaaa" stroke-width="0.7" points="1461.05,-43.45 1458.95,-37.45 1456.85,-43.45 1461.05,-43.45"/>
</g>
</g>
</svg>
