<?xml version="1.0" encoding="UTF-8" standalone="no"?>
<!DOCTYPE svg PUBLIC "-//W3C//DTD SVG 1.1//EN"
 "http://www.w3.org/Graphics/SVG/1.1/DTD/svg11.dtd">
<!-- Generated by graphviz version 13.1.2 (0)
 -->
<!-- Pages: 1 -->
<svg width="992pt" height="138pt"
 viewBox="4.00 4.00 988.00 134.00" xmlns="http://www.w3.org/2000/svg" xmlns:xlink="http://www.w3.org/1999/xlink">
<g id="graph0" class="graph" transform="scale(1 1) rotate(0) translate(10.8 127.05)">
<polygon fill="white" stroke="none" points="-7.2,7.2 -7.2,-123.45 977.11,-123.45 977.11,7.2 -7.2,7.2"/>
<text xml:space="preserve" text-anchor="middle" x="484.95" y="-102.75" font-family="Times,serif" font-size="10.00">Team of (2) Managers</text>
<!-- 66_(2)_Managers -->
<g id="node1" class="node">
<title>66_(2)_Managers</title>
<path fill="#e3f2fd" stroke="#555555" d="M437.4,-97C437.4,-97 389.38,-97 389.38,-97 383.38,-97 377.38,-91 377.38,-85 377.38,-85 377.38,-73 377.38,-73 377.38,-67 383.38,-61 389.38,-61 389.38,-61 437.4,-61 437.4,-61 443.4,-61 449.4,-67 449.4,-73 449.4,-73 449.4,-85 449.4,-85 449.4,-91 443.4,-97 437.4,-97"/>
<text xml:space="preserve" text-anchor="middle" x="413.39" y="-75.33" font-family="Helvetica,sans-Serif" font-size="9.00">(2) Managers</text>
</g>
<!-- 78_Alhajri,_Asma -->
<g id="node2" class="node">
<title>78_Alhajri,_Asma</title>
<path fill="#f9f9f9" stroke="#555555" d="M132.78,-36C132.78,-36 12,-36 12,-36 6,-36 0,-30 0,-24 0,-24 0,-12 0,-12 0,-6 6,0 12,0 12,0 132.78,0 132.78,0 138.78,0 144.78,-6 144.78,-12 144.78,-12 144.78,-24 144.78,-24 144.78,-30 138.78,-36 132.78,-36"/>
<text xml:space="preserve" text-anchor="middle" x="72.39" y="-19.2" font-family="Helvetica,sans-Serif" font-size="9.00">Alhajri, Asma</text>
<text xml:space="preserve" text-anchor="middle" x="72.39" y="-9.45" font-family="Helvetica,sans-Serif" font-size="9.00">Immigration Services Specialist</text>
</g>
<!-- 66_(2)_Managers&#45;&gt;78_Alhajri,_Asma -->
<g id="edge1" class="edge">
<title>66_(2)_Managers&#45;&gt;78_Alhajri,_Asma</title>
<path fill="none" stroke="#aaaaaa" stroke-width="0.7" d="M376.9,-85C288.93,-85 72.39,-85 72.39,-85 72.39,-85 72.39,-43.37 72.39,-43.37"/>
<polygon fill="#aaaaaa" stroke="#aaaaaa" stroke-width="0.7" points="74.49,-43.37 72.39,-37.37 70.29,-43.37 74.49,-43.37"/>
</g>
<!-- 79_Alhosani,_Maryam -->
<g id="node3" class="node">
<title>79_Alhosani,_Maryam</title>
<path fill="#f9f9f9" stroke="#555555" d="M291.78,-36C291.78,-36 171,-36 171,-36 165,-36 159,-30 159,-24 159,-24 159,-12 159,-12 159,-6 165,0 171,0 171,0 291.78,0 291.78,0 297.78,0 303.78,-6 303.78,-12 303.78,-12 303.78,-24 303.78,-24 303.78,-30 297.78,-36 291.78,-36"/>
<text xml:space="preserve" text-anchor="middle" x="231.39" y="-19.2" font-family="Helvetica,sans-Serif" font-size="9.00">Alhosani, Maryam</text>
<text xml:space="preserve" text-anchor="middle" x="231.39" y="-9.45" font-family="Helvetica,sans-Serif" font-size="9.00">Immigration Services Specialist</text>
</g>
<!-- 66_(2)_Managers&#45;&gt;79_Alhosani,_Maryam -->
<g id="edge2" class="edge">
<title>66_(2)_Managers&#45;&gt;79_Alhosani,_Maryam</title>
<path fill="none" stroke="#aaaaaa" stroke-width="0.7" d="M377,-73C323.88,-73 231.39,-73 231.39,-73 231.39,-73 231.39,-43.37 231.39,-43.37"/>
<polygon fill="#aaaaaa" stroke="#aaaaaa" stroke-width="0.7" points="233.49,-43.37 231.39,-37.37 229.29,-43.37 233.49,-43.37"/>
</g>
<!-- 80_AlNahdi,_Zayed_QahtanSaleh -->
<g id="node4" class="node">
<title>80_AlNahdi,_Zayed_QahtanSaleh</title>
<path fill="#f9f9f9" stroke="#555555" d="M497.4,-36C497.4,-36 329.38,-36 329.38,-36 323.38,-36 317.38,-30 317.38,-24 317.38,-24 317.38,-12 317.38,-12 317.38,-6 323.38,0 329.38,0 329.38,0 497.4,0 497.4,0 503.4,0 509.4,-6 509.4,-12 509.4,-12 509.4,-24 509.4,-24 509.4,-30 503.4,-36 497.4,-36"/>
<text xml:space="preserve" text-anchor="middle" x="413.39" y="-19.2" font-family="Helvetica,sans-Serif" font-size="9.00">AlNahdi, Zayed QahtanSaleh</text>
<text xml:space="preserve" text-anchor="middle" x="413.39" y="-9.45" font-family="Helvetica,sans-Serif" font-size="9.00">Immigration Services Operations Specialist</text>
</g>
<!-- 66_(2)_Managers&#45;&gt;80_AlNahdi,_Zayed_QahtanSaleh -->
<g id="edge3" class="edge">
<title>66_(2)_Managers&#45;&gt;80_AlNahdi,_Zayed_QahtanSaleh</title>
<path fill="none" stroke="#aaaaaa" stroke-width="0.7" d="M413.39,-60.7C413.39,-60.7 413.39,-43.35 413.39,-43.35"/>
<polygon fill="#aaaaaa" stroke="#aaaaaa" stroke-width="0.7" points="415.49,-43.35 413.39,-37.35 411.29,-43.35 415.49,-43.35"/>
</g>
<!-- 81_Alqubaisi,_Mera_Eid -->
<g id="node5" class="node">
<title>81_Alqubaisi,_Mera_Eid</title>
<path fill="#f9f9f9" stroke="#555555" d="M665.28,-36C665.28,-36 535.5,-36 535.5,-36 529.5,-36 523.5,-30 523.5,-24 523.5,-24 523.5,-12 523.5,-12 523.5,-6 529.5,0 535.5,0 535.5,0 665.28,0 665.28,0 671.28,0 677.28,-6 677.28,-12 677.28,-12 677.28,-24 677.28,-24 677.28,-30 671.28,-36 665.28,-36"/>
<text xml:space="preserve" text-anchor="middle" x="600.39" y="-19.2" font-family="Helvetica,sans-Serif" font-size="9.00">Alqubaisi, Mera Eid</text>
<text xml:space="preserve" text-anchor="middle" x="600.39" y="-9.45" font-family="Helvetica,sans-Serif" font-size="9.00">Immigration Services Coordinator</text>
</g>
<!-- 66_(2)_Managers&#45;&gt;81_Alqubaisi,_Mera_Eid -->
<g id="edge4" class="edge">
<title>66_(2)_Managers&#45;&gt;81_Alqubaisi,_Mera_Eid</title>
<path fill="none" stroke="#aaaaaa" stroke-width="0.7" d="M449.89,-73C504.31,-73 600.39,-73 600.39,-73 600.39,-73 600.39,-43.37 600.39,-43.37"/>
<polygon fill="#aaaaaa" stroke="#aaaaaa" stroke-width="0.7" points="602.49,-43.37 600.39,-37.37 598.29,-43.37 602.49,-43.37"/>
</g>
<!-- 82_Mohamed,_Nouf -->
<g id="node6" class="node">
<title>82_Mohamed,_Nouf</title>
<path fill="#f9f9f9" stroke="#555555" d="M957.9,-36C957.9,-36 702.88,-36 702.88,-36 696.88,-36 690.88,-30 690.88,-24 690.88,-24 690.88,-12 690.88,-12 690.88,-6 696.88,0 702.88,0 702.88,0 957.9,0 957.9,0 963.9,0 969.9,-6 969.9,-12 969.9,-12 969.9,-24 969.9,-24 969.9,-30 963.9,-36 957.9,-36"/>
<text xml:space="preserve" text-anchor="middle" x="830.39" y="-19.2" font-family="Helvetica,sans-Serif" font-size="9.00">Mohamed, Nouf</text>
<text xml:space="preserve" text-anchor="middle" x="830.39" y="-9.45" font-family="Helvetica,sans-Serif" font-size="9.00">Operations and Communication Specialist, Immigration Services</text>
</g>
<!-- 66_(2)_Managers&#45;&gt;82_Mohamed,_Nouf -->
<g id="edge5" class="edge">
<title>66_(2)_Managers&#45;&gt;82_Mohamed,_Nouf</title>
<path fill="none" stroke="#aaaaaa" stroke-width="0.7" d="M449.67,-85C551.12,-85 830.39,-85 830.39,-85 830.39,-85 830.39,-43.37 830.39,-43.37"/>
<polygon fill="#aaaaaa" stroke="#aaaaaa" stroke-width="0.7" points="832.49,-43.37 830.39,-37.37 828.29,-43.37 832.49,-43.37"/>
</g>
</g>
</svg>
