<?xml version="1.0" encoding="UTF-8" standalone="no"?>
<!DOCTYPE svg PUBLIC "-//W3C//DTD SVG 1.1//EN"
 "http://www.w3.org/Graphics/SVG/1.1/DTD/svg11.dtd">
<!-- Generated by graphviz version 13.1.2 (0)
 -->
<!-- Pages: 1 -->
<svg width="692pt" height="138pt"
 viewBox="4.00 4.00 688.00 134.00" xmlns="http://www.w3.org/2000/svg" xmlns:xlink="http://www.w3.org/1999/xlink">
<g id="graph0" class="graph" transform="scale(1 1) rotate(0) translate(10.8 127.05)">
<polygon fill="white" stroke="none" points="-7.2,7.2 -7.2,-123.45 677.36,-123.45 677.36,7.2 -7.2,7.2"/>
<text xml:space="preserve" text-anchor="middle" x="335.08" y="-102.75" font-family="Times,serif" font-size="10.00">Team of Alhosani, Yaaqoub</text>
<!-- 64_Alhosani,_Yaaqoub -->
<g id="node1" class="node">
<title>64_Alhosani,_Yaaqoub</title>
<path fill="#e3f2fd" stroke="#555555" d="M379.53,-97C379.53,-97 278.25,-97 278.25,-97 272.25,-97 266.25,-91 266.25,-85 266.25,-85 266.25,-73 266.25,-73 266.25,-67 272.25,-61 278.25,-61 278.25,-61 379.53,-61 379.53,-61 385.53,-61 391.53,-67 391.53,-73 391.53,-73 391.53,-85 391.53,-85 391.53,-91 385.53,-97 379.53,-97"/>
<text xml:space="preserve" text-anchor="middle" x="328.89" y="-80.2" font-family="Helvetica,sans-Serif" font-size="9.00">Alhosani, Yaaqoub</text>
<text xml:space="preserve" text-anchor="middle" x="328.89" y="-70.45" font-family="Helvetica,sans-Serif" font-size="9.00">Manager, Public Relations</text>
</g>
<!-- 74_Alhameli,_Falah -->
<g id="node2" class="node">
<title>74_Alhameli,_Falah</title>
<path fill="#f9f9f9" stroke="#555555" d="M141.78,-36C141.78,-36 12,-36 12,-36 6,-36 0,-30 0,-24 0,-24 0,-12 0,-12 0,-6 6,0 12,0 12,0 141.78,0 141.78,0 147.78,0 153.78,-6 153.78,-12 153.78,-12 153.78,-24 153.78,-24 153.78,-30 147.78,-36 141.78,-36"/>
<text xml:space="preserve" text-anchor="middle" x="76.89" y="-19.2" font-family="Helvetica,sans-Serif" font-size="9.00">Alhameli, Falah</text>
<text xml:space="preserve" text-anchor="middle" x="76.89" y="-9.45" font-family="Helvetica,sans-Serif" font-size="9.00">Immigration Services Coordinator</text>
</g>
<!-- 64_Alhosani,_Yaaqoub&#45;&gt;74_Alhameli,_Falah -->
<g id="edge1" class="edge">
<title>64_Alhosani,_Yaaqoub&#45;&gt;74_Alhameli,_Falah</title>
<path fill="none" stroke="#aaaaaa" stroke-width="0.7" d="M265.95,-79C191.31,-79 76.89,-79 76.89,-79 76.89,-79 76.89,-43.36 76.89,-43.36"/>
<polygon fill="#aaaaaa" stroke="#aaaaaa" stroke-width="0.7" points="78.99,-43.36 76.89,-37.36 74.79,-43.36 78.99,-43.36"/>
</g>
<!-- 75_Aljaberi,_Alyazia -->
<g id="node3" class="node">
<title>75_Aljaberi,_Alyazia</title>
<path fill="#f9f9f9" stroke="#555555" d="M309.78,-36C309.78,-36 180,-36 180,-36 174,-36 168,-30 168,-24 168,-24 168,-12 168,-12 168,-6 174,0 180,0 180,0 309.78,0 309.78,0 315.78,0 321.78,-6 321.78,-12 321.78,-12 321.78,-24 321.78,-24 321.78,-30 315.78,-36 309.78,-36"/>
<text xml:space="preserve" text-anchor="middle" x="244.89" y="-19.2" font-family="Helvetica,sans-Serif" font-size="9.00">Aljaberi, Alyazia</text>
<text xml:space="preserve" text-anchor="middle" x="244.89" y="-9.45" font-family="Helvetica,sans-Serif" font-size="9.00">Immigration Services Coordinator</text>
</g>
<!-- 64_Alhosani,_Yaaqoub&#45;&gt;75_Aljaberi,_Alyazia -->
<g id="edge2" class="edge">
<title>64_Alhosani,_Yaaqoub&#45;&gt;75_Aljaberi,_Alyazia</title>
<path fill="none" stroke="#aaaaaa" stroke-width="0.7" d="M294.01,-60.7C294.01,-60.7 294.01,-43.35 294.01,-43.35"/>
<polygon fill="#aaaaaa" stroke="#aaaaaa" stroke-width="0.7" points="296.12,-43.35 294.02,-37.35 291.92,-43.35 296.12,-43.35"/>
</g>
<!-- 76_Almansoori,_Maitha -->
<g id="node4" class="node">
<title>76_Almansoori,_Maitha</title>
<path fill="#f9f9f9" stroke="#555555" d="M477.78,-36C477.78,-36 348,-36 348,-36 342,-36 336,-30 336,-24 336,-24 336,-12 336,-12 336,-6 342,0 348,0 348,0 477.78,0 477.78,0 483.78,0 489.78,-6 489.78,-12 489.78,-12 489.78,-24 489.78,-24 489.78,-30 483.78,-36 477.78,-36"/>
<text xml:space="preserve" text-anchor="middle" x="412.89" y="-19.2" font-family="Helvetica,sans-Serif" font-size="9.00">Almansoori, Maitha</text>
<text xml:space="preserve" text-anchor="middle" x="412.89" y="-9.45" font-family="Helvetica,sans-Serif" font-size="9.00">Immigration Services Coordinator</text>
</g>
<!-- 64_Alhosani,_Yaaqoub&#45;&gt;76_Almansoori,_Maitha -->
<g id="edge3" class="edge">
<title>64_Alhosani,_Yaaqoub&#45;&gt;76_Almansoori,_Maitha</title>
<path fill="none" stroke="#aaaaaa" stroke-width="0.7" d="M363.76,-60.7C363.76,-60.7 363.76,-43.35 363.76,-43.35"/>
<polygon fill="#aaaaaa" stroke="#aaaaaa" stroke-width="0.7" points="365.87,-43.35 363.77,-37.35 361.67,-43.35 365.87,-43.35"/>
</g>
<!-- 77_Nasser,_Feras_Obaid_Al -->
<g id="node5" class="node">
<title>77_Nasser,_Feras_Obaid_Al</title>
<path fill="#f9f9f9" stroke="#555555" d="M658.15,-36C658.15,-36 515.62,-36 515.62,-36 509.62,-36 503.62,-30 503.62,-24 503.62,-24 503.62,-12 503.62,-12 503.62,-6 509.62,0 515.62,0 515.62,0 658.15,0 658.15,0 664.15,0 670.15,-6 670.15,-12 670.15,-12 670.15,-24 670.15,-24 670.15,-30 664.15,-36 658.15,-36"/>
<text xml:space="preserve" text-anchor="middle" x="586.89" y="-19.2" font-family="Helvetica,sans-Serif" font-size="9.00">Nasser, Feras Obaid Al</text>
<text xml:space="preserve" text-anchor="middle" x="586.89" y="-9.45" font-family="Helvetica,sans-Serif" font-size="9.00">Senior PRO &amp; Immigration Specialist</text>
</g>
<!-- 64_Alhosani,_Yaaqoub&#45;&gt;77_Nasser,_Feras_Obaid_Al -->
<g id="edge4" class="edge">
<title>64_Alhosani,_Yaaqoub&#45;&gt;77_Nasser,_Feras_Obaid_Al</title>
<path fill="none" stroke="#aaaaaa" stroke-width="0.7" d="M392,-79C468.38,-79 586.89,-79 586.89,-79 586.89,-79 586.89,-43.36 586.89,-43.36"/>
<polygon fill="#aaaaaa" stroke="#aaaaaa" stroke-width="0.7" points="588.99,-43.36 586.89,-37.36 584.79,-43.36 588.99,-43.36"/>
</g>
</g>
</svg>
