<?xml version="1.0" encoding="UTF-8" standalone="no"?>
<!DOCTYPE svg PUBLIC "-//W3C//DTD SVG 1.1//EN"
 "http://www.w3.org/Graphics/SVG/1.1/DTD/svg11.dtd">
<!-- Generated by graphviz version 13.1.2 (0)
 -->
<!-- Pages: 1 -->
<svg width="1006pt" height="377pt"
 viewBox="4.00 4.00 1003.00 373.00" xmlns="http://www.w3.org/2000/svg" xmlns:xlink="http://www.w3.org/1999/xlink">
<g id="graph0" class="graph" transform="scale(1 1) rotate(0) translate(10.8 366.05)">
<polygon fill="white" stroke="none" points="-7.2,7.2 -7.2,-362.45 992.07,-362.45 992.07,7.2 -7.2,7.2"/>
<text xml:space="preserve" text-anchor="middle" x="492.44" y="-341.75" font-family="Times,serif" font-size="10.00">HR Org Chart — High Level</text>
<!-- 8_Koyo,_Karl_Delors -->
<g id="node1" class="node">
<title>8_Koyo,_Karl_Delors</title>
<path fill="#f5f5f5" stroke="#555555" d="M427.06,-211C427.06,-211 239.53,-211 239.53,-211 233.53,-211 227.53,-205 227.53,-199 227.53,-199 227.53,-187 227.53,-187 227.53,-181 233.53,-175 239.53,-175 239.53,-175 427.06,-175 427.06,-175 433.06,-175 439.06,-181 439.06,-187 439.06,-187 439.06,-199 439.06,-199 439.06,-205 433.06,-211 427.06,-211"/>
<text xml:space="preserve" text-anchor="middle" x="333.29" y="-194.2" font-family="Helvetica,sans-Serif" font-size="9.00">Koyo, Karl Delors</text>
<text xml:space="preserve" text-anchor="middle" x="333.29" y="-184.45" font-family="Helvetica,sans-Serif" font-size="9.00">Executive Director, Strategic HR Transformation</text>
</g>
<!-- 72_Arikat,_Suhair_Mohamed_Atta_Khalil -->
<g id="node4" class="node">
<title>72_Arikat,_Suhair_Mohamed_Atta_Khalil</title>
<path fill="#f5f5f5" stroke="#555555" d="M705.59,-299C705.59,-299 497.06,-299 497.06,-299 491.06,-299 485.06,-293 485.06,-287 485.06,-287 485.06,-275 485.06,-275 485.06,-269 491.06,-263 497.06,-263 497.06,-263 705.59,-263 705.59,-263 711.59,-263 717.59,-269 717.59,-275 717.59,-275 717.59,-287 717.59,-287 717.59,-293 711.59,-299 705.59,-299"/>
<text xml:space="preserve" text-anchor="middle" x="601.32" y="-282.2" font-family="Helvetica,sans-Serif" font-size="9.00">Arikat, Suhair Mohamed Atta Khalil</text>
<text xml:space="preserve" text-anchor="middle" x="601.32" y="-272.45" font-family="Helvetica,sans-Serif" font-size="9.00">Director, HR Business Partner &amp; Employee Relations</text>
</g>
<!-- 8_Koyo,_Karl_Delors&#45;&gt;72_Arikat,_Suhair_Mohamed_Atta_Khalil -->
<g id="edge3" class="edge">
<title>8_Koyo,_Karl_Delors&#45;&gt;72_Arikat,_Suhair_Mohamed_Atta_Khalil</title>
<path fill="none" stroke="#aaaaaa" stroke-width="0.7" d="M439.27,-207C469.72,-207 494.87,-207 494.87,-207 494.87,-207 494.87,-255.65 494.87,-255.65"/>
<polygon fill="#aaaaaa" stroke="#aaaaaa" stroke-width="0.7" points="492.77,-255.65 494.87,-261.65 496.97,-255.65 492.77,-255.65"/>
</g>
<!-- 73_O&#39;Brien,_Charlotte_(On_Leave) -->
<g id="node6" class="node">
<title>73_O&#39;Brien,_Charlotte_(On_Leave)</title>
<path fill="#f5f5f5" stroke="#555555" d="M657.96,-249C657.96,-249 544.68,-249 544.68,-249 538.68,-249 532.68,-243 532.68,-237 532.68,-237 532.68,-225 532.68,-225 532.68,-219 538.68,-213 544.68,-213 544.68,-213 657.96,-213 657.96,-213 663.96,-213 669.96,-219 669.96,-225 669.96,-225 669.96,-237 669.96,-237 669.96,-243 663.96,-249 657.96,-249"/>
<text xml:space="preserve" text-anchor="middle" x="601.32" y="-232.2" font-family="Helvetica,sans-Serif" font-size="9.00">O&#39;Brien, Charlotte (On Leave)</text>
<text xml:space="preserve" text-anchor="middle" x="601.32" y="-222.45" font-family="Helvetica,sans-Serif" font-size="9.00">Head of Talent Acquisition</text>
</g>
<!-- 8_Koyo,_Karl_Delors&#45;&gt;73_O&#39;Brien,_Charlotte_(On_Leave) -->
<g id="edge5" class="edge">
<title>8_Koyo,_Karl_Delors&#45;&gt;73_O&#39;Brien,_Charlotte_(On_Leave)</title>
<path fill="none" stroke="#aaaaaa" stroke-width="0.7" d="M439.43,-203C514.14,-203 600.87,-203 600.87,-203 600.87,-203 600.87,-205.73 600.87,-205.73"/>
<polygon fill="#aaaaaa" stroke="#aaaaaa" stroke-width="0.7" points="598.77,-205.73 600.87,-211.73 602.97,-205.73 598.77,-205.73"/>
</g>
<!-- 71_Mreish,_Amani -->
<g id="node11" class="node">
<title>71_Mreish,_Amani</title>
<path fill="#f5f5f5" stroke="#555555" d="M686.09,-199C686.09,-199 516.56,-199 516.56,-199 510.56,-199 504.56,-193 504.56,-187 504.56,-187 504.56,-175 504.56,-175 504.56,-169 510.56,-163 516.56,-163 516.56,-163 686.09,-163 686.09,-163 692.09,-163 698.09,-169 698.09,-175 698.09,-175 698.09,-187 698.09,-187 698.09,-193 692.09,-199 686.09,-199"/>
<text xml:space="preserve" text-anchor="middle" x="601.32" y="-182.2" font-family="Helvetica,sans-Serif" font-size="9.00">Mreish, Amani</text>
<text xml:space="preserve" text-anchor="middle" x="601.32" y="-172.45" font-family="Helvetica,sans-Serif" font-size="9.00">Director, Compensation, Benefits and HRIS</text>
</g>
<!-- 8_Koyo,_Karl_Delors&#45;&gt;71_Mreish,_Amani -->
<g id="edge10" class="edge">
<title>8_Koyo,_Karl_Delors&#45;&gt;71_Mreish,_Amani</title>
<path fill="none" stroke="#aaaaaa" stroke-width="0.7" d="M439.23,-187C439.23,-187 497.38,-187 497.38,-187"/>
<polygon fill="#aaaaaa" stroke="#aaaaaa" stroke-width="0.7" points="497.38,-189.1 503.38,-187 497.38,-184.9 497.38,-189.1"/>
</g>
<!-- 66_(2)_Managers -->
<g id="node2" class="node">
<title>66_(2)_Managers</title>
<path fill="#f5f5f5" stroke="#555555" d="M625.34,-149C625.34,-149 577.31,-149 577.31,-149 571.31,-149 565.31,-143 565.31,-137 565.31,-137 565.31,-125 565.31,-125 565.31,-119 571.31,-113 577.31,-113 577.31,-113 625.34,-113 625.34,-113 631.34,-113 637.34,-119 637.34,-125 637.34,-125 637.34,-137 637.34,-137 637.34,-143 631.34,-149 625.34,-149"/>
<text xml:space="preserve" text-anchor="middle" x="601.32" y="-127.33" font-family="Helvetica,sans-Serif" font-size="9.00">(2) Managers</text>
</g>
<!-- 0_AlNuaimi,_Rashed -->
<g id="node3" class="node">
<title>0_AlNuaimi,_Rashed</title>
<path fill="#e3f2fd" stroke="#555555" d="M169.53,-111C169.53,-111 12,-111 12,-111 6,-111 0,-105 0,-99 0,-99 0,-87 0,-87 0,-81 6,-75 12,-75 12,-75 169.53,-75 169.53,-75 175.53,-75 181.53,-81 181.53,-87 181.53,-87 181.53,-99 181.53,-99 181.53,-105 175.53,-111 169.53,-111"/>
<text xml:space="preserve" text-anchor="middle" x="90.76" y="-94.2" font-family="Helvetica,sans-Serif" font-size="9.00">AlNuaimi, Rashed</text>
<text xml:space="preserve" text-anchor="middle" x="90.76" y="-84.45" font-family="Helvetica,sans-Serif" font-size="9.00">Chief Human Resources Officer (CHRO)</text>
</g>
<!-- 0_AlNuaimi,_Rashed&#45;&gt;8_Koyo,_Karl_Delors -->
<g id="edge1" class="edge">
<title>0_AlNuaimi,_Rashed&#45;&gt;8_Koyo,_Karl_Delors</title>
<path fill="none" stroke="#aaaaaa" stroke-width="0.7" d="M90.87,-111.34C90.87,-140.21 90.87,-193 90.87,-193 90.87,-193 220.26,-193 220.26,-193"/>
<polygon fill="#aaaaaa" stroke="#aaaaaa" stroke-width="0.7" points="220.26,-195.1 226.26,-193 220.26,-190.9 220.26,-195.1"/>
</g>
<!-- 6_Alamoodi,_Saif -->
<g id="node9" class="node">
<title>6_Alamoodi,_Saif</title>
<path fill="#f5f5f5" stroke="#555555" d="M448.06,-136C448.06,-136 218.53,-136 218.53,-136 212.53,-136 206.53,-130 206.53,-124 206.53,-124 206.53,-112 206.53,-112 206.53,-106 212.53,-100 218.53,-100 218.53,-100 448.06,-100 448.06,-100 454.06,-100 460.06,-106 460.06,-112 460.06,-112 460.06,-124 460.06,-124 460.06,-130 454.06,-136 448.06,-136"/>
<text xml:space="preserve" text-anchor="middle" x="333.29" y="-119.2" font-family="Helvetica,sans-Serif" font-size="9.00">Alamoodi, Saif</text>
<text xml:space="preserve" text-anchor="middle" x="333.29" y="-109.45" font-family="Helvetica,sans-Serif" font-size="9.00">Director, Government Relations and Immigration &#160;Services</text>
</g>
<!-- 0_AlNuaimi,_Rashed&#45;&gt;6_Alamoodi,_Saif -->
<g id="edge8" class="edge">
<title>0_AlNuaimi,_Rashed&#45;&gt;6_Alamoodi,_Saif</title>
<path fill="none" stroke="#aaaaaa" stroke-width="0.7" d="M181.76,-105.5C181.76,-105.5 199.32,-105.5 199.32,-105.5"/>
<polygon fill="#aaaaaa" stroke="#aaaaaa" stroke-width="0.7" points="199.32,-107.6 205.32,-105.5 199.32,-103.4 199.32,-107.6"/>
</g>
<!-- 5_Moussoux,_Florence -->
<g id="node13" class="node">
<title>5_Moussoux,_Florence</title>
<path fill="#f5f5f5" stroke="#555555" d="M416.93,-86C416.93,-86 249.65,-86 249.65,-86 243.65,-86 237.65,-80 237.65,-74 237.65,-74 237.65,-62 237.65,-62 237.65,-56 243.65,-50 249.65,-50 249.65,-50 416.93,-50 416.93,-50 422.93,-50 428.93,-56 428.93,-62 428.93,-62 428.93,-74 428.93,-74 428.93,-80 422.93,-86 416.93,-86"/>
<text xml:space="preserve" text-anchor="middle" x="333.29" y="-69.2" font-family="Helvetica,sans-Serif" font-size="9.00">Moussoux, Florence</text>
<text xml:space="preserve" text-anchor="middle" x="333.29" y="-59.45" font-family="Helvetica,sans-Serif" font-size="9.00">Head of HR Planning &amp; Strategic Initiatives</text>
</g>
<!-- 0_AlNuaimi,_Rashed&#45;&gt;5_Moussoux,_Florence -->
<g id="edge12" class="edge">
<title>0_AlNuaimi,_Rashed&#45;&gt;5_Moussoux,_Florence</title>
<path fill="none" stroke="#aaaaaa" stroke-width="0.7" d="M181.76,-82.33C181.76,-82.33 230.27,-82.33 230.27,-82.33"/>
<polygon fill="#aaaaaa" stroke="#aaaaaa" stroke-width="0.7" points="230.27,-84.43 236.27,-82.33 230.27,-80.23 230.27,-84.43"/>
</g>
<!-- 7_Putnins,_Natasha -->
<g id="node15" class="node">
<title>7_Putnins,_Natasha</title>
<path fill="#f5f5f5" stroke="#555555" d="M430.43,-36C430.43,-36 236.15,-36 236.15,-36 230.15,-36 224.15,-30 224.15,-24 224.15,-24 224.15,-12 224.15,-12 224.15,-6 230.15,0 236.15,0 236.15,0 430.43,0 430.43,0 436.43,0 442.43,-6 442.43,-12 442.43,-12 442.43,-24 442.43,-24 442.43,-30 436.43,-36 430.43,-36"/>
<text xml:space="preserve" text-anchor="middle" x="333.29" y="-19.2" font-family="Helvetica,sans-Serif" font-size="9.00">Putnins, Natasha</text>
<text xml:space="preserve" text-anchor="middle" x="333.29" y="-9.45" font-family="Helvetica,sans-Serif" font-size="9.00">Director, Learning &amp; Organizational Development</text>
</g>
<!-- 0_AlNuaimi,_Rashed&#45;&gt;7_Putnins,_Natasha -->
<g id="edge14" class="edge">
<title>0_AlNuaimi,_Rashed&#45;&gt;7_Putnins,_Natasha</title>
<path fill="none" stroke="#aaaaaa" stroke-width="0.7" d="M181.87,-78.67C208.63,-78.67 230.87,-78.67 230.87,-78.67 230.87,-78.67 230.87,-43.26 230.87,-43.26"/>
<polygon fill="#aaaaaa" stroke="#aaaaaa" stroke-width="0.7" points="232.97,-43.26 230.87,-37.26 228.77,-43.26 232.97,-43.26"/>
</g>
<!-- 89_Nyamanhindi,_Alvina -->
<g id="node10" class="node">
<title>89_Nyamanhindi,_Alvina</title>
<path fill="#f5f5f5" stroke="#555555" d="M905.37,-336C905.37,-336 822.09,-336 822.09,-336 816.09,-336 810.09,-330 810.09,-324 810.09,-324 810.09,-312 810.09,-312 810.09,-306 816.09,-300 822.09,-300 822.09,-300 905.37,-300 905.37,-300 911.37,-300 917.37,-306 917.37,-312 917.37,-312 917.37,-324 917.37,-324 917.37,-330 911.37,-336 905.37,-336"/>
<text xml:space="preserve" text-anchor="middle" x="863.73" y="-319.2" font-family="Helvetica,sans-Serif" font-size="9.00">Nyamanhindi, Alvina</text>
<text xml:space="preserve" text-anchor="middle" x="863.73" y="-309.45" font-family="Helvetica,sans-Serif" font-size="9.00">HR Services Manager</text>
</g>
<!-- 72_Arikat,_Suhair_Mohamed_Atta_Khalil&#45;&gt;89_Nyamanhindi,_Alvina -->
<g id="edge9" class="edge">
<title>72_Arikat,_Suhair_Mohamed_Atta_Khalil&#45;&gt;89_Nyamanhindi,_Alvina</title>
<path fill="none" stroke="#aaaaaa" stroke-width="0.7" d="M718.01,-292.5C788.13,-292.5 863.87,-292.5 863.87,-292.5 863.87,-292.5 863.87,-293.22 863.87,-293.22"/>
<polygon fill="#aaaaaa" stroke="#aaaaaa" stroke-width="0.7" points="861.77,-292.68 863.87,-298.68 865.97,-292.68 861.77,-292.68"/>
</g>
<!-- 88_Issa,_Fatima -->
<g id="node12" class="node">
<title>88_Issa,_Fatima</title>
<path fill="#f5f5f5" stroke="#555555" d="M941,-286C941,-286 786.47,-286 786.47,-286 780.47,-286 774.47,-280 774.47,-274 774.47,-274 774.47,-262 774.47,-262 774.47,-256 780.47,-250 786.47,-250 786.47,-250 941,-250 941,-250 947,-250 953,-256 953,-262 953,-262 953,-274 953,-274 953,-280 947,-286 941,-286"/>
<text xml:space="preserve" text-anchor="middle" x="863.73" y="-269.2" font-family="Helvetica,sans-Serif" font-size="9.00">Issa, Fatima</text>
<text xml:space="preserve" text-anchor="middle" x="863.73" y="-259.45" font-family="Helvetica,sans-Serif" font-size="9.00">Assistant Director, HR Business Partner</text>
</g>
<!-- 72_Arikat,_Suhair_Mohamed_Atta_Khalil&#45;&gt;88_Issa,_Fatima -->
<g id="edge11" class="edge">
<title>72_Arikat,_Suhair_Mohamed_Atta_Khalil&#45;&gt;88_Issa,_Fatima</title>
<path fill="none" stroke="#aaaaaa" stroke-width="0.7" d="M717.95,-274.5C717.95,-274.5 767.19,-274.5 767.19,-274.5"/>
<polygon fill="#aaaaaa" stroke="#aaaaaa" stroke-width="0.7" points="767.19,-276.6 773.19,-274.5 767.19,-272.4 767.19,-276.6"/>
</g>
<!-- 67_Gameel,_Saru -->
<g id="node5" class="node">
<title>67_Gameel,_Saru</title>
<path fill="#f5f5f5" stroke="#555555" d="M676.71,-99C676.71,-99 525.93,-99 525.93,-99 519.93,-99 513.93,-93 513.93,-87 513.93,-87 513.93,-75 513.93,-75 513.93,-69 519.93,-63 525.93,-63 525.93,-63 676.71,-63 676.71,-63 682.71,-63 688.71,-69 688.71,-75 688.71,-75 688.71,-87 688.71,-87 688.71,-93 682.71,-99 676.71,-99"/>
<text xml:space="preserve" text-anchor="middle" x="601.32" y="-82.2" font-family="Helvetica,sans-Serif" font-size="9.00">Gameel, Saru</text>
<text xml:space="preserve" text-anchor="middle" x="601.32" y="-72.45" font-family="Helvetica,sans-Serif" font-size="9.00">Assistant Director, Relocation Services</text>
</g>
<!-- 85_Ramos,_Jasmin_Oconer -->
<g id="node7" class="node">
<title>85_Ramos,_Jasmin_Oconer</title>
<path fill="#f5f5f5" stroke="#555555" d="M919.25,-224C919.25,-224 808.22,-224 808.22,-224 802.22,-224 796.22,-218 796.22,-212 796.22,-212 796.22,-200 796.22,-200 796.22,-194 802.22,-188 808.22,-188 808.22,-188 919.25,-188 919.25,-188 925.25,-188 931.25,-194 931.25,-200 931.25,-200 931.25,-212 931.25,-212 931.25,-218 925.25,-224 919.25,-224"/>
<text xml:space="preserve" text-anchor="middle" x="863.73" y="-207.2" font-family="Helvetica,sans-Serif" font-size="9.00">Ramos, Jasmin Oconer</text>
<text xml:space="preserve" text-anchor="middle" x="863.73" y="-197.45" font-family="Helvetica,sans-Serif" font-size="9.00">Manager, Employee Benefits</text>
</g>
<!-- 86_Moghrabi,_Mona -->
<g id="node8" class="node">
<title>86_Moghrabi,_Mona</title>
<path fill="#f5f5f5" stroke="#555555" d="M972.87,-174C972.87,-174 754.59,-174 754.59,-174 748.59,-174 742.59,-168 742.59,-162 742.59,-162 742.59,-150 742.59,-150 742.59,-144 748.59,-138 754.59,-138 754.59,-138 972.87,-138 972.87,-138 978.87,-138 984.87,-144 984.87,-150 984.87,-150 984.87,-162 984.87,-162 984.87,-168 978.87,-174 972.87,-174"/>
<text xml:space="preserve" text-anchor="middle" x="863.73" y="-157.2" font-family="Helvetica,sans-Serif" font-size="9.00">Moghrabi, Mona</text>
<text xml:space="preserve" text-anchor="middle" x="863.73" y="-147.45" font-family="Helvetica,sans-Serif" font-size="9.00">Assistant Director, HR Information System and Services</text>
</g>
<!-- 6_Alamoodi,_Saif&#45;&gt;66_(2)_Managers -->
<g id="edge2" class="edge">
<title>6_Alamoodi,_Saif&#45;&gt;66_(2)_Managers</title>
<path fill="none" stroke="#aaaaaa" stroke-width="0.7" d="M460.25,-124.5C460.25,-124.5 557.82,-124.5 557.82,-124.5"/>
<polygon fill="#aaaaaa" stroke="#aaaaaa" stroke-width="0.7" points="557.82,-126.6 563.82,-124.5 557.82,-122.4 557.82,-126.6"/>
</g>
<!-- 6_Alamoodi,_Saif&#45;&gt;67_Gameel,_Saru -->
<g id="edge4" class="edge">
<title>6_Alamoodi,_Saif&#45;&gt;67_Gameel,_Saru</title>
<path fill="none" stroke="#aaaaaa" stroke-width="0.7" d="M453.87,-99.74C453.87,-95.65 453.87,-92.5 453.87,-92.5 453.87,-92.5 506.79,-92.5 506.79,-92.5"/>
<polygon fill="#aaaaaa" stroke="#aaaaaa" stroke-width="0.7" points="506.79,-94.6 512.79,-92.5 506.79,-90.4 506.79,-94.6"/>
</g>
<!-- 64_Alhosani,_Yaaqoub -->
<g id="node14" class="node">
<title>64_Alhosani,_Yaaqoub</title>
<path fill="#f5f5f5" stroke="#555555" d="M651.96,-49C651.96,-49 550.68,-49 550.68,-49 544.68,-49 538.68,-43 538.68,-37 538.68,-37 538.68,-25 538.68,-25 538.68,-19 544.68,-13 550.68,-13 550.68,-13 651.96,-13 651.96,-13 657.96,-13 663.96,-19 663.96,-25 663.96,-25 663.96,-37 663.96,-37 663.96,-43 657.96,-49 651.96,-49"/>
<text xml:space="preserve" text-anchor="middle" x="601.32" y="-32.2" font-family="Helvetica,sans-Serif" font-size="9.00">Alhosani, Yaaqoub</text>
<text xml:space="preserve" text-anchor="middle" x="601.32" y="-22.45" font-family="Helvetica,sans-Serif" font-size="9.00">Manager, Public Relations</text>
</g>
<!-- 6_Alamoodi,_Saif&#45;&gt;64_Alhosani,_Yaaqoub -->
<g id="edge13" class="edge">
<title>6_Alamoodi,_Saif&#45;&gt;64_Alhosani,_Yaaqoub</title>
<path fill="none" stroke="#aaaaaa" stroke-width="0.7" d="M447.87,-99.72C447.87,-77.38 447.87,-42.5 447.87,-42.5 447.87,-42.5 531.41,-42.5 531.41,-42.5"/>
<polygon fill="#aaaaaa" stroke="#aaaaaa" stroke-width="0.7" points="531.41,-44.6 537.41,-42.5 531.41,-40.4 531.41,-44.6"/>
</g>
<!-- 71_Mreish,_Amani&#45;&gt;85_Ramos,_Jasmin_Oconer -->
<g id="edge6" class="edge">
<title>71_Mreish,_Amani&#45;&gt;85_Ramos,_Jasmin_Oconer</title>
<path fill="none" stroke="#aaaaaa" stroke-width="0.7" d="M698.29,-193.5C698.29,-193.5 788.76,-193.5 788.76,-193.5"/>
<polygon fill="#aaaaaa" stroke="#aaaaaa" stroke-width="0.7" points="788.76,-195.6 794.76,-193.5 788.76,-191.4 788.76,-195.6"/>
</g>
<!-- 71_Mreish,_Amani&#45;&gt;86_Moghrabi,_Mona -->
<g id="edge7" class="edge">
<title>71_Mreish,_Amani&#45;&gt;86_Moghrabi,_Mona</title>
<path fill="none" stroke="#aaaaaa" stroke-width="0.7" d="M698.29,-168.5C698.29,-168.5 735.16,-168.5 735.16,-168.5"/>
<polygon fill="#aaaaaa" stroke="#aaaaaa" stroke-width="0.7" points="735.16,-170.6 741.16,-168.5 735.16,-166.4 735.16,-170.6"/>
</g>
</g>
</svg>
