<?xml version="1.0" encoding="UTF-8" standalone="no"?>
<!DOCTYPE svg PUBLIC "-//W3C//DTD SVG 1.1//EN"
 "http://www.w3.org/Graphics/SVG/1.1/DTD/svg11.dtd">
<!-- Generated by graphviz version 13.1.2 (0)
 -->
<!-- Pages: 1 -->
<svg width="1672pt" height="199pt"
 viewBox="4.00 4.00 1668.00 195.00" xmlns="http://www.w3.org/2000/svg" xmlns:xlink="http://www.w3.org/1999/xlink">
<g id="graph0" class="graph" transform="scale(1 1) rotate(0) translate(10.8 188.05)">
<polygon fill="white" stroke="none" points="-7.2,7.2 -7.2,-184.45 1657.36,-184.45 1657.36,7.2 -7.2,7.2"/>
<text xml:space="preserve" text-anchor="middle" x="825.08" y="-163.75" font-family="Times,serif" font-size="10.00">Team of Koyo, Karl Delors</text>
<!-- 8_Koyo,_Karl_Delors -->
<g id="node1" class="node">
<title>8_Koyo,_Karl_Delors</title>
<path fill="#e3f2fd" stroke="#555555" d="M899.28,-158C899.28,-158 711.75,-158 711.75,-158 705.75,-158 699.75,-152 699.75,-146 699.75,-146 699.75,-134 699.75,-134 699.75,-128 705.75,-122 711.75,-122 711.75,-122 899.28,-122 899.28,-122 905.28,-122 911.28,-128 911.28,-134 911.28,-134 911.28,-146 911.28,-146 911.28,-152 905.28,-158 899.28,-158"/>
<text xml:space="preserve" text-anchor="middle" x="805.51" y="-141.2" font-family="Helvetica,sans-Serif" font-size="9.00">Koyo, Karl Delors</text>
<text xml:space="preserve" text-anchor="middle" x="805.51" y="-131.45" font-family="Helvetica,sans-Serif" font-size="9.00">Executive Director, Strategic HR Transformation</text>
</g>
<!-- 71_Mreish,_Amani -->
<g id="node2" class="node">
<title>71_Mreish,_Amani</title>
<path fill="#f9f9f9" stroke="#555555" d="M458.28,-97C458.28,-97 288.75,-97 288.75,-97 282.75,-97 276.75,-91 276.75,-85 276.75,-85 276.75,-73 276.75,-73 276.75,-67 282.75,-61 288.75,-61 288.75,-61 458.28,-61 458.28,-61 464.28,-61 470.28,-67 470.28,-73 470.28,-73 470.28,-85 470.28,-85 470.28,-91 464.28,-97 458.28,-97"/>
<text xml:space="preserve" text-anchor="middle" x="373.51" y="-80.2" font-family="Helvetica,sans-Serif" font-size="9.00">Mreish, Amani</text>
<text xml:space="preserve" text-anchor="middle" x="373.51" y="-70.45" font-family="Helvetica,sans-Serif" font-size="9.00">Director, Compensation, Benefits and HRIS</text>
</g>
<!-- 8_Koyo,_Karl_Delors&#45;&gt;71_Mreish,_Amani -->
<g id="edge1" class="edge">
<title>8_Koyo,_Karl_Delors&#45;&gt;71_Mreish,_Amani</title>
<path fill="none" stroke="#aaaaaa" stroke-width="0.7" d="M699.28,-140C571.37,-140 373.51,-140 373.51,-140 373.51,-140 373.51,-104.36 373.51,-104.36"/>
<polygon fill="#aaaaaa" stroke="#aaaaaa" stroke-width="0.7" points="375.62,-104.36 373.52,-98.36 371.42,-104.36 375.62,-104.36"/>
</g>
<!-- 72_Arikat,_Suhair_Mohamed_Atta_Khalil -->
<g id="node3" class="node">
<title>72_Arikat,_Suhair_Mohamed_Atta_Khalil</title>
<path fill="#f9f9f9" stroke="#555555" d="M909.78,-97C909.78,-97 701.25,-97 701.25,-97 695.25,-97 689.25,-91 689.25,-85 689.25,-85 689.25,-73 689.25,-73 689.25,-67 695.25,-61 701.25,-61 701.25,-61 909.78,-61 909.78,-61 915.78,-61 921.78,-67 921.78,-73 921.78,-73 921.78,-85 921.78,-85 921.78,-91 915.78,-97 909.78,-97"/>
<text xml:space="preserve" text-anchor="middle" x="805.51" y="-80.2" font-family="Helvetica,sans-Serif" font-size="9.00">Arikat, Suhair Mohamed Atta Khalil</text>
<text xml:space="preserve" text-anchor="middle" x="805.51" y="-70.45" font-family="Helvetica,sans-Serif" font-size="9.00">Director, HR Business Partner &amp; Employee Relations</text>
</g>
<!-- 8_Koyo,_Karl_Delors&#45;&gt;72_Arikat,_Suhair_Mohamed_Atta_Khalil -->
<g id="edge2" class="edge">
<title>8_Koyo,_Karl_Delors&#45;&gt;72_Arikat,_Suhair_Mohamed_Atta_Khalil</title>
<path fill="none" stroke="#aaaaaa" stroke-width="0.7" d="M805.51,-121.7C805.51,-121.7 805.51,-104.35 805.51,-104.35"/>
<polygon fill="#aaaaaa" stroke="#aaaaaa" stroke-width="0.7" points="807.62,-104.35 805.52,-98.35 803.42,-104.35 807.62,-104.35"/>
</g>
<!-- 73_O&#39;Brien,_Charlotte_(On_Leave) -->
<g id="node4" class="node">
<title>73_O&#39;Brien,_Charlotte_(On_Leave)</title>
<path fill="#f9f9f9" stroke="#555555" d="M1341.15,-97C1341.15,-97 1227.87,-97 1227.87,-97 1221.87,-97 1215.87,-91 1215.87,-85 1215.87,-85 1215.87,-73 1215.87,-73 1215.87,-67 1221.87,-61 1227.87,-61 1227.87,-61 1341.15,-61 1341.15,-61 1347.15,-61 1353.15,-67 1353.15,-73 1353.15,-73 1353.15,-85 1353.15,-85 1353.15,-91 1347.15,-97 1341.15,-97"/>
<text xml:space="preserve" text-anchor="middle" x="1284.51" y="-80.2" font-family="Helvetica,sans-Serif" font-size="9.00">O&#39;Brien, Charlotte (On Leave)</text>
<text xml:space="preserve" text-anchor="middle" x="1284.51" y="-70.45" font-family="Helvetica,sans-Serif" font-size="9.00">Head of Talent Acquisition</text>
</g>
<!-- 8_Koyo,_Karl_Delors&#45;&gt;73_O&#39;Brien,_Charlotte_(On_Leave) -->
<g id="edge3" class="edge">
<title>8_Koyo,_Karl_Delors&#45;&gt;73_O&#39;Brien,_Charlotte_(On_Leave)</title>
<path fill="none" stroke="#aaaaaa" stroke-width="0.7" d="M911.52,-140C1052.61,-140 1284.51,-140 1284.51,-140 1284.51,-140 1284.51,-104.36 1284.51,-104.36"/>
<polygon fill="#aaaaaa" stroke="#aaaaaa" stroke-width="0.7" points="1286.62,-104.36 1284.52,-98.36 1282.42,-104.36 1286.62,-104.36"/>
</g>
<!-- 85_Ramos,_Jasmin_Oconer -->
<g id="node5" class="node">
<title>85_Ramos,_Jasmin_Oconer</title>
<path fill="#ffffff" stroke="#555555" d="M123.03,-36C123.03,-36 12,-36 12,-36 6,-36 0,-30 0,-24 0,-24 0,-12 0,-12 0,-6 6,0 12,0 12,0 123.03,0 123.03,0 129.03,0 135.03,-6 135.03,-12 135.03,-12 135.03,-24 135.03,-24 135.03,-30 129.03,-36 123.03,-36"/>
<text xml:space="preserve" text-anchor="middle" x="67.51" y="-19.2" font-family="Helvetica,sans-Serif" font-size="9.00">Ramos, Jasmin Oconer</text>
<text xml:space="preserve" text-anchor="middle" x="67.51" y="-9.45" font-family="Helvetica,sans-Serif" font-size="9.00">Manager, Employee Benefits</text>
</g>
<!-- 71_Mreish,_Amani&#45;&gt;85_Ramos,_Jasmin_Oconer -->
<g id="edge4" class="edge">
<title>71_Mreish,_Amani&#45;&gt;85_Ramos,_Jasmin_Oconer</title>
<path fill="none" stroke="#aaaaaa" stroke-width="0.7" d="M276.27,-79C186.67,-79 67.51,-79 67.51,-79 67.51,-79 67.51,-43.36 67.51,-43.36"/>
<polygon fill="#aaaaaa" stroke="#aaaaaa" stroke-width="0.7" points="69.62,-43.36 67.52,-37.36 65.42,-43.36 69.62,-43.36"/>
</g>
<!-- 86_Moghrabi,_Mona -->
<g id="node6" class="node">
<title>86_Moghrabi,_Mona</title>
<path fill="#ffffff" stroke="#555555" d="M379.65,-36C379.65,-36 161.38,-36 161.38,-36 155.38,-36 149.38,-30 149.38,-24 149.38,-24 149.38,-12 149.38,-12 149.38,-6 155.38,0 161.38,0 161.38,0 379.65,0 379.65,0 385.65,0 391.65,-6 391.65,-12 391.65,-12 391.65,-24 391.65,-24 391.65,-30 385.65,-36 379.65,-36"/>
<text xml:space="preserve" text-anchor="middle" x="270.51" y="-19.2" font-family="Helvetica,sans-Serif" font-size="9.00">Moghrabi, Mona</text>
<text xml:space="preserve" text-anchor="middle" x="270.51" y="-9.45" font-family="Helvetica,sans-Serif" font-size="9.00">Assistant Director, HR Information System and Services</text>
</g>
<!-- 71_Mreish,_Amani&#45;&gt;86_Moghrabi,_Mona -->
<g id="edge5" class="edge">
<title>71_Mreish,_Amani&#45;&gt;86_Moghrabi,_Mona</title>
<path fill="none" stroke="#aaaaaa" stroke-width="0.7" d="M334.2,-60.7C334.2,-60.7 334.2,-43.35 334.2,-43.35"/>
<polygon fill="#aaaaaa" stroke="#aaaaaa" stroke-width="0.7" points="336.3,-43.35 334.2,-37.35 332.1,-43.35 336.3,-43.35"/>
</g>
<!-- 87_Saadeddin,_Hanan_Tayel -->
<g id="node7" class="node">
<title>87_Saadeddin,_Hanan_Tayel</title>
<path fill="#ffffff" stroke="#555555" d="M532.9,-36C532.9,-36 418.12,-36 418.12,-36 412.12,-36 406.12,-30 406.12,-24 406.12,-24 406.12,-12 406.12,-12 406.12,-6 412.12,0 418.12,0 418.12,0 532.9,0 532.9,0 538.9,0 544.9,-6 544.9,-12 544.9,-12 544.9,-24 544.9,-24 544.9,-30 538.9,-36 532.9,-36"/>
<text xml:space="preserve" text-anchor="middle" x="475.51" y="-19.2" font-family="Helvetica,sans-Serif" font-size="9.00">Saadeddin, Hanan Tayel</text>
<text xml:space="preserve" text-anchor="middle" x="475.51" y="-9.45" font-family="Helvetica,sans-Serif" font-size="9.00">Senior Compensation Analyst</text>
</g>
<!-- 71_Mreish,_Amani&#45;&gt;87_Saadeddin,_Hanan_Tayel -->
<g id="edge6" class="edge">
<title>71_Mreish,_Amani&#45;&gt;87_Saadeddin,_Hanan_Tayel</title>
<path fill="none" stroke="#aaaaaa" stroke-width="0.7" d="M438.2,-60.7C438.2,-60.7 438.2,-43.35 438.2,-43.35"/>
<polygon fill="#aaaaaa" stroke="#aaaaaa" stroke-width="0.7" points="440.3,-43.35 438.2,-37.35 436.1,-43.35 440.3,-43.35"/>
</g>
<!-- 88_Issa,_Fatima -->
<g id="node8" class="node">
<title>88_Issa,_Fatima</title>
<path fill="#ffffff" stroke="#555555" d="M725.78,-36C725.78,-36 571.25,-36 571.25,-36 565.25,-36 559.25,-30 559.25,-24 559.25,-24 559.25,-12 559.25,-12 559.25,-6 565.25,0 571.25,0 571.25,0 725.78,0 725.78,0 731.78,0 737.78,-6 737.78,-12 737.78,-12 737.78,-24 737.78,-24 737.78,-30 731.78,-36 725.78,-36"/>
<text xml:space="preserve" text-anchor="middle" x="648.51" y="-19.2" font-family="Helvetica,sans-Serif" font-size="9.00">Issa, Fatima</text>
<text xml:space="preserve" text-anchor="middle" x="648.51" y="-9.45" font-family="Helvetica,sans-Serif" font-size="9.00">Assistant Director, HR Business Partner</text>
</g>
<!-- 72_Arikat,_Suhair_Mohamed_Atta_Khalil&#45;&gt;88_Issa,_Fatima -->
<g id="edge7" class="edge">
<title>72_Arikat,_Suhair_Mohamed_Atta_Khalil&#45;&gt;88_Issa,_Fatima</title>
<path fill="none" stroke="#aaaaaa" stroke-width="0.7" d="M713.51,-60.7C713.51,-60.7 713.51,-43.35 713.51,-43.35"/>
<polygon fill="#aaaaaa" stroke="#aaaaaa" stroke-width="0.7" points="715.62,-43.35 713.52,-37.35 711.42,-43.35 715.62,-43.35"/>
</g>
<!-- 89_Nyamanhindi,_Alvina -->
<g id="node9" class="node">
<title>89_Nyamanhindi,_Alvina</title>
<path fill="#ffffff" stroke="#555555" d="M847.15,-36C847.15,-36 763.88,-36 763.88,-36 757.88,-36 751.88,-30 751.88,-24 751.88,-24 751.88,-12 751.88,-12 751.88,-6 757.88,0 763.88,0 763.88,0 847.15,0 847.15,0 853.15,0 859.15,-6 859.15,-12 859.15,-12 859.15,-24 859.15,-24 859.15,-30 853.15,-36 847.15,-36"/>
<text xml:space="preserve" text-anchor="middle" x="805.51" y="-19.2" font-family="Helvetica,sans-Serif" font-size="9.00">Nyamanhindi, Alvina</text>
<text xml:space="preserve" text-anchor="middle" x="805.51" y="-9.45" font-family="Helvetica,sans-Serif" font-size="9.00">HR Services Manager</text>
</g>
<!-- 72_Arikat,_Suhair_Mohamed_Atta_Khalil&#45;&gt;89_Nyamanhindi,_Alvina -->
<g id="edge8" class="edge">
<title>72_Arikat,_Suhair_Mohamed_Atta_Khalil&#45;&gt;89_Nyamanhindi,_Alvina</title>
<path fill="none" stroke="#aaaaaa" stroke-width="0.7" d="M805.51,-60.7C805.51,-60.7 805.51,-43.35 805.51,-43.35"/>
<polygon fill="#aaaaaa" stroke="#aaaaaa" stroke-width="0.7" points="807.62,-43.35 805.52,-37.35 803.42,-43.35 807.62,-43.35"/>
</g>
<!-- 90_Alblooshi,_Majed_Nabeel_(ماجد_نبيل_البلوشي) -->
<g id="node10" class="node">
<title>90_Alblooshi,_Majed_Nabeel_(ماجد_نبيل_البلوشي)</title>
<path fill="#ffffff" stroke="#555555" d="M1048.28,-36C1048.28,-36 884.75,-36 884.75,-36 878.75,-36 872.75,-30 872.75,-24 872.75,-24 872.75,-12 872.75,-12 872.75,-6 878.75,0 884.75,0 884.75,0 1048.28,0 1048.28,0 1054.28,0 1060.28,-6 1060.28,-12 1060.28,-12 1060.28,-24 1060.28,-24 1060.28,-30 1054.28,-36 1048.28,-36"/>
<text xml:space="preserve" text-anchor="middle" x="966.51" y="-19.95" font-family="Helvetica,sans-Serif" font-size="9.00">Alblooshi, Majed Nabeel (ماجد نبيل البلوشي)</text>
<text xml:space="preserve" text-anchor="middle" x="966.51" y="-8.7" font-family="Helvetica,sans-Serif" font-size="9.00">Human Resources Business Partner</text>
</g>
<!-- 72_Arikat,_Suhair_Mohamed_Atta_Khalil&#45;&gt;90_Alblooshi,_Majed_Nabeel_(ماجد_نبيل_البلوشي) -->
<g id="edge9" class="edge">
<title>72_Arikat,_Suhair_Mohamed_Atta_Khalil&#45;&gt;90_Alblooshi,_Majed_Nabeel_(ماجد_نبيل_البلوشي)</title>
<path fill="none" stroke="#aaaaaa" stroke-width="0.7" d="M897.26,-60.7C897.26,-60.7 897.26,-43.35 897.26,-43.35"/>
<polygon fill="#aaaaaa" stroke="#aaaaaa" stroke-width="0.7" points="899.37,-43.35 897.27,-37.35 895.17,-43.35 899.37,-43.35"/>
</g>
<!-- 92_Aniciete,_Margie_Navarro -->
<g id="node11" class="node">
<title>92_Aniciete,_Margie_Navarro</title>
<path fill="#ffffff" stroke="#555555" d="M1193.15,-36C1193.15,-36 1085.87,-36 1085.87,-36 1079.87,-36 1073.87,-30 1073.87,-24 1073.87,-24 1073.87,-12 1073.87,-12 1073.87,-6 1079.87,0 1085.87,0 1085.87,0 1193.15,0 1193.15,0 1199.15,0 1205.15,-6 1205.15,-12 1205.15,-12 1205.15,-24 1205.15,-24 1205.15,-30 1199.15,-36 1193.15,-36"/>
<text xml:space="preserve" text-anchor="middle" x="1139.51" y="-19.2" font-family="Helvetica,sans-Serif" font-size="9.00">Aniciete, Margie Navarro</text>
<text xml:space="preserve" text-anchor="middle" x="1139.51" y="-9.45" font-family="Helvetica,sans-Serif" font-size="9.00">Talent Acquisition Specialist</text>
</g>
<!-- 73_O&#39;Brien,_Charlotte_(On_Leave)&#45;&gt;92_Aniciete,_Margie_Navarro -->
<g id="edge10" class="edge">
<title>73_O&#39;Brien,_Charlotte_(On_Leave)&#45;&gt;92_Aniciete,_Margie_Navarro</title>
<path fill="none" stroke="#aaaaaa" stroke-width="0.7" d="M1215.41,-79C1178.07,-79 1139.51,-79 1139.51,-79 1139.51,-79 1139.51,-43.36 1139.51,-43.36"/>
<polygon fill="#aaaaaa" stroke="#aaaaaa" stroke-width="0.7" points="1141.62,-43.36 1139.52,-37.36 1137.42,-43.36 1141.62,-43.36"/>
</g>
<!-- 93_Baker,_Stacey_Alana -->
<g id="node12" class="node">
<title>93_Baker,_Stacey_Alana</title>
<path fill="#ffffff" stroke="#555555" d="M1338.15,-36C1338.15,-36 1230.87,-36 1230.87,-36 1224.87,-36 1218.87,-30 1218.87,-24 1218.87,-24 1218.87,-12 1218.87,-12 1218.87,-6 1224.87,0 1230.87,0 1230.87,0 1338.15,0 1338.15,0 1344.15,0 1350.15,-6 1350.15,-12 1350.15,-12 1350.15,-24 1350.15,-24 1350.15,-30 1344.15,-36 1338.15,-36"/>
<text xml:space="preserve" text-anchor="middle" x="1284.51" y="-19.2" font-family="Helvetica,sans-Serif" font-size="9.00">Baker, Stacey Alana</text>
<text xml:space="preserve" text-anchor="middle" x="1284.51" y="-9.45" font-family="Helvetica,sans-Serif" font-size="9.00">Talent Acquisition Specialist</text>
</g>
<!-- 73_O&#39;Brien,_Charlotte_(On_Leave)&#45;&gt;93_Baker,_Stacey_Alana -->
<g id="edge11" class="edge">
<title>73_O&#39;Brien,_Charlotte_(On_Leave)&#45;&gt;93_Baker,_Stacey_Alana</title>
<path fill="none" stroke="#aaaaaa" stroke-width="0.7" d="M1284.51,-60.7C1284.51,-60.7 1284.51,-43.35 1284.51,-43.35"/>
<polygon fill="#aaaaaa" stroke="#aaaaaa" stroke-width="0.7" points="1286.62,-43.35 1284.52,-37.35 1282.42,-43.35 1286.62,-43.35"/>
</g>
<!-- 94_Da_Cruz,_Amanda -->
<g id="node13" class="node">
<title>94_Da_Cruz,_Amanda</title>
<path fill="#ffffff" stroke="#555555" d="M1492.65,-36C1492.65,-36 1376.37,-36 1376.37,-36 1370.37,-36 1364.37,-30 1364.37,-24 1364.37,-24 1364.37,-12 1364.37,-12 1364.37,-6 1370.37,0 1376.37,0 1376.37,0 1492.65,0 1492.65,0 1498.65,0 1504.65,-6 1504.65,-12 1504.65,-12 1504.65,-24 1504.65,-24 1504.65,-30 1498.65,-36 1492.65,-36"/>
<text xml:space="preserve" text-anchor="middle" x="1434.51" y="-19.2" font-family="Helvetica,sans-Serif" font-size="9.00">Da Cruz, Amanda</text>
<text xml:space="preserve" text-anchor="middle" x="1434.51" y="-9.45" font-family="Helvetica,sans-Serif" font-size="9.00">Talent Acquisition Coordinator</text>
</g>
<!-- 73_O&#39;Brien,_Charlotte_(On_Leave)&#45;&gt;94_Da_Cruz,_Amanda -->
<g id="edge12" class="edge">
<title>73_O&#39;Brien,_Charlotte_(On_Leave)&#45;&gt;94_Da_Cruz,_Amanda</title>
<path fill="none" stroke="#aaaaaa" stroke-width="0.7" d="M1353.37,-73C1392.8,-73 1434.51,-73 1434.51,-73 1434.51,-73 1434.51,-43.37 1434.51,-43.37"/>
<polygon fill="#aaaaaa" stroke="#aaaaaa" stroke-width="0.7" points="1436.62,-43.37 1434.52,-37.37 1432.42,-43.37 1436.62,-43.37"/>
</g>
<!-- 95_Fikree,_Shurooq -->
<g id="node14" class="node">
<title>95_Fikree,_Shurooq</title>
<path fill="#ffffff" stroke="#555555" d="M1638.15,-36C1638.15,-36 1530.87,-36 1530.87,-36 1524.87,-36 1518.87,-30 1518.87,-24 1518.87,-24 1518.87,-12 1518.87,-12 1518.87,-6 1524.87,0 1530.87,0 1530.87,0 1638.15,0 1638.15,0 1644.15,0 1650.15,-6 1650.15,-12 1650.15,-12 1650.15,-24 1650.15,-24 1650.15,-30 1644.15,-36 1638.15,-36"/>
<text xml:space="preserve" text-anchor="middle" x="1584.51" y="-19.2" font-family="Helvetica,sans-Serif" font-size="9.00">Fikree, Shurooq</text>
<text xml:space="preserve" text-anchor="middle" x="1584.51" y="-9.45" font-family="Helvetica,sans-Serif" font-size="9.00">Talent Acquisition Specialist</text>
</g>
<!-- 73_O&#39;Brien,_Charlotte_(On_Leave)&#45;&gt;95_Fikree,_Shurooq -->
<g id="edge13" class="edge">
<title>73_O&#39;Brien,_Charlotte_(On_Leave)&#45;&gt;95_Fikree,_Shurooq</title>
<path fill="none" stroke="#aaaaaa" stroke-width="0.7" d="M1353.34,-85C1441.91,-85 1584.51,-85 1584.51,-85 1584.51,-85 1584.51,-43.37 1584.51,-43.37"/>
<polygon fill="#aaaaaa" stroke="#aaaaaa" stroke-width="0.7" points="1586.62,-43.37 1584.52,-37.37 1582.42,-43.37 1586.62,-43.37"/>
</g>
</g>
</svg>
